<svg width="24" height="25" viewBox="0 0 24 25" fill="none" xmlns="http://www.w3.org/2000/svg">
<g id="icon_bus" opacity="0.8">
<g id="Layer 1">
<path id="Vector" d="M11.9704 1.07031C14.3275 1.07031 16.6846 1.07031 19.0417 1.07031C19.9845 1.07031 20.8472 1.24592 21.3493 2.17815C21.5373 2.50073 21.6407 2.8656 21.6498 3.23885C21.6498 3.67137 21.6498 4.10272 21.6498 4.53525C21.6498 5.35081 21.6498 5.35081 22.4571 5.42506C23.6204 5.53113 24.377 6.95717 23.8042 7.9778C23.7605 8.06611 23.6903 8.13852 23.6033 8.18485C23.5164 8.23118 23.4171 8.24911 23.3194 8.2361C23.2218 8.2231 23.1306 8.17982 23.0588 8.11235C22.987 8.04488 22.9382 7.95661 22.9191 7.85994C22.8844 7.64693 22.8725 7.43081 22.8838 7.21527C22.9097 6.67668 22.6481 6.47868 22.1319 6.494C21.7783 6.50343 21.6263 6.6425 21.6498 6.99135C21.6604 7.1481 21.6498 7.30602 21.6498 7.46277C21.6498 11.4093 21.6498 15.3559 21.6498 19.3025C21.6498 20.3691 21.4236 20.6826 20.3794 20.9654C20.0635 21.0503 19.9692 21.2117 19.9751 21.5028C19.9751 21.8564 19.9869 22.21 19.9669 22.5635C19.9589 22.8807 19.8383 23.1847 19.6267 23.4212C19.4151 23.6576 19.1263 23.8111 18.8119 23.854C18.2876 23.9398 17.7538 23.9498 17.2267 23.8835C16.364 23.7763 15.9539 23.3143 15.9303 22.428C15.9209 22.0945 15.9209 21.7598 15.9303 21.4262C15.9303 21.1304 15.7948 20.9961 15.5025 20.9961C13.1454 20.9961 10.7883 20.9961 8.43121 20.9961C8.10593 20.9961 7.96922 21.1434 7.97747 21.4675C7.98572 21.7916 7.98572 22.1357 7.97747 22.4693C7.94447 23.319 7.53552 23.7786 6.70228 23.8835C6.17553 23.9523 5.6416 23.9444 5.11713 23.8599C4.80252 23.8214 4.51168 23.6728 4.29601 23.4406C4.08035 23.2083 3.95374 22.9072 3.93858 22.5906C3.92909 22.473 3.92909 22.3547 3.93858 22.2371C3.99397 21.5429 4.00694 20.9654 3.05113 20.8016C2.40057 20.6837 2.25443 20.0332 2.25679 19.3873C2.26739 15.4404 2.25679 11.4911 2.25679 7.54763C2.25679 7.39088 2.24618 7.23295 2.25679 7.07621C2.28625 6.69907 2.17665 6.47868 1.7394 6.49518C1.33634 6.50932 1.03817 6.59771 1.03227 7.07385C1.0345 7.32854 1.0219 7.58314 0.99456 7.83637C0.983337 7.94793 0.930564 8.0512 0.846723 8.12565C0.762882 8.2001 0.654106 8.2403 0.541997 8.23826C0.482436 8.24526 0.422074 8.24017 0.364529 8.22328C0.306985 8.20639 0.253442 8.17806 0.20711 8.13998C0.160778 8.10191 0.122612 8.05487 0.0948979 8.00168C0.0671841 7.9485 0.0504937 7.89027 0.0458272 7.83048C-0.0991345 6.69082 0.0104707 5.44156 1.72055 5.43095C2.14011 5.43095 2.26622 5.24238 2.25207 4.85346C2.2344 4.32311 2.23793 3.79276 2.25207 3.26359C2.28389 2.08504 3.02992 1.27302 4.19786 1.1316C4.51079 1.09474 4.82561 1.07624 5.1407 1.07621C7.41609 1.07228 9.69265 1.07031 11.9704 1.07031ZM11.9539 5.34491C9.26327 5.34491 6.57146 5.34491 3.88083 5.34491C3.50369 5.34491 3.23852 5.37674 3.24441 5.86701C3.26327 7.55705 3.2562 9.24592 3.24441 10.9348C3.24441 11.266 3.37995 11.438 3.69933 11.5111C6.13658 12.0674 8.5856 12.5023 11.0912 12.5753C14.1366 12.6625 17.1183 12.23 20.0729 11.5394C20.4972 11.4404 20.6622 11.2589 20.6551 10.824C20.6375 9.23295 20.6245 7.64191 20.661 6.05087C20.674 5.46159 20.4536 5.33077 19.9079 5.33549C17.2574 5.35906 14.6056 5.34609 11.9539 5.34609V5.34491ZM11.9539 19.92C14.6434 19.92 17.334 19.92 20.0234 19.92C20.5243 19.92 20.654 19.6843 20.661 19.2282C20.6681 18.7721 20.4913 18.5942 20.0376 18.6119C19.4878 18.638 18.937 18.6341 18.3876 18.6001C17.9174 18.5673 17.4781 18.3542 17.1611 18.0054C16.8442 17.6565 16.6741 17.1988 16.6864 16.7276C16.6988 16.2565 16.8925 15.8082 17.2272 15.4764C17.5619 15.1446 18.0118 14.9548 18.4831 14.9466C19.0523 14.9301 19.6215 14.9348 20.1908 14.9466C20.5137 14.9466 20.6551 14.8063 20.6504 14.4846C20.6434 14.0132 20.6257 13.5417 20.6575 13.0703C20.6917 12.5659 20.5573 12.4127 20.0293 12.5659C17.5426 13.2907 14.9816 13.5347 12.4065 13.5665C9.49191 13.603 6.6021 13.3485 3.78419 12.5459C3.4153 12.441 3.22673 12.4858 3.24795 12.9265C3.27152 13.4368 3.26327 13.9483 3.24795 14.4586C3.2397 14.8122 3.39409 14.9548 3.74176 14.9477C4.27211 14.936 4.80246 14.9383 5.3328 14.9477C6.35814 14.969 7.19727 15.7727 7.21848 16.7486C7.24323 17.7008 6.40175 18.5694 5.38937 18.613C4.86021 18.6366 4.32868 18.6331 3.79951 18.613C3.3988 18.6024 3.23616 18.7627 3.2397 19.1693C3.2397 19.7998 3.33045 19.913 3.99397 19.9142C6.64728 19.9228 9.29941 19.9271 11.9504 19.9271L11.9539 19.92ZM11.9622 4.35022H14.2603C16.1825 4.35022 18.1059 4.35022 20.0281 4.35022C20.2698 4.35022 20.5467 4.41504 20.6422 4.0544C20.9262 2.95599 20.3157 2.1204 19.1808 2.11922C14.3534 2.11451 9.52648 2.11451 4.69992 2.11922C3.67458 2.11922 3.27623 2.52229 3.25148 3.53348C3.23145 4.3184 3.25148 4.34433 4.07647 4.34433L11.9622 4.35022ZM4.51135 17.57C4.78596 17.57 5.05938 17.57 5.33634 17.57C5.82662 17.57 6.10711 17.3261 6.14836 16.8334C6.18607 16.3679 5.89144 16.0084 5.38702 15.9707C4.9592 15.9354 4.52668 15.9542 4.09061 15.9542C3.24441 15.9542 3.24441 15.9542 3.24795 16.7875C3.24795 17.5547 3.26563 17.57 4.03993 17.5747L4.51135 17.57ZM19.2986 17.5641C20.7471 17.5712 20.7471 17.5712 20.6457 16.4021C20.6457 16.3632 20.6457 16.3243 20.6398 16.2842C20.6431 16.2398 20.6366 16.1953 20.621 16.1537C20.6053 16.112 20.5807 16.0743 20.549 16.0431C20.5172 16.012 20.4791 15.9881 20.4372 15.9731C20.3953 15.9582 20.3506 15.9525 20.3063 15.9566C19.6805 15.9566 19.05 15.9248 18.43 15.9837C17.9963 16.0238 17.7312 16.3302 17.7524 16.7969C17.7759 17.2836 18.0364 17.5523 18.5349 17.5618C18.7895 17.57 19.0441 17.5629 19.2986 17.5629V17.5641ZM6.96745 21.8977C6.96745 20.9949 6.96745 20.9949 6.12479 20.9925C4.99927 20.9925 4.99927 20.9925 4.99574 21.7998C4.99574 22.8511 5.0087 22.87 5.95861 22.8711C6.93445 22.8735 6.9651 22.8429 6.96745 21.8977ZM17.902 20.9878C16.9309 20.9878 16.9309 20.9878 16.9309 21.8234C16.9309 22.844 16.9521 22.8676 17.928 22.8664C18.8814 22.8664 18.9038 22.8429 18.9026 21.8647C18.9026 20.9878 18.9026 20.9878 17.902 20.9878Z" fill="#FA8B02"/>
<path id="Vector_2" d="M11.9193 18.5388C11.1332 18.5388 10.3483 18.5529 9.56218 18.5388C8.68769 18.5188 8.18092 18.0061 8.14792 17.141C8.13967 16.9254 8.14203 16.7085 8.14792 16.4928C8.16677 15.5971 8.65469 15.0114 9.53743 14.989C11.1458 14.9474 12.7564 14.9474 14.3695 14.989C15.2522 15.0114 15.7413 15.5959 15.759 16.4928C15.759 16.7285 15.7684 16.9642 15.759 17.2C15.7154 17.9967 15.2098 18.4964 14.4037 18.5411C14.3648 18.5411 14.3247 18.5411 14.2858 18.5411L11.9193 18.5388ZM12.0088 16.045C11.2652 16.045 10.5215 16.0579 9.77785 16.045C9.27343 16.0332 9.13908 16.2937 9.14615 16.7415C9.15322 17.167 9.17326 17.5394 9.74485 17.537C11.2133 17.5307 12.6814 17.5307 14.1491 17.537C14.7183 17.537 14.7454 17.1728 14.7513 16.745C14.7513 16.2995 14.6335 16.032 14.1232 16.045C13.4196 16.0579 12.7136 16.045 12.0088 16.045Z" fill="#FA8B02"/>
</g>
</g>
</svg>
