<svg width="24" height="25" viewBox="0 0 24 25" fill="none" xmlns="http://www.w3.org/2000/svg">
<g id="icon_ticket" opacity="0.8" clip-path="url(#clip0_201_1985)">
<g id="Layer 1">
<path id="Vector" d="M23.4001 12.5269C23.9158 12.4662 23.9989 12.2112 23.9989 11.782C23.9937 10.9954 23.9954 10.2089 23.9972 9.42241C23.9981 9.02915 23.9989 8.63589 23.9989 8.24263C23.9978 7.42466 23.9709 7.37297 23.1473 7.3887M23.4001 12.5269L23.1454 7.28872L23.1473 7.3887M23.4001 12.5269C23.0224 12.5683 22.6733 12.7479 22.4202 13.0313M23.4001 12.5269L22.4202 13.0313M23.1473 7.3887C22.7259 7.39657 22.6046 7.23589 22.5664 6.84488L22.6659 6.83516C22.6659 6.8352 22.6659 6.83525 22.6659 6.8353C22.6847 7.02715 22.7224 7.13398 22.784 7.19577C22.8428 7.25477 22.944 7.29247 23.1453 7.28872M23.1473 7.3887L23.1453 7.28872M23.1453 7.28872C23.3502 7.28481 23.5136 7.28477 23.6405 7.3013C23.7677 7.31786 23.8752 7.35293 23.9533 7.43339C24.0307 7.51321 24.0639 7.62205 24.0804 7.74902C24.0969 7.87622 24.0987 8.0396 24.0989 8.2425V8.24263C24.0989 8.63637 24.0981 9.02986 24.0972 9.42323C24.0954 10.2095 24.0937 10.9952 24.0989 11.7813L24.0989 11.782C24.0989 11.9976 24.0795 12.1966 23.9755 12.349C23.8672 12.5078 23.6838 12.5942 23.4118 12.6262L23.4109 12.6263C23.0578 12.665 22.7315 12.833 22.4948 13.0979C22.2582 13.3629 22.1279 13.7061 22.1293 14.0614L22.1293 14.0648L22.1292 14.0648C22.1182 14.428 22.2435 14.7822 22.4805 15.0577C22.7175 15.3332 23.049 15.51 23.4098 15.5535L23.4129 15.5538L23.4129 15.5539C23.6587 15.5913 23.8329 15.6737 23.9395 15.8232C24.0433 15.9688 24.0681 16.1584 24.0652 16.3732C24.0484 17.6087 24.0417 18.8434 24.0652 20.0778L24.0652 20.0778C24.0704 20.3554 24.0228 20.5713 23.8762 20.7131C23.7308 20.8537 23.5122 20.8977 23.2389 20.8966C20.317 20.8835 17.3911 20.8846 14.4644 20.8858C13.628 20.8861 12.7916 20.8865 11.9551 20.8865H0.831527C0.640148 20.8865 0.485239 20.883 0.363322 20.8642C0.240847 20.8452 0.137022 20.8087 0.0602805 20.7308C-0.0162505 20.6531 -0.0518758 20.5483 -0.0703554 20.4249C-0.0887857 20.3018 -0.092068 20.1452 -0.092068 19.9516C-0.092068 19.6184 -0.0912005 19.2853 -0.0903332 18.9523C-0.0880797 18.0872 -0.0858279 17.2226 -0.0987976 16.3577L23.1453 7.28872ZM22.385 4.77661C22.3575 4.49854 22.2743 4.29858 22.104 4.19063C21.9387 4.08577 21.72 4.08731 21.4729 4.13307L21.4726 4.13311C20.8263 4.2543 20.176 4.35026 19.526 4.44616C19.3648 4.46995 19.2037 4.49373 19.0426 4.51789C12.9168 5.43473 6.78995 6.34258 0.661958 7.24144L0.661879 7.24146C0.429749 7.2757 0.237434 7.34145 0.106407 7.47862C-0.0268953 7.61817 -0.0799349 7.81342 -0.075198 8.0669C-0.0527521 9.31938 -0.0594808 10.5733 -0.0718385 11.827C-0.0741468 12.0453 -0.0436923 12.2326 0.067426 12.3737C0.180062 12.5168 0.358858 12.5918 0.603079 12.6259L0.603077 12.626L0.604981 12.6262C0.95774 12.6686 1.28244 12.8397 1.51686 13.1067C1.75128 13.3737 1.87893 13.7178 1.87535 14.0731H1.87529L1.87538 14.0766C1.88467 14.4399 1.75715 14.7935 1.51809 15.0672C1.27904 15.3409 0.945888 15.5148 0.584655 15.5545L0.584647 15.5544L0.58098 15.5549C0.345872 15.5896 0.166438 15.6621 0.0502486 15.8026C-0.0654793 15.9426 -0.102303 16.1306 -0.0987984 16.3576L22.385 4.77661ZM22.385 4.77661L22.2855 4.78645L22.385 4.77655C22.385 4.77657 22.385 4.77659 22.385 4.77661ZM1.21692 8.10893C6.43939 8.11567 11.6622 8.11567 16.8855 8.10893C17.2169 8.10893 17.381 8.21005 17.345 8.55836C17.3375 8.63327 17.34 8.70818 17.3425 8.78308C17.3438 8.82054 17.345 8.85799 17.345 8.89544L0.758494 8.55836C0.751752 8.20893 0.879842 8.10893 1.21692 8.10893ZM1.21692 8.10893V8.20893C1.21688 8.20893 1.21683 8.20893 1.21679 8.20893M1.21692 8.10893L1.21679 8.20893M17.6738 18.6955C17.5338 18.6974 17.4234 18.7342 17.3442 18.808C17.2659 18.8809 17.2317 18.9774 17.2179 19.0711C17.2041 19.1641 17.2088 19.264 17.2166 19.3543C17.2196 19.3898 17.223 19.4229 17.2262 19.4543C17.2316 19.5075 17.2365 19.5556 17.2383 19.6016C17.2457 19.8047 17.1988 19.8805 17.146 19.9171C17.0809 19.9623 16.9723 19.9763 16.7922 19.9763H16.7771H16.7619H16.7468H16.7316H16.7165H16.7013H16.6862H16.6711H16.6559H16.6408H16.6256H16.6105H16.5954H16.5802H16.5651H16.5499H16.5348H16.5196H16.5045H16.4894H16.4742H16.4591H16.4439H16.4288H16.4136H16.3985H16.3834H16.3682H16.3531H16.3379H16.3228H16.3076H16.2925H16.2774H16.2622H16.2471H16.2319H16.2168H16.2017H16.1865H16.1714H16.1562H16.1411H16.1259H16.1108H16.0957H16.0805H16.0654H16.0502H16.0351H16.0199H16.0048H15.9897H15.9745H15.9594H15.9442H15.9291H15.914H15.8988H15.8837H15.8685H15.8534H15.8382H15.8231H15.808H15.7928H15.7777H15.7625H15.7474H15.7322H15.7171H15.702H15.6868H15.6717H15.6565H15.6414H15.6263H15.6111H15.596H15.5808H15.5657H15.5505H15.5354H15.5203H15.5051H15.49H15.4748H15.4597H15.4445H15.4294H15.4143H15.3991H15.384H15.3688H15.3537H15.3385H15.3234H15.3083H15.2931H15.278H15.2628H15.2477H15.2326H15.2174H15.2023H15.1871H15.172H15.1568H15.1417H15.1266H15.1114H15.0963H15.0811H15.066H15.0508H15.0357H15.0206H15.0054H14.9903H14.9751H14.96H14.9449H14.9297H14.9146H14.8994H14.8843H14.8691H14.854H14.8389H14.8237H14.8086H14.7934H14.7783H14.7631H14.748H14.7329H14.7177H14.7026H14.6874H14.6723H14.6571H14.642H14.6269H14.6117H14.5966H14.5814H14.5663H14.5512H14.536H14.5209H14.5057H14.4906H14.4754H14.4603H14.4452H14.43H14.4149H14.3997H14.3846H14.3694H14.3543H14.3392H14.324H14.3089H14.2937H14.2786H14.2635H14.2483H14.2332H14.218H14.2029H14.1877H14.1726H14.1575H14.1423H14.1272H14.112H14.0969H14.0817H14.0666H14.0515H14.0363H14.0212H14.006H13.9909H13.9757H13.9606H13.9455H13.9303H13.9152H13.9H13.8849H13.8698H13.8546H13.8395H13.8243H13.8092H13.794H13.7789H13.7638H13.7486H13.7335H13.7183H13.7032H13.688H13.6729H13.6578H13.6426H13.6275H13.6123H13.5972H13.5821H13.5669H13.5518H13.5366H13.5215H13.5063H13.4912H13.4761H13.4609H13.4458H13.4306H13.4155H13.4003H13.3852H13.3701H13.3549H13.3398H13.3246H13.3095H13.2944H13.2792H13.2641H13.2489H13.2338H13.2186H13.2035H13.1884H13.1732H13.1581H13.1429H13.1278H13.1126H13.0975H13.0824H13.0672H13.0521H13.0369H13.0218H13.0066H12.9915H12.9764H12.9612H12.9461H12.9309H12.9158H12.9007H12.8855H12.8704H12.8552H12.8401H12.8249H12.8098H12.7947H12.7795H12.7644H12.7492H12.7341H12.7189H12.7038H12.6887H12.6735H12.6584H12.6432H12.6281H12.613H12.5978H12.5827H12.5675H12.5524H12.5372H12.5221H12.507H12.4918H12.4767H12.4615H12.4464H12.4312H12.4161H12.401H12.3858H12.3707H12.3555H12.3404H12.3253H12.3101H12.295H12.2798H12.2647H12.2495H12.2344H12.2193H12.2041H12.189H12.1738H12.1587H12.1435H12.1284H12.1133H12.0981H12.083H12.0678H12.0527H12.0375H12.0224H12.0073H11.9921H11.977H11.9618H11.9467H11.9316H11.9164H11.9013H11.8861H11.871H11.8558H11.8407H11.8256H11.8104H11.7953H11.7801H11.765H11.7498H11.7347H11.7196H11.7044H11.6893H11.6741H11.659H11.6439H11.6287H11.6136H11.5984H11.5833H11.5681H11.553H11.5379H11.5227H11.5076H11.4924H11.4773H11.4621H11.447H11.4319H11.4167H11.4016H11.3864H11.3713H11.3561H11.341H11.3259H11.3107H11.2956H11.2804H11.2653H11.2502H11.235H11.2199H11.2047H11.1896H11.1744H11.1593H11.1442H11.129H11.1139H11.0987H11.0836H11.0684H11.0533H11.0382H11.023H11.0079H10.9927H10.9776H10.9625H10.9473H10.9322H10.917H10.9019H10.8867H10.8716H10.8565H10.8413H10.8262H10.811H10.7959H10.7807H10.7656H10.7505H10.7353H10.7202H10.705H10.6899H10.6748H10.6596H10.6445H10.6293H10.6142H10.599H10.5839H10.5688H10.5536H10.5385H10.5233H10.5082H10.493H10.4779H10.4628H10.4476H10.4325H10.4173H10.4022H10.387H10.3719H10.3568H10.3416H10.3265H10.3113H10.2962H10.2811H10.2659H10.2508H10.2356H10.2205H10.2053H10.1902H10.1751H10.1599H10.1448H10.1296H10.1145H10.0993H10.0842H10.0691H10.0539H10.0388H10.0236H10.0085H9.99335H9.97821H9.96307H9.94792H9.93278H9.91764H9.9025H9.88736H9.87221H9.85707H9.84193H9.82679H9.81164H9.7965H9.78136H9.76622H9.75108H9.73593H9.72079H9.70565H9.69051H9.67537H9.66022H9.64508H9.62994H9.6148H9.59965H9.58451H9.56937H9.55423H9.53909H9.52394H9.5088H9.49366H9.47852H9.46337H9.44823H9.43309H9.41795H9.40281H9.38766H9.37252H9.35738H9.34224H9.32709H9.31195H9.29681H9.28167H9.26653H9.25138H9.23624H9.2211H9.20596H9.19081H9.17567H9.16053H9.14539H9.13025H9.1151H9.09996H9.08482H9.06968H9.05453H9.03939C8.43663 19.9763 7.8338 19.9758 7.23088 19.9752C5.28758 19.9734 3.34341 19.9715 1.39806 19.9887C1.16097 19.9904 1.0299 19.965 0.95603 19.9031C0.888997 19.8469 0.84352 19.7361 0.856124 19.4813C0.896548 18.6728 0.882666 17.8644 0.868851 17.0599C0.867237 16.9659 0.865624 16.872 0.864099 16.7781L0.864093 16.7778C0.86146 16.6414 0.88248 16.5638 0.921672 16.5097C0.961684 16.4544 1.03249 16.4069 1.16772 16.358C2.22306 15.9771 2.80915 15.1545 2.80681 14.1053C2.80447 13.0583 2.2101 12.2029 1.1763 11.8383C1.04572 11.7913 0.97139 11.7458 0.926996 11.6899C0.884457 11.6363 0.858596 11.5591 0.858494 11.4232C0.874227 10.4686 0.876475 9.51153 0.858476 8.55648L0.858475 8.55643C0.855242 8.38887 0.88608 8.31405 0.927141 8.27558C0.970495 8.23497 1.05185 8.20894 1.21679 8.20893M17.6738 18.6955C17.8238 18.693 17.9419 18.7263 18.0276 18.7985C18.1134 18.8707 18.1517 18.9693 18.1681 19.0662C18.1842 19.162 18.1804 19.2657 18.1739 19.3595C18.1718 19.3897 18.1695 19.4185 18.1672 19.4461C18.1621 19.5089 18.1576 19.5655 18.1574 19.6183C18.1568 19.7774 18.1784 19.8595 18.2173 19.9047C18.2524 19.9454 18.3232 19.9796 18.4932 19.9775L18.4933 19.9775C19.9358 19.9606 21.3781 19.964 22.8201 19.9775C22.9798 19.9774 23.0646 19.9549 23.1117 19.9148C23.1539 19.8787 23.1887 19.8072 23.1855 19.6389C23.1675 18.6838 23.1709 17.7266 23.1855 16.7722C23.1854 16.6372 23.1628 16.56 23.1224 16.5059C23.0812 16.4506 23.0096 16.4037 22.8755 16.3559L22.8753 16.3559C22.3536 16.1686 21.9502 15.8765 21.6763 15.491C21.4024 15.1055 21.2626 14.6331 21.2574 14.093L21.2574 14.093C21.248 13.0645 21.8468 12.2031 22.8801 11.8252C23.0233 11.7722 23.1018 11.7166 23.1471 11.652C23.192 11.5879 23.2145 11.5 23.2124 11.3587C23.1978 10.4402 23.1922 9.52197 23.2125 8.60335L23.2125 8.60297C23.2174 8.41334 23.1852 8.32033 23.135 8.27053C23.0842 8.22017 22.9891 8.1882 22.7981 8.19094C21.8568 8.20466 20.915 8.20216 19.9733 8.19966C19.6036 8.19867 19.2338 8.19769 18.8641 8.19769C18.6735 8.19769 18.5387 8.19784 18.4387 8.20906C18.3386 8.2203 18.2939 8.24095 18.2687 8.26544C18.2432 8.29009 18.2206 8.33484 18.2054 8.43632C18.1902 8.53737 18.1846 8.67469 18.1775 8.86876C18.1731 8.99753 18.1644 9.14818 18.1059 9.26881C18.0753 9.33198 18.0303 9.38908 17.9647 9.43098C17.8995 9.47262 17.8204 9.49522 17.7275 9.49981C17.6344 9.50442 17.5527 9.48934 17.4836 9.45351C17.4139 9.41742 17.3635 9.36369 17.3282 9.30185C17.26 9.18275 17.2456 9.03019 17.245 8.89587L17.245 8.89544C17.245 8.86489 17.2439 8.83119 17.2428 8.79571C17.2402 8.71714 17.2374 8.6298 17.2455 8.54841L17.2455 8.5481C17.2621 8.38737 17.2293 8.31547 17.1868 8.27799C17.1382 8.23503 17.0473 8.20894 16.8856 8.20893C11.6623 8.21567 6.43935 8.21567 1.21679 8.20893M17.6738 18.6955C17.6738 18.6955 17.6737 18.6955 17.6737 18.6955L17.6753 18.7954L17.674 18.6954C17.6739 18.6954 17.6739 18.6955 17.6738 18.6955ZM6.50017 7.3123H16.9001C17.3125 7.3123 17.7256 7.31129 18.1388 7.31029C19.2417 7.30762 20.3461 7.30494 21.4453 7.3213M6.50017 7.3123L21.4454 7.3213C21.4454 7.3213 21.4454 7.3213 21.4453 7.3213M6.50017 7.3123C7.39096 7.18222 8.28272 7.0504 9.17551 6.91682M6.50017 7.3123L21.5569 5.41224M21.4453 7.3213C21.6549 7.32407 21.7372 7.28658 21.771 7.24371C21.8063 7.19912 21.8212 7.10975 21.7829 6.9173C21.7829 6.91726 21.7829 6.91723 21.7829 6.91719L21.4453 7.3213ZM21.5569 5.41224C21.538 5.25081 21.4984 5.1822 21.4534 5.15059C21.4062 5.11745 21.3223 5.10267 21.1569 5.13005L21.1405 5.0314L21.1569 5.13004C20.264 5.2787 19.3688 5.40694 18.4738 5.53514C18.2581 5.56604 18.0424 5.59694 17.8267 5.62812L17.8264 5.62816L17.8133 5.63003C17.5897 5.66169 17.4285 5.68451 17.309 5.71394C17.1868 5.74404 17.1272 5.77697 17.0932 5.81606C17.0599 5.85424 17.0373 5.91411 17.0293 6.03284C17.0212 6.152 17.0285 6.31125 17.0393 6.53554C17.0452 6.65681 17.036 6.78492 16.9801 6.89097C16.9202 7.00448 16.8143 7.07896 16.6599 7.10219C16.5052 7.12547 16.3802 7.08436 16.2902 6.99142C16.2066 6.90508 16.1633 6.78437 16.1408 6.66413C16.1085 6.5482 16.0896 6.42896 16.0844 6.30873L16.0841 6.30083L16.0844 6.30084C16.0919 6.09114 16.0456 6.00788 15.9909 5.97071C15.9271 5.92734 15.8113 5.91507 15.6077 5.94703C13.9885 6.2019 12.3666 6.44265 10.7455 6.68328C10.222 6.76098 9.69868 6.83867 9.17551 6.91682M21.5569 5.41224C21.5569 5.41238 21.5569 5.41252 21.5569 5.41265L21.6562 5.40106L21.5569 5.41224ZM9.17551 6.91682L9.16074 6.81791L9.17551 6.91682ZM22.4202 13.0313C22.1671 13.3147 22.0279 13.6818 22.0293 14.0617L22.4202 13.0313Z" fill="#FA8B02" stroke="#FA8B02" stroke-width="0.2"/>
<path id="Vector_2" d="M13.7933 15.2137L13.7934 15.2146C13.7933 15.3302 13.7695 15.4258 13.7198 15.5013C13.6695 15.5777 13.599 15.6239 13.5239 15.6513C13.4504 15.6782 13.3703 15.688 13.2951 15.6919C13.2399 15.6948 13.1819 15.6946 13.1284 15.6944C13.1099 15.6943 13.0918 15.6943 13.0746 15.6943L13.0744 15.6944C12.1546 15.6958 11.2327 15.6953 10.3103 15.6948C9.84893 15.6946 9.3874 15.6944 8.92593 15.6944H8.91803H8.91013H8.90223H8.89433H8.88643H8.87853H8.87063H8.86273H8.85483H8.84693H8.83903H8.83113H8.82323H8.81533H8.80743H8.79953H8.79163H8.78373H8.77583H8.76792H8.76002H8.75212H8.74422H8.73632H8.72842H8.72052H8.71262H8.70472H8.69682H8.68892H8.68102H8.67312H8.66522H8.65732H8.64942H8.64152H8.63362H8.62572H8.61782H8.60992H8.60202H8.59412H8.58622H8.57832H8.57042H8.56252H8.55462H8.54672H8.53882H8.53092H8.52302H8.51512H8.50722H8.49932H8.49142H8.48351H8.47561H8.46771H8.45981H8.45191H8.44401H8.43611H8.42821H8.42031H8.41241H8.40451H8.39661H8.38871H8.38081H8.37291H8.36501H8.35711H8.34921H8.34131H8.33341H8.32551H8.31761H8.30971H8.30181H8.29391H8.28601H8.27811H8.27021H8.26231H8.25441H8.24651H8.23861H8.23071H8.22281H8.21491H8.207H8.1991H8.1912H8.1833H8.1754H8.1675H8.1596H8.1517H8.1438H8.1359H8.128H8.1201H8.1122H8.1043H8.0964H8.0885H8.0806H8.0727H8.0648H8.0569H8.049H8.0411H8.0332H8.0253H8.0174H8.0095H8.0016H7.9937H7.9858H7.9779H7.97H7.9621H7.9542H7.9463H7.9384H7.9305H7.92259H7.91469H7.90679H7.89889H7.89099H7.88309H7.87519H7.86729H7.85939H7.85149H7.84359H7.83569H7.82779H7.81989H7.81199H7.80409H7.79619H7.78829H7.78039H7.77249H7.76459H7.75669H7.74879H7.74089H7.73299H7.72509H7.71719H7.70929H7.70139H7.69349H7.68559H7.67769H7.66979H7.66189H7.65399H7.64608H7.63818H7.63028H7.62238H7.61448H7.60658H7.59868H7.59078H7.58288H7.57498H7.56708H7.55918H7.55128H7.54338H7.53548H7.52758H7.51968H7.51178H7.50388H7.49598H7.48808H7.48018H7.47228H7.46438H7.45648H7.44858H7.44068H7.43278H7.42488H7.41698H7.40908H7.40118H7.39328H7.38538H7.37748H7.36958H7.36167H7.35377H7.34587H7.33797H7.33007H7.32217H7.31427H7.30637H7.29847H7.29057H7.28267H7.27477H7.26687H7.25897H7.25107H7.24317H7.23527H7.22737H7.21947H7.21157H7.20367H7.19577H7.18787H7.17997H7.17207H7.16417H7.15627H7.14837H7.14047H7.13257H7.12467H7.11677H7.10887H7.10097H7.09307H7.08516H7.07726H7.06936H7.06146H7.05356H7.04566H7.03776H7.02986H7.02196H7.01406H7.00616H6.99826H6.99036H6.98246H6.97456H6.96666H6.95876H6.95086H6.94296H6.93506H6.92716H6.91926H6.91136H6.90346H6.89556H6.88766H6.87976H6.87186H6.86396H6.85606H6.84816H6.84026H6.83236H6.82446H6.81656H6.80866H6.80075H6.79285H6.78495H6.77705H6.76915H6.76125H6.75335H6.74545H6.73755H6.72965H6.72175H6.71385H6.70595H6.69805H6.69015H6.68225H6.67435H6.66645H6.65855H6.65065H6.64275H6.63485H6.62695H6.61905H6.61115H6.60325H6.59535H6.58745H6.57955H6.57165H6.56375H6.55585H6.54795H6.54005H6.53215H6.52425H6.51634H6.50844H6.50054H6.49264H6.48474H6.47684H6.46894H6.46104H6.45314H6.44524H6.43734H6.42944H6.42154H6.41364H6.40574H6.39784H6.38994H6.38204H6.37414H6.36624H6.35834H6.35044H6.34254H6.33464H6.32674H6.31884H6.31094H6.30304H6.29514H6.28724H6.27934H6.27144H6.26354H6.25564H6.24774H6.23983H6.23193H6.22403H6.21613H6.20823H6.20033H6.19243H6.18453H6.17663H6.16873H6.16083H6.15293H6.14503H6.13713H6.12923H6.12133H6.11343H6.10553H6.09763H6.08973H6.08183H6.07393H6.06603H6.05813H6.05023H6.04233H6.03443H6.02653H6.01863H6.01073H6.00283H5.99493H5.98703H5.97913H5.97123H5.96332H5.95542H5.94752H5.93962H5.93172H5.92382H5.91592H5.90802H5.90012H5.89222H5.88432H5.87642H5.86852H5.86062H5.85272H5.84482H5.83692H5.82902H5.82112H5.81322H5.80532H5.79742H5.78952H5.78162H5.77372H5.76582H5.75792H5.75002H5.74212H5.73422H5.72632H5.71842H5.71052H5.70262H5.69472H5.68682H5.67891H5.67101H5.66311H5.65521H5.64731H5.63941H5.63151H5.62361H5.61571H5.60781H5.59991H5.59201H5.58411H5.57621H5.56831H5.56041H5.55251H5.54461H5.53671H5.52881H5.52091H5.51301H5.50511H5.49721H5.48931H5.48141H5.47351H5.46561H5.45771H5.44981H5.44191H5.43401H5.42611H5.41821H5.41031H5.40241H5.3945H5.3866H5.3787H5.3708H5.3629H5.355H5.3471H5.3392H5.3313H5.3234H5.3155H5.3076H5.2997H5.2918H5.2839H5.276H5.2681H5.2602H5.2523H5.2444H5.2365H5.2286H5.2207H5.2128H5.2049H5.197H5.1891H5.1812H5.1733H5.1654H5.1575H5.1496H5.1417H5.1338H5.1259H5.11799H5.11009H5.10219H5.09429H5.08639H5.07849H5.07059H5.06269H5.05479H5.04689H5.03899H5.03109H5.02319H5.01529H5.00739H4.99949H4.99159H4.98369H4.97579H4.96789H4.95999H4.95209H4.94419H4.93629H4.92839H4.92049H4.91259H4.90469H4.89679H4.88889H4.88099C4.8686 15.6944 4.85584 15.6944 4.84279 15.6944C4.78487 15.6947 4.72129 15.6949 4.6599 15.6911C4.58441 15.6865 4.50419 15.6755 4.43087 15.6474C4.35594 15.6187 4.28604 15.5712 4.23711 15.4937C4.18872 15.4171 4.16692 15.3209 4.16978 15.2054L13.7933 15.2137ZM13.7933 15.2137C13.7924 15.1076 13.7688 15.0189 13.721 14.9481C13.6729 14.8769 13.6063 14.8328 13.5356 14.8058C13.4122 14.7587 13.2599 14.7591 13.1391 14.7595C13.1293 14.7595 13.1196 14.7595 13.1102 14.7595H13.0941H13.078H13.0619H13.0458H13.0296H13.0135H12.9974H12.9813H12.9652H12.9491H12.933H12.9169H12.9007H12.8846H12.8685H12.8524H12.8363H12.8202H12.8041H12.788H12.7718H12.7557H12.7396H12.7235H12.7074H12.6913H12.6752H12.6591H12.6429H12.6268H12.6107H12.5946H12.5785H12.5624H12.5463H12.5302H12.514H12.4979H12.4818H12.4657H12.4496H12.4335H12.4174H12.4013H12.3852H12.369H12.3529H12.3368H12.3207H12.3046H12.2885H12.2724H12.2563H12.2401H12.224H12.2079H12.1918H12.1757H12.1596H12.1435H12.1274H12.1112H12.0951H12.079H12.0629H12.0468H12.0307H12.0146H11.9985H11.9823H11.9662H11.9501H11.934H11.9179H11.9018H11.8857H11.8696H11.8535H11.8373H11.8212H11.8051H11.789H11.7729H11.7568H11.7407H11.7246H11.7084H11.6923H11.6762H11.6601H11.644H11.6279H11.6118H11.5957H11.5795H11.5634H11.5473H11.5312H11.5151H11.499H11.4829H11.4668H11.4506H11.4345H11.4184H11.4023H11.3862H11.3701H11.354H11.3379H11.3217H11.3056H11.2895H11.2734H11.2573H11.2412H11.2251H11.209H11.1929H11.1767H11.1606H11.1445H11.1284H11.1123H11.0962H11.0801H11.064H11.0478H11.0317H11.0156H10.9995H10.9834H10.9673H10.9512H10.9351H10.9189H10.9028H10.8867H10.8706H10.8545H10.8384H10.8223H10.8062H10.79H10.7739H10.7578H10.7417H10.7256H10.7095H10.6934H10.6773H10.6611H10.645H10.6289H10.6128H10.5967H10.5806H10.5645H10.5484H10.5323H10.5161H10.5H10.4839H10.4678H10.4517H10.4356H10.4195H10.4034H10.3872H10.3711H10.355H10.3389H10.3228H10.3067H10.2906H10.2745H10.2583H10.2422H10.2261H10.21H10.1939H10.1778H10.1617H10.1456H10.1294H10.1133H10.0972H10.0811H10.065H10.0489H10.0328H10.0167H10.0005H9.98444H9.96832H9.95221H9.9361H9.91999H9.90388H9.88776H9.87165H9.85554H9.83943H9.82332H9.8072H9.79109H9.77498H9.75887H9.74275H9.72664H9.71053H9.69442H9.67831H9.66219H9.64608H9.62997H9.61386H9.59774H9.58163H9.56552H9.54941H9.5333H9.51718H9.50107H9.48496H9.46885H9.45273H9.43662H9.42051H9.4044H9.38829H9.37217H9.35606H9.33995H9.32384H9.30772H9.29161H9.2755H9.25939H9.24328H9.22716H9.21105H9.19494H9.17883H9.16272H9.1466H9.13049H9.11438H9.09827H9.08215H9.06604H9.04993H9.03382H9.01771H9.00159H8.98548H8.96937H8.95326H8.93714H8.92103H8.90492H8.88881H8.8727H8.85658H8.84047H8.82436H8.80825H8.79214H8.77602H8.75991H8.7438H8.72769H8.71157H8.69546H8.67935H8.66324H8.64713H8.63101H8.6149H8.59879H8.58268H8.56656H8.55045H8.53434H8.51823H8.50212H8.486H8.46989H8.45378H8.43767H8.42156H8.40544H8.38933H8.37322H8.35711H8.34099H8.32488H8.30877H8.29266H8.27655H8.26043H8.24432H8.22821H8.2121H8.19598H8.17987H8.16376H8.14765H8.13154H8.11542H8.09931H8.0832H8.06709H8.05097H8.03486H8.01875H8.00264H7.98653H7.97041H7.9543H7.93819H7.92208H7.90597H7.88985H7.87374H7.85763H7.84152H7.8254H7.80929H7.79318H7.77707H7.76096H7.74484H7.72873H7.71262H7.69651H7.68039H7.66428H7.64817H7.63206H7.61595H7.59983H7.58372H7.56761H7.5515H7.53538H7.51927H7.50316H7.48705H7.47094H7.45482H7.43871H7.4226H7.40649H7.39038H7.37426H7.35815H7.34204H7.32593H7.30981H7.2937H7.27759H7.26148H7.24537H7.22925H7.21314H7.19703H7.18092H7.1648H7.14869H7.13258H7.11647H7.10036H7.08424H7.06813H7.05202H7.03591H7.01979H7.00368H6.98757H6.97146H6.95535H6.93923H6.92312H6.90701H6.8909H6.87479H6.85867H6.84256H6.82645H6.81034H6.79422H6.77811H6.762H6.74589H6.72978H6.71366H6.69755H6.68144H6.66533H6.64921H6.6331H6.61699H6.60088H6.58477H6.56865H6.55254H6.53643H6.52032H6.5042H6.48809H6.47198H6.45587H6.43976H6.42364H6.40753H6.39142H6.37531H6.3592H6.34308H6.32697H6.31086H6.29475H6.27863H6.26252H6.24641H6.2303H6.21419H6.19807H6.18196H6.16585H6.14974H6.13362H6.11751H6.1014H6.08529H6.06918H6.05306H6.03695H6.02084H6.00473H5.98862H5.9725H5.95639H5.94028H5.92417H5.90805H5.89194H5.87583H5.85972H5.84361H5.82749H5.81138H5.79527H5.77916H5.76304H5.74693H5.73082H5.71471H5.6986H5.68248H5.66637H5.65026H5.63415H5.61803H5.60192H5.58581H5.5697H5.55359H5.53747H5.52136H5.50525H5.48914H5.47303H5.45691H5.4408H5.42469H5.40858H5.39246H5.37635H5.36024H5.34413H5.32802H5.3119H5.29579H5.27968H5.26357H5.24745H5.23134H5.21523H5.19912H5.18301H5.16689H5.15078H5.13467H5.11856H5.10244H5.08633H5.07022H5.05411H5.038H5.02188H5.00577H4.98966H4.97355H4.95744H4.94132H4.92521H4.9091H4.89299H4.87687H4.86076C4.84892 14.7595 4.83666 14.7595 4.82407 14.7594M13.7933 15.2137L4.82407 14.7594M4.82407 14.7594C4.70559 14.7589 4.5569 14.7582 4.43545 14.8023M4.82407 14.7594L4.43545 14.8023M4.43545 14.8023C4.3643 14.8282 4.2967 14.8709 4.24708 14.9412M4.43545 14.8023L4.24708 14.9412M4.24708 14.9412C4.1977 15.0111 4.17239 15.0993 4.16978 15.2054L4.24708 14.9412Z" fill="#FA8B02" stroke="#FA8B02" stroke-width="0.2"/>
<path id="Vector_3" d="M4.74974 17.9326L4.74974 17.9326H4.75298H4.75331H4.75364H4.75396H4.75429H4.75462H4.75495H4.75528H4.75561H4.75594H4.75627H4.7566H4.75693H4.75726H4.75759H4.75791H4.75824H4.75857H4.7589H4.75923H4.75956H4.75989H4.76022H4.76055H4.76088H4.76121H4.76154H4.76186H4.76219H4.76252H4.76285H4.76318H4.76351H4.76384H4.76417H4.7645H4.76483H4.76516H4.76549H4.76582H4.76614H4.76647H4.7668H4.76713H4.76746H4.76779H4.76812H4.76845H4.76878H4.76911H4.76944H4.76977H4.77009H4.77042H4.77075H4.77108H4.77141H4.77174H4.77207H4.7724H4.77273H4.77306H4.77339H4.77372H4.77404H4.77437H4.7747H4.77503H4.77536H4.77569H4.77602H4.77635H4.77668H4.77701H4.77734H4.77767H4.77799H4.77832H4.77865H4.77898H4.77931H4.77964H4.77997H4.7803H4.78063H4.78096H4.78129H4.78162H4.78194H4.78227H4.7826H4.78293H4.78326H4.78359H4.78392H4.78425H4.78458H4.78491H4.78524H4.78557H4.78589H4.78622H4.78655H4.78688H4.78721H4.78754H4.78787H4.7882H4.78853H4.78886H4.78919H4.78952H4.78985H4.79017H4.7905H4.79083H4.79116H4.79149H4.79182H4.79215H4.79248H4.79281H4.79314H4.79347H4.7938H4.79412H4.79445H4.79478H4.79511H4.79544H4.79577H4.7961H4.79643H4.79676H4.79709H4.79742H4.79775H4.79807H4.7984H4.79873H4.79906H4.79939H4.79972H4.80005H4.80038H4.80071H4.80104H4.80137H4.8017H4.80202H4.80235H4.80268H4.80301H4.80334H4.80367H4.804H4.80433H4.80466H4.80499H4.80532H4.80565H4.80597H4.8063H4.80663H4.80696H4.80729H4.80762H4.80795H4.80828H4.80861H4.80894H4.80927H4.8096H4.80993H4.81025H4.81058H4.81091H4.81124H4.81157H4.8119H4.81223H4.81256H4.81289H4.81322H4.81355H4.81388H4.8142H4.81453H4.81486H4.81519H4.81552H4.81585H4.81618H4.81651H4.81684H4.81717H4.8175H4.81783H4.81815H4.81848H4.81881H4.81914H4.81947H4.8198H4.82013H4.82046H4.82079H4.82112H4.82145H4.82178H4.8221H4.82243H4.82276H4.82309H4.82342H4.82375H4.82408H4.82441H4.82474H4.82507H4.8254H4.82573H4.82605H4.82638H4.82671H4.82704H4.82737H4.8277H4.82803H4.82836H4.82869H4.82902H4.82935H4.82968H4.83H4.83033H4.83066H4.83099H4.83132H4.83165H4.83198H4.83231H4.83264H4.83297H4.8333H4.83363H4.83396H4.83428H4.83461H4.83494H4.83527H4.8356H4.83593H4.83626H4.83659H4.83692H4.83725H4.83758H4.83791H4.83823H4.83856H4.83889H4.83922H4.83955H4.83988H4.84021H4.84054H4.84087H4.8412H4.84153H4.84186H4.84218H4.84251H4.84284H4.84317H4.8435H4.84383H4.84416H4.84449H4.84482H4.84515H4.84548H4.84581H4.84613H4.84646H4.84679H4.84712H4.84745H4.84778H4.84811H4.84844H4.84877H4.8491H4.84943H4.84976H4.85008H4.85041H4.85074H4.85107H4.8514H4.85173H4.85206H4.85239H4.85272H4.85305H4.85338H4.85371H4.85403H4.85436H4.85469H4.85502H4.85535H4.85568H4.85601H4.85634H4.85667H4.857H4.85733H4.85766H4.85799H4.85831H4.85864H4.85897H4.8593H4.85963H4.85996H4.86029H4.86062H4.86095H4.86128H4.86161H4.86194H4.86226H4.86259H4.86292H4.86325H4.86358H4.86391H4.86424H4.86457H4.8649H4.86523H4.86556H4.86589H4.86621H4.86654H4.86687H4.8672H4.86753H4.86786H4.86819H4.86852H4.86885H4.86918H4.86951H4.86984H4.87016H4.87049H4.87082H4.87115H4.87148H4.87181H4.87214H4.87247H4.8728H4.87313H4.87346H4.87379H4.87411H4.87444H4.87477H4.8751H4.87543H4.87576H4.87609H4.87642H4.87675H4.87708H4.87741H4.87774H4.87806H4.87839H4.87872H4.87905H4.87938H4.87971H4.88004H4.88037H4.8807H4.88103H4.88136H4.88169H4.88202H4.88234H4.88267H4.883H4.88333H4.88366H4.88399H4.88432H4.88465H4.88498H4.88531H4.88564H4.88597H4.88629H4.88662H4.88695H4.88728H4.88761H4.88794H4.88827H4.8886H4.88893H4.88926H4.88959H4.88992H4.89024H4.89057H4.8909H4.89123H4.89156H4.89189H4.89222H4.89255H4.89288H4.89321H4.89354H4.89387H4.89419H4.89452H4.89485H4.89518H4.89551H4.89584H4.89617H4.8965H4.89683H4.89716H4.89749H4.89782H4.89814H4.89847H4.8988H4.89913H4.89946H4.89979H4.90012H4.90045H4.90078H4.90111H4.90144H4.90177H4.90209H4.90242H4.90275H4.90308H4.90341H4.90374H4.90407H4.9044H4.90473H4.90506H4.90539H4.90572H4.90605H4.90637H4.9067H4.90703H4.90736H4.90769H4.90802H4.90835H4.90868H4.90901H4.90934H4.90967H4.91H4.91032H4.91065H4.91098H4.91131H4.91164H4.91197H4.9123H4.91263H4.91296H4.91329H4.91362H4.91395H4.91427H4.9146H4.91493H4.91526H4.91559H4.91592H4.91625H4.91658H4.91691H4.91724H4.91757H4.9179H4.91822H4.91855H4.91888H4.91921H4.91954H4.91987H4.9202H4.92053H4.92086H4.92119H4.92152H4.93742H4.95332H4.96922H4.98512H5.00102H5.01693H5.03283H5.04873H5.06463H5.08053H5.09643H5.11233H5.12824H5.14414H5.16004H5.17594H5.19184H5.20774H5.22365H5.23955H5.25545H5.27135H5.28725H5.30315H5.31905H5.33496H5.35086H5.36676H5.38266H5.39856H5.41446H5.43036H5.44627H5.46217H5.47807H5.49397H5.50987H5.52577H5.54168H5.55758H5.57348H5.58938H5.60528H5.62118H5.63708H5.65299H5.66889H5.68479H5.70069H5.71659H5.73249H5.74839H5.7643H5.7802H5.7961H5.812H5.8279H5.8438H5.85971H5.87561H5.89151H5.90741H5.92331H5.93921H5.95511H5.97102H5.98692H6.00282H6.01872H6.03462H6.05052H6.06643H6.08233H6.09823H6.11413H6.13003H6.14593H6.16183H6.17774H6.19364H6.20954H6.22544H6.24134H6.25724H6.27314H6.28905H6.30495H6.32085H6.33675H6.35265H6.36855H6.38446H6.40036H6.41626H6.43216H6.44806H6.46396H6.47986H6.49577H6.51167H6.52757H6.54347H6.55937H6.57527H6.59118H6.60708H6.62298H6.63888H6.65478H6.67068H6.68658H6.70249H6.71839H6.73429H6.75019H6.76609H6.78199H6.79789H6.8138H6.8297H6.8456H6.8615H6.8774H6.8933H6.90921H6.92511H6.94101H6.95691H6.97281H6.98871H7.00461H7.02052H7.03642H7.05232H7.06822H7.08412H7.10002H7.11592H7.13183H7.14773H7.16363H7.17953H7.19543H7.21133H7.22724H7.24314H7.25904H7.27494H7.29084H7.30674H7.32264H7.33855H7.35445H7.37035H7.38625H7.40215H7.41805H7.43395H7.44986H7.46576H7.48166H7.49756H7.51346H7.52936H7.54527H7.56117H7.57707H7.59297H7.60887H7.62477H7.64067H7.65658H7.67248H7.68838H7.70428H7.72018H7.73608H7.75199H7.76789H7.78379H7.79969H7.81559H7.83149H7.84739H7.8633H7.8792H7.8951H7.911H7.9269H7.9428H7.9587H7.97461H7.99051H8.00641H8.02231H8.03821H8.05411H8.07002H8.08592H8.10182H8.11772H8.13362H8.14952H8.16542H8.18133H8.19723H8.21313H8.22903H8.24493H8.26083H8.27674H8.29264H8.30854H8.32444H8.34034H8.35624H8.37214H8.38805H8.40395H8.41985H8.43575H8.45165H8.46755H8.48345H8.49936H8.51526H8.53116H8.54706H8.56296H8.57886H8.59477H8.61067H8.62657H8.64247H8.65837H8.67427H8.69017H8.70608H8.72198H8.73788H8.75378H8.76968H8.78558H8.80149H8.81739H8.83329H8.84919H8.86509H8.88099H8.89689H8.9128H8.9287H8.9446H8.9605H8.9764H8.9923H9.0082H9.02411H9.04001H9.05591H9.07181H9.08771H9.10361H9.11951H9.13542H9.15132H9.16722H9.18312H9.19902H9.21492H9.23083H9.24673H9.26263H9.27853H9.29443H9.31033H9.32623H9.34214H9.35804H9.37394H9.38984H9.40574H9.42164H9.43755H9.45345H9.46935H9.48525H9.50115H9.51705H9.53295H9.54886H9.56476H9.58066H9.59656H9.61246H9.62836H9.64426H9.66017H9.67607H9.69197H9.70787H9.72377H9.73967H9.75558H9.77148H9.78738H9.80328H9.81918H9.83508H9.85098H9.86689H9.88279H9.89869H9.91459H9.93049H9.94639H9.9623H9.9782H9.9941H10.01H10.0259H10.0418H10.0577H10.0736H10.0895H10.1054H10.1213H10.1372H10.1531H10.169H10.1849H10.2008H10.2167H10.2326H10.2485H10.2644H10.2803H10.2962H10.3121H10.328H10.3439H10.3598H10.3757H10.3916H10.4075H10.4234H10.4393H10.4552H10.4711H10.487H10.5029H10.5188H10.5347H10.5507H10.5666H10.5825H10.5984H10.6143H10.6302H10.6461H10.662H10.6779H10.6938H10.7097H10.7256H10.7415H10.7574H10.7733H10.7892H10.8051H10.821H10.8369H10.8528H10.8687H10.8846H10.9005H10.9164H10.9323H10.9482H10.9641H10.98H10.9959H11.0118H11.0277H11.0436H11.0595H11.0754H11.0913H11.1072H11.1231H11.139H11.1549H11.1708H11.1867H11.2026H11.2185H11.2344H11.2503H11.2662H11.2821H11.298H11.3139H11.3298H11.3457H11.3616H11.3775H11.3934H11.4093H11.4252H11.4411H11.457H11.4729H11.4888H11.5047H11.5206H11.5365H11.5524H11.5683H11.5842H11.6002H11.6161H11.632H11.6479H11.6638H11.6797H11.6956H11.7115H11.7274H11.7433H11.7592H11.7751H11.791H11.8069H11.8228H11.8387H11.8546H11.8705H11.8864H11.9023H11.9182H11.9341H11.95H11.9659H11.9818H11.9977H12.0136H12.0295H12.0454H12.0613H12.0772H12.0931H12.109H12.1249H12.1408H12.1567H12.1726H12.1885H12.2044H12.2203H12.2362H12.2521H12.268H12.2839H12.2998H12.3157H12.3316H12.3475H12.3634H12.3793H12.3952H12.4111H12.427H12.4429H12.4588H12.4747H12.4906H12.5065H12.5224H12.5383H12.5542H12.5701H12.586H12.6019H12.6178H12.6337H12.6497H12.6656H12.6815H12.6974H12.7133H12.7292H12.7451H12.761H12.7769H12.7928H12.8087H12.8246H12.8405H12.8564H12.8723H12.8882H12.9041H12.92H12.9359H12.9518H12.9677H12.9836H12.9995H13.0154H13.0313H13.0472H13.0631C13.0855 17.9326 13.1104 17.933 13.1364 17.9334C13.1835 17.9341 13.2342 17.9349 13.2812 17.9336C13.3566 17.9315 13.4377 17.9243 13.5128 17.9004C13.5894 17.876 13.663 17.8332 13.7172 17.7587C13.771 17.6849 13.7984 17.5896 13.8013 17.4733C13.8041 17.3573 13.7818 17.261 13.7319 17.185C13.6815 17.1081 13.6098 17.0626 13.5341 17.036C13.4601 17.01 13.3792 17.001 13.3037 16.9977C13.2498 16.9954 13.1932 16.9959 13.1411 16.9963C13.121 16.9965 13.1016 16.9967 13.0833 16.9967H13.0754H13.0675H13.0596H13.0517H13.0438H13.0359H13.028H13.0201H13.0122H13.0043H12.9964H12.9885H12.9806H12.9727H12.9648H12.9569H12.949H12.9411H12.9332H12.9253H12.9174H12.9095H12.9016H12.8937H12.8858H12.8779H12.87H12.8621H12.8542H12.8463H12.8384H12.8305H12.8226H12.8147H12.8068H12.7989H12.791H12.7831H12.7752H12.7673H12.7594H12.7515H12.7436H12.7357H12.7278H12.7199H12.712H12.7041H12.6962H12.6883H12.6804H12.6725H12.6646H12.6567H12.6488H12.6409H12.633H12.6251H12.6172H12.6093H12.6014H12.5935H12.5856H12.5777H12.5698H12.5619H12.554H12.5461H12.5382H12.5303H12.5224H12.5145H12.5066H12.4987H12.4908H12.4829H12.475H12.4671H12.4592H12.4513H12.4434H12.4355H12.4276H12.4197H12.4118H12.4039H12.396H12.3881H12.3802H12.3723H12.3644H12.3565H12.3486H12.3407H12.3328H12.3249H12.317H12.3091H12.3012H12.2933H12.2854H12.2775H12.2696H12.2617H12.2538H12.2459H12.238H12.2301H12.2222H12.2143H12.2064H12.1985H12.1906H12.1827H12.1748H12.1669H12.159H12.1511H12.1432H12.1353H12.1274H12.1195H12.1116H12.1037H12.0958H12.0879H12.08H12.0721H12.0642H12.0563H12.0484H12.0405H12.0326H12.0247H12.0168H12.0089H12.001H11.9931H11.9852H11.9773H11.9694H11.9615H11.9536H11.9457H11.9378H11.9299H11.922H11.9141H11.9062H11.8983H11.8904H11.8825H11.8746H11.8667H11.8588H11.8509H11.843H11.8351H11.8272H11.8193H11.8114H11.8035H11.7956H11.7877H11.7798H11.7719H11.764H11.7561H11.7482H11.7403H11.7324H11.7245H11.7166H11.7087H11.7008H11.6929H11.685H11.6771H11.6692H11.6613H11.6534H11.6455H11.6376H11.6297H11.6218H11.6139H11.606H11.5981H11.5902H11.5823H11.5744H11.5665H11.5586H11.5507H11.5428H11.5349H11.527H11.5191H11.5112H11.5033H11.4954H11.4875H11.4796H11.4717H11.4638H11.4559H11.448H11.4401H11.4322H11.4243H11.4164H11.4085H11.4006H11.3927H11.3848H11.3769H11.369H11.3611H11.3532H11.3453H11.3374H11.3295H11.3216H11.3137H11.3058H11.2979H11.29H11.2821H11.2741H11.2662H11.2583H11.2504H11.2425H11.2346H11.2267H11.2188H11.2109H11.203H11.1951H11.1872H11.1793H11.1714H11.1635H11.1556H11.1477H11.1398H11.1319H11.124H11.1161H11.1082H11.1003H11.0924H11.0845H11.0766H11.0687H11.0608H11.0529H11.045H11.0371H11.0292H11.0213H11.0134H11.0055H10.9976H10.9897H10.9818H10.9739H10.966H10.9581H10.9502H10.9423H10.9344H10.9265H10.9186H10.9107H10.9028H10.8949H10.887H10.8791H10.8712H10.8633H10.8554H10.8475H10.8396H10.8317H10.8238H10.8159H10.808H10.8001H10.7922H10.7843H10.7764H10.7685H10.7606H10.7527H10.7448H10.7369H10.729H10.7211H10.7132H10.7053H10.6974H10.6895H10.6816H10.6737H10.6658H10.6579H10.65H10.6421H10.6342H10.6263H10.6184H10.6105H10.6026H10.5947H10.5868H10.5789H10.571H10.5631H10.5552H10.5473H10.5394H10.5315H10.5236H10.5157H10.5078H10.4999H10.492H10.4841H10.4762H10.4683H10.4604H10.4525H10.4446H10.4367H10.4288H10.4209H10.413H10.4051H10.3972H10.3893H10.3814H10.3735H10.3656H10.3577H10.3498H10.3419H10.334H10.3261H10.3182H10.3103H10.3024H10.2945H10.2866H10.2787H10.2708H10.2629H10.255H10.2471H10.2392H10.2313H10.2234H10.2155H10.2076H10.1997H10.1918H10.1839H10.176H10.1681H10.1602H10.1523H10.1444H10.1365H10.1286H10.1207H10.1128H10.1049H10.097H10.0891H10.0812H10.0733H10.0654H10.0575H10.0496H10.0417H10.0338H10.0259H10.018H10.0101H10.0022H9.9943H9.9864H9.9785H9.9706H9.9627H9.9548H9.9469H9.939H9.9311H9.9232H9.9153H9.9074H9.8995H9.8916H9.8837H9.8758H9.8679H9.86H9.8521H9.8442H9.8363H9.8284H9.8205H9.8126H9.8047H9.7968H9.7889H9.781H9.7731H9.7652H9.7573H9.7494H9.7415H9.7336H9.7257H9.71779H9.70989H9.70199H9.69409H9.68619H9.67829H9.67039H9.66249H9.65459H9.64669H9.63879H9.63089H9.62299H9.61509H9.60719H9.59929H9.59139H9.58349H9.57559H9.56769H9.55979H9.55189H9.54399H9.53609H9.52819H9.52029H9.51239H9.50449H9.49659H9.48869H9.48079H9.47289H9.46499H9.45709H9.44919H9.44129H9.43338H9.42548H9.41758H9.40968H9.40178H9.39388H9.38598H9.37808H9.37018H9.36228H9.35438H9.34648H9.33858H9.33068H9.32278H9.31488H9.30698H9.29908H9.29118H9.28328H9.27538H9.26748H9.25958H9.25168H9.24378H9.23588H9.22798H9.22008H9.21218H9.20428H9.19638H9.18848H9.18058H9.17268H9.16477H9.15687H9.14897H9.14107H9.13317H9.12527H9.11737H9.10947H9.10157H9.09367H9.08577H9.07787H9.06997H9.06207H9.05417H9.04627H9.03837H4.7732C4.63806 16.9967 4.48614 17.0094 4.36764 17.0782C4.30591 17.114 4.25313 17.1651 4.21755 17.2354C4.18237 17.3049 4.16697 17.3873 4.16988 17.4818L4.16988 17.4818C4.17539 17.6587 4.25268 17.7779 4.37389 17.8477C4.4857 17.912 4.62534 17.9286 4.74974 17.9326Z" fill="#FA8B02" stroke="#FA8B02" stroke-width="0.2"/>
<path id="Vector_4" d="M4.17508 12.9554L4.17508 12.9554C4.17032 13.0731 4.19117 13.1709 4.24027 13.2481C4.29003 13.3264 4.36177 13.3726 4.43759 13.3994C4.51167 13.4256 4.59256 13.4344 4.66764 13.4375C4.71984 13.4396 4.77481 13.4391 4.82512 13.4385C4.84611 13.4383 4.86628 13.4381 4.88511 13.4381H4.89296H4.90082H4.90867H4.91653H4.92438H4.93224H4.94009H4.94795H4.9558H4.96366H4.97152H4.97937H4.98723H4.99508H5.00294H5.0108H5.01866H5.02651H5.03437H5.04223H5.05009H5.05794H5.0658H5.07366H5.08152H5.08938H5.09724H5.10509H5.11295H5.12081H5.12867H5.13653H5.14439H5.15225H5.16011H5.16797H5.17583H5.18369H5.19156H5.19942H5.20728H5.21514H5.223H5.23086H5.23872H5.24659H5.25445H5.26231H5.27017H5.27804H5.2859H5.29376H5.30162H5.30949H5.31735H5.32522H5.33308H5.34094H5.34881H5.35667H5.36454H5.3724H5.38027H5.38813H5.396H5.40386H5.41173H5.41959H5.42746H5.43532H5.44319H5.45106H5.45892H5.46679H5.47465H5.48252H5.49039H5.49826H5.50612H5.51399H5.52186H5.52973H5.53759H5.54546H5.55333H5.5612H5.56907H5.57693H5.5848H5.59267H5.60054H5.60841H5.61628H5.62415H5.63202H5.63989H5.64776H5.65563H5.6635H5.67137H5.67924H5.68711H5.69498H5.70285H5.71072H5.71859H5.72647H5.73434H5.74221H5.75008H5.75795H5.76582H5.7737H5.78157H5.78944H5.79731H5.80519H5.81306H5.82093H5.82881H5.83668H5.84455H5.85243H5.8603H5.86817H5.87605H5.88392H5.8918H5.89967H5.90755H5.91542H5.9233H5.93117H5.93905H5.94692H5.9548H5.96267H5.97055H5.97842H5.9863H5.99417H6.00205H6.00993H6.0178H6.02568H6.03356H6.04143H6.04931H6.05719H6.06506H6.07294H6.08082H6.0887H6.09657H6.10445H6.11233H6.12021H6.12809H6.13597H6.14384H6.15172H6.1596H6.16748H6.17536H6.18324H6.19112H6.199H6.20688H6.21476H6.22263H6.23051H6.23839H6.24627H6.25415H6.26203H6.26992H6.2778H6.28568H6.29356H6.30144H6.30932H6.3172H6.32508H6.33296H6.34084H6.34873H6.35661H6.36449H6.37237H6.38025H6.38813H6.39602H6.4039H6.41178H6.41966H6.42755H6.43543H6.44331H6.4512H6.45908H6.46696H6.47485H6.48273H6.49061H6.4985H6.50638H6.51426H6.52215H6.53003H6.53792H6.5458H6.55368H6.56157H6.56945H6.57734H6.58522H6.59311H6.60099H6.60888H6.61676H6.62465H6.63253H6.64042H6.64831H6.65619H6.66408H6.67196H6.67985H6.68774H6.69562H6.70351H6.71139H6.71928H6.72717H6.73505H6.74294H6.75083H6.75872H6.7666H6.77449H6.78238H6.79026H6.79815H6.80604H6.81393H6.82182H6.8297H6.83759H6.84548H6.85337H6.86126H6.86914H6.87703H6.88492H6.89281H6.9007H6.90859H6.91648H6.92436H6.93225H6.94014H6.94803H6.95592H6.96381H6.9717H6.97959H6.98748H6.99537H7.00326H7.01115H7.01904H7.02693H7.03482H7.04271H7.0506H7.05849H7.06638H7.07427H7.08216H7.09005H7.09794H7.10583H7.11373H7.12162H7.12951H7.1374H7.14529H7.15318H7.16107H7.16897H7.17686H7.18475H7.19264H7.20053H7.20842H7.21632H7.22421H7.2321H7.23999H7.24789H7.25578H7.26367H7.27156H7.27946H7.28735H7.29524H7.30313H7.31103H7.31892H7.32681H7.33471H7.3426H7.35049H7.35839H7.36628H7.37417H7.38207H7.38996H7.39785H7.40575H7.41364H7.42154H7.42943H7.43732H7.44522H7.45311H7.46101H7.4689H7.47679H7.48469H7.49258H7.50048H7.50837H7.51627H7.52416H7.53206H7.53995H7.54785H7.55574H7.56364H7.57153H7.57943H7.58732H7.59522H7.60311H7.61101H7.6189H7.6268H7.63469H7.64259H7.65049H7.65838H7.66628H7.67417H7.68207H7.68997H7.69786H7.70576H7.71365H7.72155H7.72945H7.73734H7.74524H7.75313H7.76103H7.76893H7.77682H7.78472H7.79262H7.80051H7.80841H7.81631H7.8242H7.8321H7.84H7.8479H7.85579H7.86369H7.87159H7.87948H7.88738H7.89528H7.90318H7.91107H7.91897H7.92687H7.93477H7.94266H7.95056H7.95846H7.96636H7.97425H7.98215H7.99005H7.99795H8.00585H8.01374H8.02164H8.02954H8.03744H8.04534H8.05323H8.06113H8.06903H8.07693H8.08483H8.09272H8.10062H8.10852H8.11642H8.12432H8.13222H8.14012H8.14801H8.15591H8.16381H8.17171H8.17961H8.18751H8.19541H8.20331H8.2112H8.2191H8.227H8.2349H8.2428H8.2507H8.2586H8.2665H8.2744H8.28229H8.29019H8.29809H8.30599H8.31389H8.32179H8.32969H8.33759H8.34549H8.35339H8.36129H8.36919H8.37709H8.38499H8.39289H8.40078H8.40868H8.41658H8.42448H8.43238H8.44028H8.44818H8.45608H8.46398H8.47188H8.47978H8.48768H8.49558H8.50348H8.51138H8.51928H8.52718H8.53508H8.54298H8.55088H8.55878H8.56668H8.57458H8.58248H8.59038H8.59828H8.60618H8.61408H8.62198H8.62988H8.63778H8.64568H8.65358H8.66148H8.66938H8.67728H8.68518H8.69308H8.70098H8.70888H8.71678H8.72468H8.73258H8.74048H8.74838H8.75628H8.76418H8.77208H8.77998H8.78788H8.79578H8.80368H8.81158H8.81948H8.82738H8.83528H8.84318H8.85108H8.85898H8.86688H8.87478H8.88269H8.89059H8.89849H8.90639H8.91429H8.92219C10.3243 13.4381 11.7254 13.4404 13.1276 13.4437L13.1282 13.4437C13.1328 13.4437 13.1375 13.4437 13.1422 13.4437C13.2655 13.4432 13.425 13.4426 13.5526 13.3902C13.6226 13.3614 13.6878 13.3155 13.7337 13.243C13.7793 13.171 13.8 13.0817 13.7974 12.9761C13.7948 12.8708 13.7704 12.7829 13.7227 12.7127C13.6748 12.642 13.609 12.5977 13.5387 12.5704C13.4142 12.5218 13.2608 12.5221 13.1386 12.5224C13.1303 12.5224 13.1222 12.5224 13.1143 12.5224H4.87163C4.85759 12.5224 4.84291 12.5223 4.82772 12.5222C4.71274 12.5214 4.56824 12.5204 4.44918 12.561C4.37786 12.5853 4.30916 12.6262 4.25785 12.6947C4.2066 12.7631 4.17934 12.8502 4.17508 12.9554Z" fill="#FA8B02" stroke="#FA8B02" stroke-width="0.2"/>
<path id="Vector_5" d="M4.27402 10.7077L4.17427 10.7005C4.16717 10.7997 4.18085 10.8853 4.21772 10.9566C4.25515 11.0289 4.3121 11.0779 4.37638 11.1101C4.49782 11.171 4.65343 11.1751 4.77739 11.1751H4.78526H4.79314H4.80101H4.80888H4.81676H4.82463H4.83251H4.84038H4.84825H4.85613H4.864H4.87188H4.87975H4.88762H4.8955H4.90337H4.91125H4.91912H4.92699H4.93487H4.94274H4.95062H4.95849H4.96636H4.97424H4.98211H4.98998H4.99786H5.00573H5.01361H5.02148H5.02935H5.03723H5.0451H5.05298H5.06085H5.06872H5.0766H5.08447H5.09235H5.10022H5.10809H5.11597H5.12384H5.13172H5.13959H5.14746H5.15534H5.16321H5.17109H5.17896H5.18683H5.19471H5.20258H5.21046H5.21833H5.2262H5.23408H5.24195H5.24983H5.2577H5.26557H5.27345H5.28132H5.28919H5.29707H5.30494H5.31282H5.32069H5.32856H5.33644H5.34431H5.35219H5.36006H5.36793H5.37581H5.38368H5.39156H5.39943H5.4073H5.41518H5.42305H5.43093H5.4388H5.44667H5.45455H5.46242H5.4703H5.47817H5.48604H5.49392H5.50179H5.50967H5.51754H5.52541H5.53329H5.54116H5.54904H5.55691H5.56478H5.57266H5.58053H5.5884H5.59628H5.60415H5.61203H5.6199H5.62777H5.63565H5.64352H5.6514H5.65927H5.66714H5.67502H5.68289H5.69077H5.69864H5.70651H5.71439H5.72226H5.73014H5.73801H5.74588H5.75376H5.76163H5.76951H5.77738H5.78525H5.79313H5.801H5.80888H5.81675H5.82462H5.8325H5.84037H5.84825H5.85612H5.86399H5.87187H5.87974H5.88761H5.89549H5.90336H5.91124H5.91911H5.92698H5.93486H5.94273H5.95061H5.95848H5.96635H5.97423H5.9821H5.98998H5.99785H6.00572H6.0136H6.02147H6.02935H6.03722H6.04509H6.05297H6.06084H6.06872H6.07659H6.08446H6.09234H6.10021H6.10809H6.11596H6.12383H6.13171H6.13958H6.14745H6.15533H6.1632H6.17108H6.17895H6.18682H6.1947H6.20257H6.21045H6.21832H6.22619H6.23407H6.24194H6.24982H6.25769H6.26556H6.27344H6.28131H6.28919H6.29706H6.30493H6.31281H6.32068H6.32856H6.33643H6.3443H6.35218H6.36005H6.36793H6.3758H6.38367H6.39155H6.39942H6.4073H6.41517H6.42304H6.43092H6.43879H6.44666H6.45454H6.46241H6.47029H6.47816H6.48603H6.49391H6.50178H6.50966H6.51753H6.5254H6.53328H6.54115H6.54903H6.5569H6.56477H6.57265H6.58052H6.5884H6.59627H6.60414H6.61202H6.61989H6.62777H6.63564H6.64351H6.65139H6.65926H6.66714H6.67501H6.68288H6.69076H6.69863H6.70651H6.71438H6.72225H6.73013H6.738H6.74587H6.75375H6.76162H6.7695H6.77737H6.78524H6.79312H6.80099H6.80887H6.81674H6.82461H6.83249H6.84036H6.84824H6.85611H6.86398H6.87186H6.87973H6.88761H6.89548H6.90335H6.91123H6.9191H6.92698H6.93485H6.94272H6.9506H6.95847H6.96635H6.97422H6.98209H6.98997H6.99784H7.00572H7.01359H7.02146H7.02934H7.03721H7.04508H7.05296H7.06083H7.06871H7.07658H7.08445H7.09233H7.1002H7.10808H7.11595H7.12382H7.1317H7.13957H7.14745H7.15532H7.16319H7.17107H7.17894H7.18682H7.19469H7.20256H7.21044H7.21831H7.22619H7.23406H7.24193H7.24981H7.25768H7.26556H7.27343H7.2813H7.28918H7.29705H7.30492H7.3128H7.32067H7.32855H7.33642H7.34429H7.35217H7.36004H7.36792H7.37579H7.38366H7.39154H7.39941H7.40729H7.41516H7.42303H7.43091H7.43878H7.44666H7.45453H7.4624H7.47028H7.47815H7.48603H7.4939H7.50177H7.50965H7.51752H7.5254H7.53327H7.54114H7.54902H7.55689H7.56477H7.57264H7.58051H7.58839H7.59626H7.60413H7.61201H7.61988H7.62776H7.63563H7.6435H7.65138H7.65925H7.66713H7.675H7.68287H7.69075H7.69862H7.7065H7.71437H7.72224H7.73012H7.73799H7.74587H7.75374H7.76161H7.76949H7.77736H7.78524H7.79311H7.80098H7.80886H7.81673H7.82461H7.83248H7.84035H7.84823H7.8561H7.86398H7.87185H7.87972H7.8876H7.89547H7.90334H7.91122H7.91909H7.92697H7.93484H7.94271H7.95059H7.95846H7.96634H7.97421H7.98208H7.98996H7.99783H8.00571H8.01358H8.02145H8.02933H8.0372H8.04508H8.05295H8.06082H8.0687H8.07657H8.08445H8.09232H8.10019H8.10807H8.11594H8.12382H8.13169H8.13956H8.14744H8.15531H8.16318H8.17106H8.17893H8.18681H8.19468H8.20255H8.21043H8.2183H8.22618H8.23405H8.24192H8.2498H8.25767H8.26555H8.27342H8.28129H8.28917H8.29704H8.30492H8.31279H8.32066H8.32854H8.33641H8.34429H8.35216H8.36003H8.36791H8.37578H8.38366H8.39153H8.3994H8.40728H8.41515H8.42303H8.4309H8.43877H8.44665H8.45452H8.46239H8.47027H8.47814H8.48602H8.49389H8.50176H8.50964H8.51751H8.52539H8.53326H8.54113H8.54901H8.55688H8.56476H8.57263H8.5805H8.58838H8.59625H8.60413H8.612H8.61987H8.62775H8.63562H8.6435H8.65137H8.65924H8.66712H8.67499H8.68287H8.69074H8.69861H8.70649H8.71436H8.72224H8.73011H8.73798H8.74586H8.75373H8.7616H8.76948H8.77735H8.78523H8.7931H8.80097H8.80885C8.93521 11.1751 9.08829 11.1694 9.20957 11.1086C9.2733 11.0766 9.32997 11.0288 9.36911 10.9591C9.40782 10.8902 9.42538 10.807 9.42344 10.7102C9.42148 10.6132 9.40026 10.5308 9.35822 10.4636C9.31577 10.3958 9.25675 10.3509 9.19198 10.3218C9.06912 10.2666 8.91602 10.265 8.79312 10.265L6.83244 10.265L6.83217 10.265L4.81766 10.2706C4.69019 10.2679 4.53936 10.271 4.41607 10.3261C4.35159 10.3549 4.2927 10.3987 4.2488 10.4636C4.20512 10.5282 4.1805 10.6075 4.17424 10.701L4.27402 10.7077ZM4.27402 10.7077C4.29537 10.3886 4.55941 10.365 4.81671 10.3706L6.83244 10.365H8.79312C9.04705 10.365 9.31671 10.3773 9.32346 10.7122C9.3302 11.047 9.06503 11.0751 8.80885 11.0751H4.77739C4.52346 11.0751 4.2493 11.0526 4.27402 10.7077Z" fill="#FA8B02" stroke="#FA8B02" stroke-width="0.2"/>
<path id="Vector_6" d="M18.1649 13.107H18.1649C18.1612 13.2435 18.1308 13.3805 18.0496 13.4839C17.9644 13.5926 17.8347 13.6496 17.6669 13.6436L17.6662 13.6436C17.5087 13.6367 17.3936 13.5705 17.3221 13.4627C17.2546 13.3608 17.2335 13.2329 17.2334 13.1114C17.2334 13.1113 17.2334 13.1112 17.2334 13.1111L18.1649 13.107ZM18.1649 13.107L18.1649 13.1059M18.1649 13.107L18.1649 13.1059M18.1649 13.1059C18.1687 12.869 18.1674 12.6301 18.1662 12.3925C18.1655 12.2743 18.1649 12.1564 18.1649 12.0392C18.1649 11.804 18.1659 11.569 18.1669 11.3324C18.1674 11.212 18.1679 11.0912 18.1683 10.9698L18.1683 10.9698L18.1682 10.9666C18.1646 10.8416 18.1387 10.7152 18.0689 10.6155C17.9957 10.511 17.8821 10.4472 17.7303 10.4382L17.7303 10.4382M18.1649 13.1059L17.7303 10.4382M17.7303 10.4382L17.7283 10.4381M17.7303 10.4382L17.7283 10.4381M17.7283 10.4381C17.558 10.4315 17.4266 10.488 17.3416 10.5978C17.2608 10.7021 17.2334 10.8401 17.2334 10.9763H17.3334L17.7283 10.4381Z" fill="#FA8B02" stroke="#FA8B02" stroke-width="0.2"/>
<path id="Vector_7" d="M17.3342 15.1123L17.2342 15.1114C17.2274 15.8214 17.2274 16.5318 17.2342 17.2425H17.2342L17.2342 17.2441C17.2372 17.3636 17.259 17.4913 17.3268 17.5926C17.3989 17.7003 17.5147 17.7655 17.6743 17.7696L17.6743 17.7697L18.0656 17.2202L18.1656 17.2218C18.1656 17.2215 18.1656 17.2213 18.1656 17.221C18.1694 16.9835 18.1681 16.7451 18.1669 16.5082C18.1662 16.3904 18.1656 16.2731 18.1656 16.1564C18.1656 16.1563 18.1656 16.1562 18.1656 16.1562L18.1701 15.1499H18.1701V15.1494C18.1701 15.0197 18.1534 14.8801 18.0874 14.7682C18.0167 14.6482 17.897 14.5726 17.7239 14.5631C17.551 14.5535 17.4207 14.6165 17.3383 14.7304C17.2605 14.8378 17.2342 14.9783 17.2342 15.1123H17.3342ZM17.3342 15.1123C17.3274 15.8217 17.3274 16.5315 17.3342 17.2416L18.0701 15.1494C18.0701 14.9011 18.0038 14.6786 17.7184 14.6629C17.433 14.6472 17.3342 14.8652 17.3342 15.1123Z" fill="#FA8B02" stroke="#FA8B02" stroke-width="0.2"/>
</g>
</g>
<defs>
<clipPath id="clip0_201_1985">
<rect width="24" height="24" fill="white" transform="translate(0 0.5)"/>
</clipPath>
</defs>
</svg>
