<svg width="25" height="24" viewBox="0 0 25 24" fill="none" xmlns="http://www.w3.org/2000/svg">
<g id="icon_type">
<g id="Layer 2">
<g id="Layer 1">
<path id="Vector" d="M21.4982 12.7187C21.4982 15.0354 21.4982 17.3522 21.4982 19.6689C21.4982 20.6115 21.0021 20.9814 20.1061 20.7002C18.6882 20.2567 17.272 19.8063 15.8577 19.3492C15.6242 19.269 15.3711 19.2668 15.1363 19.3429C13.3787 19.8802 11.6149 20.4041 9.85964 20.9414C9.62625 21.0195 9.37388 21.0195 9.14049 20.9414C7.52848 20.419 5.91255 19.91 4.29662 19.3979C3.69642 19.2038 3.5 18.9446 3.5 18.3084C3.5 13.6357 3.5 8.96246 3.5 4.28872C3.5 3.40267 4.00708 3.0217 4.85378 3.28563C6.28529 3.73127 7.71394 4.18555 9.13971 4.64848C9.3734 4.72876 9.62662 4.73151 9.86199 4.65633C11.6196 4.11905 13.3834 3.59512 15.1386 3.05862C15.372 2.98046 15.6244 2.98046 15.8577 3.05862C17.4698 3.58019 19.0865 4.08841 20.7016 4.60213C21.3065 4.79458 21.499 5.05537 21.4998 5.68927C21.4988 8.03269 21.4982 10.3758 21.4982 12.7187ZM15.1957 12.9434V7.99472C15.1957 7.19822 15.1957 7.19822 14.4132 7.3294C14.4007 7.3294 14.3882 7.33568 14.3756 7.33804C14.1949 7.37182 14.0626 7.30505 14.0063 7.13067C13.993 7.09359 13.9879 7.05409 13.9912 7.01484C13.9946 6.9756 14.0063 6.93754 14.0256 6.90325C14.0449 6.86896 14.0713 6.83925 14.1031 6.81614C14.1349 6.79303 14.1713 6.77707 14.2097 6.76933C14.4343 6.70155 14.6645 6.65423 14.8976 6.62794C15.1284 6.60516 15.2004 6.50776 15.1973 6.2784C15.1848 5.53217 15.1801 4.78594 15.1973 4.0405C15.2051 3.73415 15.1143 3.69723 14.8405 3.78128C13.2965 4.25651 11.7495 4.72388 10.1985 5.17555C9.89407 5.26353 9.79782 5.39706 9.7986 5.71833C9.8119 9.35678 9.80721 12.9944 9.80721 16.6368C9.80721 16.7028 9.80721 16.768 9.80721 16.8332C9.80095 16.9982 9.83303 17.1152 10.042 17.0916C10.2165 17.072 10.355 17.1427 10.38 17.3359C10.4035 17.5457 10.2767 17.6588 10.0842 17.6753C9.84242 17.6965 9.79782 17.8284 9.80173 18.0444C9.81269 18.6854 9.81895 19.3272 9.80173 19.9681C9.79234 20.2768 9.88859 20.3098 10.1601 20.2266C11.7163 19.7474 13.2762 19.2785 14.8397 18.8197C15.1151 18.7412 15.2051 18.6155 15.2035 18.3296C15.191 16.5292 15.1973 14.7367 15.1973 12.9434H15.1957ZM15.7951 3.68388C15.7951 4.61627 15.7998 5.49054 15.7951 6.36637C15.7951 6.56432 15.8984 6.60909 16.0549 6.62952C16.3144 6.66115 16.5671 6.7349 16.803 6.84788C16.9596 6.92644 17.0378 7.06154 16.9674 7.23671C16.8969 7.41188 16.7569 7.45744 16.5816 7.40324C16.4446 7.36082 16.3069 7.32469 16.1731 7.27206C15.8953 7.16209 15.7858 7.21393 15.7858 7.54777C15.7967 11.1611 15.7967 14.772 15.7858 18.3806C15.7858 18.6163 15.8546 18.7223 16.0855 18.793C17.494 19.2266 18.8924 19.6799 20.2963 20.1213C20.772 20.2713 20.8918 20.1834 20.8918 19.6869C20.8918 15.0299 20.8941 10.3727 20.8988 5.71519C20.8988 5.39392 20.7752 5.24939 20.4802 5.16062C19.5583 4.88177 18.6428 4.57857 17.7241 4.28793C17.0973 4.08841 16.4666 3.89282 15.7951 3.68388ZM4.10333 11.2828V12.0322C4.10333 14.1002 4.10333 16.1687 4.10333 18.2377C4.10333 18.4788 4.09316 18.7027 4.39835 18.7977C5.91594 19.269 7.43144 19.7503 8.94486 20.2415C9.16005 20.3106 9.21327 20.2478 9.21014 20.0326C9.19918 19.3782 9.20544 18.7231 9.21014 18.0688C9.21014 17.8983 9.21014 17.7546 9.02702 17.6399C8.84391 17.5252 8.84469 17.3014 9.03407 17.1867C9.22344 17.072 9.20935 16.9212 9.20935 16.7531C9.20935 13.0486 9.21118 9.34421 9.21483 5.63978C9.21483 5.38763 9.13658 5.27374 8.89712 5.19911C7.51048 4.76944 6.134 4.32485 4.75205 3.89047C4.20428 3.71765 4.10255 3.79463 4.10177 4.37119C4.10229 6.67534 4.10281 8.97922 4.10333 11.2828Z" fill="#333333"/>
<path id="Vector_2" d="M13.6852 7.55479C13.679 7.72839 13.2157 8.34029 13.0819 8.36229C12.8589 8.39999 12.7321 8.29395 12.7266 8.06772C12.7211 7.86114 13.1312 7.33249 13.3245 7.29479C13.5491 7.25159 13.6664 7.36077 13.6852 7.55479Z" fill="#333333"/>
<path id="Vector_3" d="M12.806 11.4038C12.806 11.4823 12.806 11.5609 12.806 11.6394C12.806 11.8319 12.7231 11.9827 12.5204 11.9906C12.2942 12 12.2073 11.8413 12.2019 11.6332C12.1977 11.4761 12.1977 11.319 12.2019 11.1619C12.2019 10.971 12.2801 10.8217 12.4867 10.8139C12.7215 10.8045 12.7998 10.96 12.806 11.1681C12.806 11.2467 12.806 11.3252 12.806 11.4038Z" fill="#333333"/>
<path id="Vector_4" d="M12.1674 13.2396C12.2183 12.9788 12.1017 12.6112 12.4969 12.6237C12.9179 12.641 12.77 13.0165 12.7817 13.2647C12.7828 13.3561 12.7734 13.4473 12.7536 13.5365C12.747 13.6094 12.7125 13.6769 12.6573 13.7248C12.6021 13.7727 12.5306 13.7973 12.4577 13.7933C12.2746 13.7878 12.1791 13.6708 12.1682 13.4886C12.1627 13.3982 12.1674 13.3063 12.1674 13.2396Z" fill="#333333"/>
<path id="Vector_5" d="M12.8907 9.41718C12.8727 9.56014 12.8555 9.70231 12.8375 9.84528C12.8125 10.0519 12.7232 10.2058 12.4908 10.1775C12.2803 10.1524 12.2263 9.98981 12.2404 9.80129C12.2521 9.64419 12.2662 9.48709 12.2905 9.32999C12.3226 9.13204 12.4086 8.96708 12.6434 9.00007C12.8782 9.03307 12.9158 9.21609 12.8907 9.41718Z" fill="#333333"/>
<path id="Vector_6" d="M12.5811 14.8772C12.5451 15.0006 12.4927 15.215 12.4167 15.4208C12.4065 15.4556 12.3892 15.4879 12.3659 15.5156C12.3426 15.5434 12.3139 15.566 12.2814 15.582C12.249 15.598 12.2136 15.6071 12.1775 15.6087C12.1414 15.6103 12.1053 15.6044 12.0716 15.5913C12.0366 15.5824 12.0037 15.5668 11.9747 15.5452C11.9458 15.5236 11.9213 15.4965 11.9028 15.4654C11.8842 15.4344 11.872 15.3999 11.8667 15.3641C11.8614 15.3283 11.8633 15.2918 11.8721 15.2566C11.9081 15.0532 11.9644 14.8529 12.0192 14.6526C12.0677 14.4766 12.1914 14.3902 12.3706 14.4287C12.5498 14.4672 12.6085 14.6094 12.5811 14.8772Z" fill="#333333"/>
<path id="Vector_7" d="M11.8881 16.3988C11.8826 16.6721 11.446 17.1238 11.2441 17.1144C11.2049 17.1162 11.1657 17.1097 11.1291 17.0954C11.0926 17.081 11.0595 17.059 11.0319 17.031C11.0044 17.0029 10.983 16.9693 10.9693 16.9323C10.9556 16.8954 10.9497 16.856 10.9522 16.8167C10.9459 16.6407 11.4327 16.1513 11.6009 16.1568C11.6704 16.1533 11.7386 16.1763 11.7919 16.2212C11.8451 16.2661 11.8795 16.3295 11.8881 16.3988Z" fill="#333333"/>
<path id="Vector_8" d="M18.28 8.39369C18.2786 8.45283 18.2595 8.51019 18.2252 8.55826C18.1908 8.60634 18.1428 8.64288 18.0875 8.66311C18.0274 8.69057 17.9593 8.69477 17.8963 8.67491C17.8333 8.65505 17.7799 8.61252 17.7463 8.5555C17.6015 8.35598 17.4646 8.15018 17.3276 7.94438C17.2876 7.89185 17.2687 7.82621 17.2745 7.76036C17.2803 7.69451 17.3104 7.63322 17.3589 7.58854C17.3977 7.54389 17.4495 7.5127 17.507 7.49943C17.5645 7.48617 17.6247 7.49152 17.679 7.51471C17.8597 7.57755 18.2901 8.20752 18.28 8.39369Z" fill="#333333"/>
<path id="Vector_9" d="M18.1903 10.1674C18.1752 10.0773 18.1671 9.98621 18.166 9.89486C18.1746 9.73383 18.2568 9.61522 18.4235 9.59872C18.4627 9.59227 18.5027 9.59415 18.5411 9.60424C18.5795 9.61433 18.6154 9.6324 18.6463 9.65728C18.6773 9.68216 18.7028 9.7133 18.721 9.74868C18.7392 9.78406 18.7499 9.82289 18.7522 9.86265C18.7811 10.0566 18.796 10.2525 18.7968 10.4486C18.7968 10.6434 18.7013 10.7895 18.4971 10.7872C18.2928 10.7848 18.2083 10.6372 18.2044 10.4424C18.2044 10.3505 18.2044 10.2593 18.2044 10.1674H18.1903Z" fill="#333333"/>
<path id="Vector_10" d="M18.8129 11.9945C18.8104 12.1103 18.8021 12.2259 18.7878 12.3409C18.7841 12.3768 18.7734 12.4115 18.7562 12.4432C18.739 12.4749 18.7157 12.5028 18.6877 12.5254C18.6597 12.548 18.6274 12.5648 18.5929 12.5747C18.5584 12.5847 18.5222 12.5877 18.4865 12.5836C18.4506 12.5844 18.415 12.578 18.3816 12.5648C18.3483 12.5515 18.3179 12.5316 18.2924 12.5064C18.2668 12.4811 18.2466 12.4509 18.2329 12.4176C18.2192 12.3843 18.2123 12.3486 18.2126 12.3126C18.2024 12.1319 18.2079 11.9505 18.2056 11.7698C18.2056 11.5774 18.2744 11.4273 18.4779 11.414C18.7049 11.3998 18.791 11.5538 18.8035 11.7612C18.8074 11.8397 18.8035 11.9183 18.8035 11.9968L18.8129 11.9945Z" fill="#333333"/>
<path id="Vector_11" d="M18.2061 13.6362C18.1928 13.4202 18.2421 13.216 18.4894 13.2105C18.7625 13.2042 18.8025 13.4249 18.8025 13.6503C18.8025 13.8758 18.7594 14.1012 18.4894 14.0949C18.2194 14.0887 18.1936 13.8585 18.2061 13.6362Z" fill="#333333"/>
<path id="Vector_12" d="M6.39543 15.3368C6.38616 15.2654 6.4044 15.1931 6.44644 15.1347C6.48847 15.0763 6.55112 15.0362 6.6216 15.0226C6.68433 15.0012 6.75292 15.005 6.81291 15.0333C6.8729 15.0615 6.91963 15.1121 6.94325 15.1742C7.03613 15.4021 7.11454 15.6356 7.17803 15.8733C7.21872 16.0304 7.12481 16.1506 6.97611 16.2056C6.82742 16.2606 6.72803 16.1844 6.64351 16.0736C6.57699 15.9912 6.40012 15.4468 6.39543 15.3368Z" fill="#333333"/>
<path id="Vector_13" d="M6.78689 12.0236C6.79322 12.1282 6.79322 12.2331 6.78689 12.3378C6.78099 12.4048 6.75019 12.4671 6.7006 12.5124C6.65101 12.5577 6.58626 12.5825 6.51924 12.5821C6.4835 12.5878 6.44697 12.5862 6.41187 12.5773C6.37677 12.5685 6.34383 12.5525 6.31506 12.5305C6.28629 12.5085 6.26229 12.4808 6.24452 12.4491C6.22674 12.4175 6.21557 12.3825 6.21167 12.3464C6.19287 12.1512 6.18816 11.9548 6.19759 11.7589C6.20307 11.5688 6.28446 11.4164 6.49498 11.4164C6.72976 11.4164 6.79941 11.5798 6.79471 11.7903C6.79471 11.8688 6.79471 11.9474 6.79471 12.0259L6.78689 12.0236Z" fill="#333333"/>
<path id="Vector_14" d="M6.80629 13.8546C6.80629 13.9457 6.81255 14.0368 6.80629 14.1272C6.80653 14.1635 6.79942 14.1995 6.78537 14.2329C6.77133 14.2664 6.75065 14.2967 6.72459 14.3219C6.69853 14.3471 6.66763 14.3667 6.63378 14.3795C6.59993 14.3924 6.56383 14.3982 6.52768 14.3966C6.49185 14.3994 6.45583 14.3949 6.42176 14.3834C6.38768 14.372 6.35625 14.3538 6.32932 14.3299C6.30238 14.306 6.2805 14.2769 6.26497 14.2444C6.24944 14.2119 6.24058 14.1765 6.2389 14.1405C6.21777 13.9598 6.20838 13.7768 6.20212 13.5907C6.19508 13.3856 6.26786 13.2121 6.49403 13.2066C6.7202 13.2011 6.79846 13.3692 6.79924 13.5765C6.79924 13.6676 6.79924 13.7595 6.79924 13.8507L6.80629 13.8546Z" fill="#333333"/>
<path id="Vector_15" d="M8.01432 17.4105C7.75139 17.4208 7.23179 17.0178 7.24118 16.8167C7.23907 16.7804 7.24423 16.744 7.25634 16.7097C7.26845 16.6755 7.28728 16.644 7.31171 16.6171C7.33614 16.5902 7.36568 16.5685 7.39859 16.5533C7.4315 16.5381 7.46711 16.5296 7.50333 16.5284C7.70914 16.5033 8.27021 16.9212 8.27569 17.1003C8.28002 17.1381 8.27658 17.1764 8.2656 17.2128C8.25462 17.2493 8.23632 17.2831 8.21183 17.3121C8.18735 17.3412 8.15719 17.3649 8.12322 17.3819C8.08926 17.3988 8.05219 17.4085 8.01432 17.4105Z" fill="#333333"/>
</g>
</g>
</g>
</svg>
