<svg width="553" height="73" viewBox="0 0 553 73" fill="none" xmlns="http://www.w3.org/2000/svg">
<path d="M18.2047 22.928C18.1087 22.784 18.0607 22.712 18.0607 22.712C18.0607 22.664 18.1567 22.64 18.3487 22.64C18.4927 22.64 18.6127 22.64 18.7087 22.64C18.8047 22.592 18.9487 22.544 19.1407 22.496C19.3327 22.448 19.5247 22.4 19.7167 22.352C19.9087 22.256 20.1247 22.16 20.3647 22.064C20.6527 21.92 20.9407 21.752 21.2287 21.56C21.5167 21.32 21.8047 21.056 22.0927 20.768C22.4287 20.48 22.7647 20.144 23.1007 19.76C23.4847 19.376 23.8447 18.92 24.1807 18.392C24.5167 17.96 24.8047 17.552 25.0447 17.168C25.3327 16.736 25.6207 16.112 25.9087 15.296C26.1967 14.432 26.3167 13.64 26.2687 12.92C26.2687 12.2 25.9807 11.432 25.4047 10.616C24.8767 9.752 24.0367 9.008 22.8847 8.384C22.8367 8.432 22.6447 8.552 22.3087 8.744C21.9727 8.888 21.6127 9.08 21.2287 9.32C20.8447 9.512 20.3407 9.824 19.7167 10.256C19.0927 10.64 18.4927 11.048 17.9167 11.48C16.2367 12.632 14.9407 14.12 14.0287 15.944C13.1167 17.72 12.6367 19.592 12.5887 21.56V21.704C12.5887 22.04 12.6127 22.424 12.6607 22.856C12.9007 26.024 13.9807 28.688 15.9007 30.848C15.6127 31.232 15.3967 31.568 15.2527 31.856C14.9167 32.336 14.6287 32.792 14.3887 33.224C12.9487 35.72 11.9407 37.976 11.3647 39.992C10.7887 41.96 10.7647 43.592 11.2927 44.888C11.8687 46.136 13.0687 46.784 14.8927 46.832C16.3807 46.832 17.7967 46.52 19.1407 45.896C20.5327 45.224 21.7327 44.336 22.7407 43.232C23.7967 42.128 24.6607 41.12 25.3327 40.208C26.0047 39.248 26.6047 38.264 27.1327 37.256C27.9487 35.384 28.1407 33.776 27.7087 32.432C27.7087 32.48 27.8047 32.48 27.9967 32.432C28.2367 32.384 28.5247 32.408 28.8607 32.504C29.2447 32.6 29.6047 32.72 29.9407 32.864C30.3247 33.008 30.6847 33.272 31.0207 33.656C31.3567 33.992 31.6207 34.4 31.8127 34.88C31.9087 35.168 31.9327 35.528 31.8847 35.96C31.7887 37.544 31.1887 39.392 30.0847 41.504C28.6447 44.288 26.5567 46.736 23.8207 48.848C21.0847 50.96 17.6767 52.256 13.5967 52.736C9.90072 53.408 6.85272 52.568 4.45272 50.216C2.10072 47.864 0.948719 45.008 0.996719 41.648C1.04472 36.992 3.13272 32.144 7.26072 27.104C5.67672 25.28 4.76472 23.024 4.52472 20.336C4.28472 17.648 4.64472 15.104 5.60472 12.704C6.56472 10.304 8.19672 8.216 10.5007 6.44C12.8527 4.664 15.5887 3.704 18.7087 3.56C21.7327 3.416 24.3487 3.704 26.5567 4.424C28.8127 5.144 30.5167 6.104 31.6687 7.304C32.8207 8.504 33.6847 9.848 34.2607 11.336C34.8847 12.776 35.1727 14.24 35.1247 15.728C35.1247 17.168 34.9567 18.464 34.6207 19.616C34.3327 20.768 33.9247 21.632 33.3967 22.208C32.4367 23.36 31.6687 24.176 31.0927 24.656C30.5647 25.136 29.8207 25.544 28.8607 25.88C27.9007 26.168 26.6767 26.288 25.1887 26.24C22.2127 26.096 19.8847 24.992 18.2047 22.928ZM69.9643 36.176C70.0123 36.032 70.2283 36.056 70.6123 36.248C71.0443 36.44 71.4043 36.728 71.6923 37.112C71.9803 37.448 72.0043 37.808 71.7643 38.192C70.4683 40.064 69.0763 41.912 67.5883 43.736C65.5243 46.184 63.8923 47.84 62.6923 48.704C60.5803 50.048 58.6843 50.528 57.0043 50.144C55.3723 49.76 54.2203 48.776 53.5483 47.192C52.5403 44.792 53.4043 37.904 56.1403 26.528C55.0843 27.392 53.8603 28.76 52.4683 30.632C51.1243 32.504 49.9003 34.376 48.7963 36.248C47.7403 38.12 46.6123 40.184 45.4123 42.44C44.2603 44.696 43.4443 46.328 42.9643 47.336C42.4843 48.344 42.0763 49.232 41.7403 50L41.6683 50.072V50C40.2283 50.384 38.9083 50.312 37.7083 49.784C36.5563 49.208 35.7403 48.344 35.2603 47.192C35.0203 46.712 34.9003 46.04 34.9003 45.176C34.9003 44.312 34.9963 43.256 35.1883 42.008C35.3803 40.712 35.5963 39.512 35.8363 38.408C36.0283 37.304 36.3403 35.912 36.7723 34.232C37.2043 32.504 37.5403 31.184 37.7803 30.272C38.0203 29.312 38.3563 27.968 38.7883 26.24C39.0283 25.376 39.2203 24.752 39.3643 24.368C39.5083 23.696 40.3723 23.096 41.9563 22.568C43.5883 22.04 45.0523 21.8 46.3483 21.848C47.2603 21.896 47.8603 22.184 48.1483 22.712C48.4843 23.24 48.5563 23.864 48.3643 24.584C48.2683 24.92 47.0683 28.952 44.7643 36.68C45.8683 34.472 46.9003 32.576 47.8603 30.992C48.8203 29.36 49.9243 27.8 51.1723 26.312C52.4683 24.776 53.8603 23.624 55.3483 22.856C56.8363 22.04 58.3963 21.632 60.0283 21.632C61.6603 21.68 62.7883 22.136 63.4123 23C64.0843 23.816 64.4443 24.752 64.4923 25.808C64.5883 26.096 64.5883 26.432 64.4923 26.816C64.1083 28.496 63.6283 30.56 63.0523 33.008C62.4763 35.408 62.0203 37.376 61.6843 38.912C61.3963 40.448 61.1803 42.152 61.0363 44.024C60.8443 45.992 62.3083 45.248 65.4283 41.792C67.2523 39.776 68.7643 37.904 69.9643 36.176ZM74.1442 20.048C73.5202 20.048 73.0402 19.808 72.7042 19.328C72.3682 18.848 72.2002 18.296 72.2002 17.672C72.2002 16.136 72.3202 14.576 72.5602 12.992C72.6562 12.224 73.5202 11.72 75.1522 11.48C76.7842 11.192 78.3682 11.264 79.9042 11.696C81.4402 12.08 82.1362 12.728 81.9922 13.64C81.8962 14.456 81.3682 16.088 80.4082 18.536C79.9762 19.544 79.3282 20.048 78.4642 20.048H74.1442ZM86.6002 36.032C86.9842 35.888 87.3442 35.912 87.6802 36.104C88.0642 36.296 88.3042 36.584 88.4002 36.968C88.4962 37.352 88.4722 37.712 88.3282 38.048C88.1362 38.384 87.8962 38.792 87.6082 39.272C87.3202 39.704 86.7442 40.496 85.8802 41.648C85.0642 42.8 84.1762 43.88 83.2162 44.888C82.2562 45.896 81.0322 47 79.5442 48.2C78.0562 49.352 76.5442 50.288 75.0082 51.008C72.5602 59.744 68.6002 66.056 63.1282 69.944C61.2082 71.528 59.1922 72.416 57.0802 72.608C56.5522 72.704 56.0482 72.752 55.5682 72.752C55.4242 72.752 55.2562 72.752 55.0642 72.752C52.8082 72.608 50.9362 71.552 49.4482 69.584C47.1922 66.608 46.8082 63.464 48.2962 60.152C49.5442 57.368 51.8962 55.064 55.3522 53.24C58.7602 51.464 62.7202 50.432 67.2322 50.144C67.2322 50.144 67.2562 50.144 67.3042 50.144C67.3522 50.144 67.3762 50.144 67.3762 50.144C68.1922 46.64 68.9362 42.8 69.6082 38.624C70.2802 34.448 70.7842 30.944 71.1202 28.112C71.4562 25.28 71.6722 23.72 71.7682 23.432C71.7682 23.384 71.7922 23.336 71.8402 23.288C71.9842 23.096 72.3922 22.904 73.0642 22.712C73.6882 22.472 74.1442 22.352 74.4322 22.352C74.6242 22.352 74.8882 22.352 75.2242 22.352C75.6082 22.304 75.9202 22.28 76.1602 22.28C76.4482 22.232 76.7842 22.232 77.1682 22.28C77.5522 22.28 77.8642 22.304 78.1042 22.352C78.3922 22.4 78.6562 22.472 78.8962 22.568C79.1842 22.664 79.4002 22.808 79.5442 23C79.6882 23.144 79.7842 23.36 79.8322 23.648C79.9282 23.888 79.9522 24.176 79.9042 24.512C79.0882 29.504 77.7202 37.088 75.8002 47.264C76.9522 46.544 78.0802 45.68 79.1842 44.672C80.3362 43.664 81.2722 42.752 81.9922 41.936C82.7122 41.072 83.3842 40.208 84.0082 39.344C84.6802 38.432 85.1122 37.808 85.3042 37.472C85.4962 37.136 85.6402 36.872 85.7362 36.68C85.9282 36.344 86.2162 36.128 86.6002 36.032ZM62.8402 63.608C64.2322 60.92 65.5042 57.416 66.6562 53.096C62.4322 53.48 58.9762 54.464 56.2882 56.048C53.6002 57.632 51.8242 59.384 50.9602 61.304C49.9042 63.608 50.1682 65.768 51.7522 67.784C52.1842 68.408 52.6882 68.888 53.2642 69.224C54.3202 69.608 55.4482 69.608 56.6482 69.224C58.9042 68.408 60.9682 66.536 62.8402 63.608ZM115.369 36.608C115.705 36.848 115.753 37.136 115.513 37.472C115.033 38.048 114.457 38.648 113.785 39.272C113.161 39.848 112.297 40.568 111.193 41.432C110.089 42.248 108.817 42.944 107.377 43.52C105.937 44.048 104.473 44.312 102.985 44.312C101.449 46.664 99.6007 48.32 97.4407 49.28C97.0567 49.472 96.6007 49.64 96.0727 49.784C95.5447 49.88 94.9927 49.952 94.4167 50C93.7927 50 93.1207 49.928 92.4007 49.784C91.6807 49.64 90.8407 49.376 89.8807 48.992C88.9687 48.56 88.1527 47.96 87.4327 47.192C86.7607 46.424 86.1367 45.44 85.5607 44.24C84.9367 42.992 84.6247 41.504 84.6247 39.776C84.5767 38 84.7447 35.912 85.1287 33.512C85.4167 32.12 85.8007 30.872 86.2807 29.768C86.8087 28.616 87.3367 27.68 87.8647 26.96C88.3927 26.192 88.9927 25.52 89.6647 24.944C90.3847 24.368 91.0327 23.936 91.6087 23.648C92.1847 23.312 92.8087 23.048 93.4807 22.856C94.2007 22.664 94.7527 22.544 95.1367 22.496C95.5207 22.4 95.9287 22.328 96.3607 22.28C99.5287 22.04 101.977 23.12 103.705 25.52C105.433 27.872 106.249 30.656 106.153 33.872C106.057 36.512 105.481 39.056 104.425 41.504C107.785 41.072 110.809 39.2 113.497 35.888C113.689 35.6 113.929 35.576 114.217 35.816L115.369 36.608ZM100.249 26.096C100.153 26 99.8887 25.976 99.4567 26.024C98.8327 26.36 98.2087 26.816 97.5847 27.392C96.5767 28.544 95.8807 29.936 95.4967 31.568C95.0647 36.56 96.3607 39.656 99.3847 40.856C99.8647 41.048 100.345 41.216 100.825 41.36C101.641 39.824 102.169 38.504 102.409 37.4C102.697 35.624 102.841 34.112 102.841 32.864C102.841 31.568 102.673 30.464 102.337 29.552C102.049 28.592 101.737 27.848 101.401 27.32C101.065 26.792 100.705 26.384 100.321 26.096C100.273 26.096 100.249 26.096 100.249 26.096ZM95.0647 46.328C96.1207 46.424 97.2487 45.92 98.4487 44.816C98.7367 44.528 99.0247 44.192 99.3127 43.808C96.5767 43.136 94.5607 41.984 93.2647 40.352C93.3127 43.328 93.8407 45.296 94.8487 46.256C94.9447 46.304 95.0167 46.328 95.0647 46.328ZM148.29 36.032C148.674 35.888 149.034 35.912 149.37 36.104C149.754 36.296 149.994 36.584 150.09 36.968C150.234 37.352 150.21 37.712 150.018 38.048C149.826 38.384 149.586 38.792 149.298 39.272C149.01 39.704 148.434 40.496 147.57 41.648C146.754 42.8 145.866 43.88 144.906 44.888C143.946 45.896 142.722 47 141.234 48.2C139.794 49.352 138.282 50.288 136.698 51.008C134.25 59.744 130.29 66.056 124.818 69.944C122.898 71.528 120.882 72.416 118.77 72.608C118.242 72.704 117.762 72.752 117.33 72.752C117.138 72.752 116.946 72.752 116.754 72.752C114.498 72.608 112.626 71.552 111.138 69.584C108.882 66.608 108.522 63.464 110.058 60.152C111.306 57.368 113.634 55.064 117.042 53.24C120.498 51.464 124.458 50.432 128.922 50.144C128.922 50.144 128.946 50.144 128.994 50.144C129.042 50.144 129.066 50.144 129.066 50.144C130.314 45.008 131.418 38.792 132.378 31.496C131.706 32.984 131.13 34.208 130.65 35.168C129.594 37.376 128.562 39.296 127.554 40.928C126.594 42.512 125.466 44.072 124.17 45.608C122.922 47.144 121.554 48.32 120.066 49.136C118.578 49.904 117.018 50.288 115.386 50.288C115.386 50.288 115.362 50.264 115.314 50.216C114.21 50.264 113.25 50 112.434 49.424C111.57 48.848 110.946 48.104 110.562 47.192C110.37 46.712 110.274 46.04 110.274 45.176C110.226 44.312 110.298 43.256 110.49 42.008C110.682 40.712 110.898 39.512 111.138 38.408C111.33 37.304 111.642 35.912 112.074 34.232C112.506 32.504 112.842 31.184 113.082 30.272C113.322 29.312 113.682 27.968 114.162 26.24C114.402 25.376 114.57 24.752 114.666 24.368C114.81 23.696 115.674 23.096 117.258 22.568C118.89 22.04 120.354 21.8 121.65 21.848C122.562 21.896 123.162 22.184 123.45 22.712C123.786 23.24 123.858 23.864 123.666 24.584C123.426 25.544 122.442 28.856 120.714 34.52C119.034 40.184 117.954 44.12 117.474 46.328C118.434 46.088 119.538 45.296 120.786 43.952C122.034 42.56 123.21 41 124.314 39.272C125.466 37.544 126.666 35.552 127.914 33.296C129.162 31.04 130.146 29.192 130.866 27.752C131.634 26.264 132.33 24.824 132.954 23.432C133.002 23.432 133.026 23.384 133.026 23.288C133.17 23.096 133.602 22.904 134.322 22.712L134.394 22.784C134.49 22.784 134.61 22.76 134.754 22.712C135.378 22.472 135.834 22.352 136.122 22.352C136.314 22.352 136.626 22.352 137.058 22.352C137.538 22.304 137.922 22.28 138.21 22.28C138.498 22.28 138.858 22.28 139.29 22.28C139.722 22.28 140.058 22.328 140.298 22.424C140.586 22.52 140.85 22.664 141.09 22.856C141.33 23 141.498 23.216 141.594 23.504C141.69 23.792 141.69 24.128 141.594 24.512C140.778 29.504 139.41 37.088 137.49 47.264C139.362 46.112 141.138 44.6 142.818 42.728C144.546 40.856 145.674 39.512 146.202 38.696C146.778 37.832 147.21 37.16 147.498 36.68C147.69 36.344 147.954 36.128 148.29 36.032ZM124.53 63.608C125.922 60.92 127.194 57.416 128.346 53.096C124.122 53.48 120.666 54.464 117.978 56.048C115.29 57.632 113.514 59.384 112.65 61.304C111.594 63.608 111.858 65.768 113.442 67.784C113.874 68.408 114.378 68.888 114.954 69.224C116.058 69.608 117.186 69.608 118.338 69.224C120.642 68.408 122.706 66.536 124.53 63.608ZM170.959 20.048C170.335 20.048 169.855 19.808 169.519 19.328C169.183 18.848 169.015 18.296 169.015 17.672C169.015 16.136 169.135 14.576 169.375 12.992C169.471 12.224 170.335 11.72 171.967 11.48C173.599 11.192 175.183 11.264 176.719 11.696C178.255 12.08 178.951 12.728 178.807 13.64C178.711 14.456 178.183 16.088 177.223 18.536C176.839 19.544 176.191 20.048 175.279 20.048H170.959ZM182.047 36.104C182.143 35.96 182.383 35.984 182.767 36.176C183.151 36.368 183.463 36.656 183.703 37.04C183.943 37.424 183.943 37.808 183.703 38.192C182.407 40.064 181.015 41.912 179.527 43.736C177.463 46.184 175.831 47.84 174.631 48.704C172.567 50.048 170.695 50.528 169.015 50.144C167.335 49.76 166.159 48.776 165.487 47.192C164.863 45.704 164.911 42.512 165.631 37.616C166.303 32.72 167.191 27.992 168.295 23.432C168.343 23.192 168.727 22.952 169.447 22.712C170.167 22.472 170.671 22.352 170.959 22.352C171.151 22.352 171.487 22.352 171.967 22.352C172.447 22.304 172.831 22.28 173.119 22.28C173.407 22.28 173.767 22.28 174.199 22.28C174.631 22.28 174.967 22.328 175.207 22.424C175.495 22.52 175.759 22.664 175.999 22.856C176.239 23 176.383 23.216 176.431 23.504C176.527 23.792 176.527 24.128 176.431 24.512C176.191 25.664 175.783 27.464 175.207 29.912C174.679 32.312 174.295 34.064 174.055 35.168C173.863 36.272 173.647 37.688 173.407 39.416C173.167 41.144 173.047 42.752 173.047 44.24C172.999 46.496 175.039 45.032 179.167 39.848C180.367 38.408 181.327 37.16 182.047 36.104ZM214.808 36.176C214.856 36.032 215.072 36.056 215.456 36.248C215.888 36.44 216.248 36.728 216.536 37.112C216.824 37.448 216.848 37.808 216.608 38.192C215.312 40.064 213.92 41.912 212.432 43.736C210.368 46.184 208.736 47.84 207.536 48.704C205.424 50.048 203.528 50.528 201.848 50.144C200.216 49.76 199.064 48.776 198.392 47.192C197.384 44.792 198.248 37.904 200.984 26.528C199.928 27.392 198.704 28.76 197.312 30.632C195.968 32.504 194.744 34.376 193.64 36.248C192.584 38.12 191.456 40.184 190.256 42.44C189.104 44.696 188.288 46.328 187.808 47.336C187.328 48.344 186.92 49.232 186.584 50L186.512 50.072V50C185.072 50.384 183.752 50.312 182.552 49.784C181.4 49.208 180.584 48.344 180.104 47.192C179.864 46.712 179.744 46.04 179.744 45.176C179.744 44.312 179.84 43.256 180.032 42.008C180.224 40.712 180.44 39.512 180.68 38.408C180.872 37.304 181.184 35.912 181.616 34.232C182.048 32.504 182.384 31.184 182.624 30.272C182.864 29.312 183.2 27.968 183.632 26.24C183.872 25.376 184.064 24.752 184.208 24.368C184.352 23.696 185.216 23.096 186.8 22.568C188.432 22.04 189.896 21.8 191.192 21.848C192.104 21.896 192.704 22.184 192.992 22.712C193.328 23.24 193.4 23.864 193.208 24.584C193.112 24.92 191.912 28.952 189.608 36.68C190.712 34.472 191.744 32.576 192.704 30.992C193.664 29.36 194.768 27.8 196.016 26.312C197.312 24.776 198.704 23.624 200.192 22.856C201.68 22.04 203.24 21.632 204.872 21.632C206.504 21.68 207.632 22.136 208.256 23C208.928 23.816 209.288 24.752 209.336 25.808C209.432 26.096 209.432 26.432 209.336 26.816C208.952 28.496 208.472 30.56 207.896 33.008C207.32 35.408 206.864 37.376 206.528 38.912C206.24 40.448 206.024 42.152 205.88 44.024C205.688 45.992 207.152 45.248 210.272 41.792C212.096 39.776 213.608 37.904 214.808 36.176ZM249.35 36.104C249.446 35.96 249.686 35.984 250.07 36.176C250.454 36.368 250.766 36.656 251.006 37.04C251.294 37.424 251.318 37.808 251.078 38.192C249.782 40.064 248.366 41.912 246.83 43.736C244.814 46.184 243.182 47.84 241.934 48.704C239.87 50.048 237.998 50.528 236.318 50.144C234.638 49.76 233.486 48.776 232.862 47.192C232.142 45.512 233.078 37.88 235.67 24.296H232.07C231.686 24.296 231.494 24.104 231.494 23.72C231.494 23.144 231.71 22.664 232.142 22.28C232.526 21.848 233.006 21.632 233.582 21.632H236.174C237.374 15.488 238.382 10.736 239.198 7.376C239.198 7.232 239.39 7.088 239.774 6.944C240.158 6.752 240.542 6.608 240.926 6.512C241.358 6.368 241.646 6.296 241.79 6.296C241.982 6.296 242.318 6.296 242.798 6.296C243.278 6.248 243.662 6.224 243.95 6.224C244.238 6.224 244.598 6.224 245.03 6.224C245.462 6.224 245.798 6.272 246.038 6.368C246.326 6.464 246.59 6.608 246.83 6.8C247.07 6.944 247.214 7.16 247.262 7.448C247.358 7.736 247.382 8.072 247.334 8.456C247.094 9.512 246.638 11.576 245.966 14.648C245.294 17.672 244.766 20 244.382 21.632H249.854C250.19 21.632 250.358 21.824 250.358 22.208C250.358 22.784 250.142 23.288 249.71 23.72C249.326 24.104 248.846 24.296 248.27 24.296H243.806C241.55 34.712 240.398 41.36 240.35 44.24C240.302 46.496 242.366 45.032 246.542 39.848C247.694 38.408 248.63 37.16 249.35 36.104ZM282.172 36.104C282.22 35.96 282.436 35.984 282.82 36.176C283.252 36.368 283.588 36.656 283.828 37.04C284.068 37.424 284.068 37.808 283.828 38.192C282.532 40.064 281.14 41.912 279.652 43.736C277.588 46.184 275.956 47.84 274.756 48.704C272.692 50.048 270.82 50.528 269.14 50.144C267.46 49.76 266.284 48.776 265.612 47.192C264.604 44.744 265.252 38.072 267.556 27.176C265.876 28.712 263.884 31.448 261.58 35.384C259.276 39.272 257.596 42.272 256.54 44.384C255.484 46.496 254.596 48.368 253.876 50V50.072L253.804 50C252.364 50.384 251.044 50.312 249.844 49.784C248.692 49.208 247.876 48.344 247.396 47.192C246.772 45.704 247.324 40.208 249.052 30.704C250.828 21.2 252.388 13.952 253.732 8.96C253.924 8.288 254.812 7.688 256.396 7.16C258.028 6.632 259.468 6.392 260.716 6.44C262.492 6.536 263.188 7.448 262.804 9.176C260.068 20.12 257.812 29.936 256.036 38.624C256.9 36.656 257.716 34.952 258.484 33.512C259.252 32.072 260.164 30.56 261.22 28.976C262.324 27.344 263.38 26.048 264.388 25.088C265.444 24.08 266.644 23.24 267.988 22.568C269.332 21.896 270.724 21.584 272.164 21.632C273.22 21.68 274.084 21.92 274.756 22.352C275.428 22.736 275.884 23.24 276.124 23.864C276.364 24.44 276.508 24.92 276.556 25.304C276.652 25.64 276.7 25.952 276.7 26.24C276.7 26.432 276.676 26.624 276.628 26.816C276.244 28.592 275.716 30.68 275.044 33.08C274.42 35.432 273.94 37.424 273.604 39.056C273.316 40.64 273.148 42.368 273.1 44.24C273.1 46.496 275.164 45.032 279.292 39.848C280.444 38.408 281.404 37.16 282.172 36.104ZM305.285 36.032C305.381 35.936 305.645 35.984 306.077 36.176C306.509 36.368 306.869 36.656 307.157 37.04C307.445 37.424 307.469 37.808 307.229 38.192C302.237 45.488 297.485 49.424 292.973 50C291.341 50.24 289.829 50.24 288.437 50C287.093 49.76 286.037 49.376 285.269 48.848C284.501 48.32 283.829 47.792 283.253 47.264C282.725 46.736 282.365 46.28 282.173 45.896L281.885 45.248C281.309 44.24 280.925 43.184 280.733 42.08C279.965 37.808 280.517 33.584 282.389 29.408C283.109 27.776 284.045 26.312 285.197 25.016C286.397 23.672 287.741 22.784 289.229 22.352C289.517 22.208 289.805 22.088 290.093 21.992H290.165C291.317 21.704 292.445 21.56 293.549 21.56C296.237 21.512 298.421 22.544 300.101 24.656C301.829 26.768 302.357 29.12 301.685 31.712C301.685 31.808 301.685 31.88 301.685 31.928C301.397 33.032 300.797 33.944 299.885 34.664C298.973 35.384 297.893 35.888 296.645 36.176C295.397 36.416 294.293 36.584 293.333 36.68C292.373 36.728 291.413 36.728 290.453 36.68C289.493 41.336 290.117 44.288 292.325 45.536C293.237 45.968 294.173 46.112 295.133 45.968C296.093 45.776 297.077 45.296 298.085 44.528C299.093 43.76 300.005 42.944 300.821 42.08C301.637 41.168 302.381 40.256 303.053 39.344C303.773 38.384 304.301 37.64 304.637 37.112C305.021 36.536 305.237 36.176 305.285 36.032ZM291.173 34.088C291.173 34.136 291.149 34.232 291.101 34.376C292.397 34.424 293.501 34.256 294.413 33.872C295.325 33.488 295.949 33.032 296.285 32.504C296.669 31.928 296.933 31.376 297.077 30.848C297.269 30.272 297.341 29.792 297.293 29.408V28.76L296.789 28.688C294.341 28.544 292.493 30.272 291.245 33.872C291.245 33.92 291.221 33.992 291.173 34.088ZM348.407 29.624C348.983 33.8 348.239 38.024 346.175 42.296C345.215 44.36 343.655 46.208 341.495 47.84C339.383 49.424 337.319 50.144 335.303 50C332.759 49.856 330.815 48.992 329.471 47.408C329.279 48.656 329.183 49.4 329.183 49.64C329.135 49.688 329.111 49.808 329.111 50C327.671 50.432 326.351 50.384 325.151 49.856C323.951 49.28 323.111 48.392 322.631 47.192C322.007 45.704 322.559 40.208 324.287 30.704C326.063 21.2 327.623 13.952 328.967 8.96C329.159 8.288 330.047 7.688 331.631 7.16C333.263 6.632 334.703 6.392 335.951 6.44C337.727 6.536 338.423 7.448 338.039 9.176C336.791 14.168 335.639 18.968 334.583 23.576C336.455 22.76 338.807 22.304 341.639 22.208C343.607 22.208 345.143 22.928 346.247 24.368C347.399 25.808 348.119 27.56 348.407 29.624ZM337.895 38.48C338.231 37.328 338.519 36.08 338.759 34.736C338.999 33.392 339.119 32.024 339.119 30.632C339.167 29.192 338.927 28.04 338.399 27.176C337.919 26.312 337.175 25.904 336.167 25.952C335.255 26.048 334.415 26.576 333.647 27.536C332.351 33.296 331.247 38.456 330.335 43.016C330.575 44.504 331.199 45.32 332.207 45.464C333.071 45.56 334.055 44.984 335.159 43.736C336.311 42.44 337.223 40.688 337.895 38.48ZM375.598 36.032C375.694 35.936 375.958 35.984 376.39 36.176C376.822 36.368 377.182 36.656 377.47 37.04C377.758 37.424 377.782 37.808 377.542 38.192C372.55 45.488 367.798 49.424 363.286 50C361.654 50.24 360.142 50.24 358.75 50C357.406 49.76 356.35 49.376 355.582 48.848C354.814 48.32 354.142 47.792 353.566 47.264C353.038 46.736 352.678 46.28 352.486 45.896L352.198 45.248C351.622 44.24 351.238 43.184 351.046 42.08C350.278 37.808 350.83 33.584 352.702 29.408C353.422 27.776 354.358 26.312 355.51 25.016C356.71 23.672 358.054 22.784 359.542 22.352C359.83 22.208 360.118 22.088 360.406 21.992H360.478C361.63 21.704 362.758 21.56 363.862 21.56C366.55 21.512 368.734 22.544 370.414 24.656C372.142 26.768 372.67 29.12 371.998 31.712C371.998 31.808 371.998 31.88 371.998 31.928C371.71 33.032 371.11 33.944 370.198 34.664C369.286 35.384 368.206 35.888 366.958 36.176C365.71 36.416 364.606 36.584 363.646 36.68C362.686 36.728 361.726 36.728 360.766 36.68C359.806 41.336 360.43 44.288 362.638 45.536C363.55 45.968 364.486 46.112 365.446 45.968C366.406 45.776 367.39 45.296 368.398 44.528C369.406 43.76 370.318 42.944 371.134 42.08C371.95 41.168 372.694 40.256 373.366 39.344C374.086 38.384 374.614 37.64 374.95 37.112C375.334 36.536 375.55 36.176 375.598 36.032ZM361.486 34.088C361.486 34.136 361.462 34.232 361.414 34.376C362.71 34.424 363.814 34.256 364.726 33.872C365.638 33.488 366.262 33.032 366.598 32.504C366.982 31.928 367.246 31.376 367.39 30.848C367.582 30.272 367.654 29.792 367.606 29.408V28.76L367.102 28.688C364.654 28.544 362.806 30.272 361.558 33.872C361.558 33.92 361.534 33.992 361.486 34.088ZM394.693 31.136C394.453 32.528 393.781 33.584 392.677 34.304C390.325 35.984 387.733 36.728 384.901 36.536L384.325 36.464C384.901 36.08 385.333 35.312 385.621 34.16C385.909 32.96 385.885 31.808 385.549 30.704C385.213 29.552 384.541 28.952 383.533 28.904C381.853 28.76 380.629 29.288 379.861 30.488C379.093 31.688 378.829 33.176 379.069 34.952C379.213 36.056 379.837 37.016 380.941 37.832C382.093 38.648 383.389 39.344 384.829 39.92C386.317 40.496 387.781 41.12 389.221 41.792C390.709 42.464 391.909 43.424 392.821 44.672C393.781 45.92 394.189 47.456 394.045 49.28C393.949 50.912 393.373 52.424 392.317 53.816C391.261 55.256 389.821 56.36 387.997 57.128C386.173 57.896 384.253 58.136 382.237 57.848C380.221 57.608 378.541 57.104 377.197 56.336C375.853 55.616 374.941 54.8 374.461 53.888C373.981 52.976 373.693 52.016 373.597 51.008C373.501 50.048 373.597 49.184 373.885 48.416C374.125 47.648 374.437 47.072 374.821 46.688C375.349 46.208 376.021 45.848 376.837 45.608C377.701 45.32 378.373 45.2 378.853 45.248C379.333 45.248 379.621 45.296 379.717 45.392C379.189 47.264 379.093 48.728 379.429 49.784C379.813 50.84 380.533 51.44 381.589 51.584C381.877 51.68 382.237 51.68 382.669 51.584C383.101 51.488 383.509 51.344 383.893 51.152C384.277 51.008 384.565 50.672 384.757 50.144C384.949 49.616 384.973 48.968 384.829 48.2C384.733 47.576 384.325 46.904 383.605 46.184C382.933 45.416 381.853 44.384 380.365 43.088C378.877 41.744 377.749 40.688 376.981 39.92C375.781 38.72 374.965 37.208 374.533 35.384C374.053 33.56 374.077 31.712 374.605 29.84C375.181 27.92 376.357 26.216 378.133 24.728C379.909 23.192 382.093 22.4 384.685 22.352C387.181 22.304 389.269 22.736 390.949 23.648C391.861 24.08 392.629 24.704 393.253 25.52C393.877 26.336 394.309 27.224 394.549 28.184C394.789 29.144 394.837 30.128 394.693 31.136ZM414.655 36.104C414.751 35.96 414.991 35.984 415.375 36.176C415.759 36.368 416.071 36.656 416.311 37.04C416.599 37.424 416.623 37.808 416.383 38.192C415.087 40.064 413.671 41.912 412.135 43.736C410.119 46.184 408.487 47.84 407.239 48.704C405.175 50.048 403.303 50.528 401.623 50.144C399.943 49.76 398.791 48.776 398.167 47.192C397.447 45.512 398.383 37.88 400.975 24.296H397.375C396.991 24.296 396.799 24.104 396.799 23.72C396.799 23.144 397.015 22.664 397.447 22.28C397.831 21.848 398.311 21.632 398.887 21.632H401.479C402.679 15.488 403.687 10.736 404.503 7.376C404.503 7.232 404.695 7.088 405.079 6.944C405.463 6.752 405.847 6.608 406.231 6.512C406.663 6.368 406.951 6.296 407.095 6.296C407.287 6.296 407.623 6.296 408.103 6.296C408.583 6.248 408.967 6.224 409.255 6.224C409.543 6.224 409.903 6.224 410.335 6.224C410.767 6.224 411.103 6.272 411.343 6.368C411.631 6.464 411.895 6.608 412.135 6.8C412.375 6.944 412.519 7.16 412.567 7.448C412.663 7.736 412.687 8.072 412.639 8.456C412.399 9.512 411.943 11.576 411.271 14.648C410.599 17.672 410.071 20 409.687 21.632H415.159C415.495 21.632 415.663 21.824 415.663 22.208C415.663 22.784 415.447 23.288 415.015 23.72C414.631 24.104 414.151 24.296 413.575 24.296H409.111C406.855 34.712 405.703 41.36 405.655 44.24C405.607 46.496 407.671 45.032 411.847 39.848C412.999 38.408 413.935 37.16 414.655 36.104ZM471.791 24.08C472.079 24.704 472.199 25.376 472.151 26.096C472.103 26.096 472.007 26.096 471.863 26.096C471.767 26.096 471.551 26.144 471.215 26.24C470.879 26.336 470.543 26.456 470.207 26.6C469.871 26.744 469.463 26.984 468.983 27.32C468.503 27.608 468.047 27.968 467.615 28.4C467.231 28.832 466.799 29.432 466.319 30.2C465.887 30.92 465.479 31.712 465.095 32.576C463.319 37.04 462.095 40.016 461.423 41.504C461.183 42.128 460.943 42.656 460.703 43.088C460.703 43.088 460.703 43.112 460.703 43.16C460.703 43.16 460.679 43.16 460.631 43.16C459.671 45.128 458.663 46.808 457.607 48.2C457.559 48.2 457.535 48.224 457.535 48.272C457.391 48.512 457.199 48.704 456.959 48.848V48.92L456.887 48.992C456.455 49.328 455.927 49.568 455.303 49.712C454.583 49.904 453.791 49.976 452.927 49.928C451.247 49.976 450.071 49.736 449.399 49.208C449.303 49.16 449.207 49.088 449.111 48.992C449.015 48.848 448.967 48.68 448.967 48.488C448.967 48.44 448.967 48.392 448.967 48.344C449.063 45.176 449.135 43.136 449.183 42.224C449.471 36.224 450.023 31.976 450.839 29.48C450.503 29.912 450.191 30.368 449.903 30.848C447.311 34.832 443.903 40.592 439.679 48.128C439.631 48.176 439.583 48.272 439.535 48.416C439.487 48.512 439.439 48.584 439.391 48.632C438.911 49.304 438.431 49.76 437.951 50C437.951 50 437.927 50 437.879 50C437.879 50 437.855 50 437.807 50C437.807 50 437.807 50.024 437.807 50.072V50C436.367 50.384 435.071 50.312 433.919 49.784C432.767 49.208 431.951 48.344 431.471 47.192C431.231 46.712 431.111 46.04 431.111 45.176C431.111 44.312 431.207 43.256 431.399 42.008C431.591 40.712 431.807 39.512 432.047 38.408C432.239 37.304 432.551 35.912 432.983 34.232C433.415 32.504 433.751 31.184 433.991 30.272C434.231 29.312 434.567 27.968 434.999 26.24C435.239 25.376 435.431 24.752 435.575 24.368C435.719 23.696 436.583 23.096 438.167 22.568C439.799 22.04 441.263 21.8 442.559 21.848C443.471 21.896 444.071 22.184 444.359 22.712C444.695 23.24 444.767 23.864 444.575 24.584C444.191 26.072 443.423 28.712 442.271 32.504C441.119 36.248 440.303 38.984 439.823 40.712C440.447 39.512 441.047 38.36 441.623 37.256C444.599 31.784 447.143 27.92 449.255 25.664C449.255 25.664 449.279 25.664 449.327 25.664C451.199 23.216 453.551 22.088 456.383 22.28C457.343 22.376 458.087 22.688 458.615 23.216C458.807 23.408 458.927 23.6 458.975 23.792C458.975 23.84 458.951 23.936 458.903 24.08C458.423 26 458.159 30.992 458.111 39.056C458.495 37.952 458.999 36.392 459.623 34.376C460.295 32.36 460.823 30.728 461.207 29.48C461.639 28.232 462.143 27.008 462.719 25.808C463.343 24.56 463.943 23.696 464.519 23.216C465.671 22.16 466.967 21.68 468.407 21.776C469.895 21.824 471.023 22.592 471.791 24.08ZM504.462 36.104C504.558 35.96 504.798 35.984 505.182 36.176C505.566 36.368 505.878 36.656 506.118 37.04C506.406 37.424 506.43 37.808 506.19 38.192C504.894 40.064 503.502 41.912 502.014 43.736C499.95 46.184 498.318 47.84 497.118 48.704C495.006 50.048 493.11 50.528 491.43 50.144C489.798 49.76 488.646 48.776 487.974 47.192C487.878 46.952 487.806 46.664 487.758 46.328C487.518 46.568 487.278 46.808 487.038 47.048C485.214 48.68 482.934 49.592 480.198 49.784C478.182 49.928 476.334 49.208 474.654 47.624C473.022 45.992 472.038 44.144 471.702 42.08C470.934 37.808 471.486 33.584 473.358 29.408C474.222 27.344 475.446 25.592 477.03 24.152C478.614 22.664 480.39 21.944 482.358 21.992C485.478 22.088 488.142 23.192 490.35 25.304C490.494 24.584 490.638 23.96 490.782 23.432C490.83 23.192 491.214 22.952 491.934 22.712C492.654 22.472 493.158 22.352 493.446 22.352C493.59 22.352 493.902 22.352 494.382 22.352C494.862 22.304 495.246 22.28 495.534 22.28C495.822 22.28 496.182 22.28 496.614 22.28C497.046 22.28 497.382 22.328 497.622 22.424C497.91 22.52 498.174 22.664 498.414 22.856C498.702 23 498.87 23.216 498.918 23.504C499.014 23.792 499.014 24.128 498.918 24.512C498.678 25.664 498.27 27.464 497.694 29.912C497.166 32.312 496.782 34.064 496.542 35.168C496.35 36.272 496.134 37.688 495.894 39.416C495.654 41.144 495.51 42.752 495.462 44.24C495.462 46.496 497.526 45.032 501.654 39.848C502.806 38.408 503.742 37.16 504.462 36.104ZM487.758 40.208C488.046 37.328 488.574 33.968 489.342 30.128C489.15 29.264 488.646 28.784 487.83 28.688C486.822 28.64 485.91 28.904 485.094 29.48C484.278 30.008 483.606 30.776 483.078 31.784C482.598 32.792 482.19 33.824 481.854 34.88C481.566 35.936 481.35 37.064 481.206 38.264C480.87 40.376 480.99 42.152 481.566 43.592C482.142 45.032 482.862 45.68 483.726 45.536C485.598 45.344 486.942 43.568 487.758 40.208ZM540.141 36.032C540.525 35.888 540.885 35.912 541.221 36.104C541.605 36.296 541.845 36.584 541.941 36.968C542.085 37.352 542.061 37.712 541.869 38.048C541.677 38.384 541.437 38.792 541.149 39.272C540.861 39.704 540.285 40.496 539.421 41.648C538.605 42.8 537.717 43.88 536.757 44.888C535.797 45.896 534.573 47 533.085 48.2C531.645 49.352 530.133 50.288 528.549 51.008C526.101 59.744 522.141 66.056 516.669 69.944C514.749 71.528 512.733 72.416 510.621 72.608C510.093 72.704 509.613 72.752 509.181 72.752C508.989 72.752 508.797 72.752 508.605 72.752C506.349 72.608 504.477 71.552 502.989 69.584C500.733 66.608 500.373 63.464 501.909 60.152C503.157 57.368 505.485 55.064 508.893 53.24C512.349 51.464 516.309 50.432 520.773 50.144C520.773 50.144 520.797 50.144 520.845 50.144C520.893 50.144 520.917 50.144 520.917 50.144C522.165 45.008 523.269 38.792 524.229 31.496C523.557 32.984 522.981 34.208 522.501 35.168C521.445 37.376 520.413 39.296 519.405 40.928C518.445 42.512 517.317 44.072 516.021 45.608C514.773 47.144 513.405 48.32 511.917 49.136C510.429 49.904 508.869 50.288 507.237 50.288C507.237 50.288 507.213 50.264 507.165 50.216C506.061 50.264 505.101 50 504.285 49.424C503.421 48.848 502.797 48.104 502.413 47.192C502.221 46.712 502.125 46.04 502.125 45.176C502.077 44.312 502.149 43.256 502.341 42.008C502.533 40.712 502.749 39.512 502.989 38.408C503.181 37.304 503.493 35.912 503.925 34.232C504.357 32.504 504.693 31.184 504.933 30.272C505.173 29.312 505.533 27.968 506.013 26.24C506.253 25.376 506.421 24.752 506.517 24.368C506.661 23.696 507.525 23.096 509.109 22.568C510.741 22.04 512.205 21.8 513.501 21.848C514.413 21.896 515.013 22.184 515.301 22.712C515.637 23.24 515.709 23.864 515.517 24.584C515.277 25.544 514.293 28.856 512.565 34.52C510.885 40.184 509.805 44.12 509.325 46.328C510.285 46.088 511.389 45.296 512.637 43.952C513.885 42.56 515.061 41 516.165 39.272C517.317 37.544 518.517 35.552 519.765 33.296C521.013 31.04 521.997 29.192 522.717 27.752C523.485 26.264 524.181 24.824 524.805 23.432C524.853 23.432 524.877 23.384 524.877 23.288C525.021 23.096 525.453 22.904 526.173 22.712L526.245 22.784C526.341 22.784 526.461 22.76 526.605 22.712C527.229 22.472 527.685 22.352 527.973 22.352C528.165 22.352 528.477 22.352 528.909 22.352C529.389 22.304 529.773 22.28 530.061 22.28C530.349 22.28 530.709 22.28 531.141 22.28C531.573 22.28 531.909 22.328 532.149 22.424C532.437 22.52 532.701 22.664 532.941 22.856C533.181 23 533.349 23.216 533.445 23.504C533.541 23.792 533.541 24.128 533.445 24.512C532.629 29.504 531.261 37.088 529.341 47.264C531.213 46.112 532.989 44.6 534.669 42.728C536.397 40.856 537.525 39.512 538.053 38.696C538.629 37.832 539.061 37.16 539.349 36.68C539.541 36.344 539.805 36.128 540.141 36.032ZM516.381 63.608C517.773 60.92 519.045 57.416 520.197 53.096C515.973 53.48 512.517 54.464 509.829 56.048C507.141 57.632 505.365 59.384 504.501 61.304C503.445 63.608 503.709 65.768 505.293 67.784C505.725 68.408 506.229 68.888 506.805 69.224C507.909 69.608 509.037 69.608 510.189 69.224C512.493 68.408 514.557 66.536 516.381 63.608ZM544.041 44.672C543.657 44.336 543.345 44.072 543.105 43.88C542.865 43.64 542.577 43.304 542.241 42.872C541.905 42.392 541.641 41.912 541.449 41.432C541.257 40.952 541.041 40.304 540.801 39.488C540.609 38.672 540.465 37.784 540.369 36.824C540.321 35.816 540.297 34.616 540.297 33.224C540.345 31.784 540.441 30.2 540.585 28.472C540.777 25.4 541.185 21.92 541.809 18.032C542.193 15.632 542.529 13.64 542.817 12.056C543.153 10.472 543.513 8.912 543.897 7.376C544.329 5.84 544.905 3.896 545.625 1.544C545.721 1.208 545.889 1.016 546.129 0.967996C546.369 0.871997 546.633 0.895998 546.921 1.04C547.257 1.184 547.569 1.352 547.857 1.544C548.193 1.736 548.529 2 548.865 2.336C549.249 2.624 549.513 2.84 549.657 2.984C549.801 3.128 549.993 3.32 550.233 3.56C551.241 4.568 552.153 5.696 552.969 6.944C552.537 8.528 552.177 10.016 551.889 11.408C551.649 12.8 551.457 13.928 551.313 14.792C551.217 15.608 551.049 16.904 550.809 18.68C550.617 20.408 550.425 21.848 550.233 23C549.657 27.32 549.249 31.208 549.009 34.664C548.577 40.616 548.529 44.552 548.865 46.472C548.241 46.424 547.401 46.208 546.345 45.824C545.289 45.44 544.521 45.056 544.041 44.672ZM547.353 49.064C548.793 50.168 549.921 51.584 550.737 53.312C551.073 54.032 551.121 54.488 550.881 54.68C550.641 54.872 550.209 54.752 549.585 54.32C549.585 54.368 549.033 54.632 547.929 55.112C547.641 55.256 547.209 55.448 546.633 55.688C546.105 55.928 545.697 56.12 545.409 56.264C545.265 56.264 545.145 56.288 545.049 56.336C544.953 56.384 544.809 56.36 544.617 56.264C544.425 56.168 544.281 56.096 544.185 56.048C544.089 56 543.945 55.88 543.753 55.688C543.561 55.544 543.417 55.424 543.321 55.328C543.225 55.28 543.081 55.16 542.889 54.968C542.745 54.776 542.625 54.632 542.529 54.536C542.481 54.488 542.385 54.392 542.241 54.248C542.145 54.104 542.073 54.008 542.025 53.96C541.929 53.816 541.761 53.6 541.521 53.312C541.329 53.024 541.065 52.64 540.729 52.16C540.441 51.68 540.249 51.272 540.153 50.936C540.105 50.648 540.177 50.408 540.369 50.216C540.657 50.12 541.113 49.904 541.737 49.568C542.361 49.232 542.913 48.968 543.393 48.776C543.921 48.536 544.425 48.344 544.905 48.2C545.577 48.008 546.393 48.296 547.353 49.064Z" fill="white"/>
</svg>
