<svg width="24" height="25" viewBox="0 0 24 25" fill="none" xmlns="http://www.w3.org/2000/svg">
<g id="icon_ticket" opacity="0.8" clip-path="url(#clip0_201_27044)">
<g id="Layer 1">
<path id="Vector" d="M23.401 12.5269C23.9168 12.4662 23.9999 12.2112 23.9999 11.782C23.9947 10.9954 23.9964 10.2089 23.9982 9.42241C23.999 9.02915 23.9999 8.63589 23.9999 8.24263C23.9988 7.42466 23.9718 7.37297 23.1482 7.3887M23.401 12.5269L23.1464 7.28872L23.1482 7.3887M23.401 12.5269C23.0233 12.5683 22.6743 12.7479 22.4212 13.0313M23.401 12.5269L22.4212 13.0313M23.1482 7.3887C22.7269 7.39657 22.6055 7.23589 22.5673 6.84488L22.6669 6.83516C22.6669 6.8352 22.6669 6.83525 22.6669 6.8353C22.6856 7.02715 22.7233 7.13398 22.7849 7.19577C22.8437 7.25477 22.945 7.29247 23.1463 7.28872M23.1482 7.3887L23.1463 7.28872M23.1463 7.28872C23.3511 7.28481 23.5146 7.28477 23.6415 7.3013C23.7687 7.31786 23.8762 7.35293 23.9543 7.43339C24.0317 7.51321 24.0648 7.62205 24.0814 7.74902C24.0979 7.87622 24.0996 8.0396 24.0999 8.2425V8.24263C24.0999 8.63637 24.099 9.02986 24.0982 9.42323C24.0964 10.2095 24.0947 10.9952 24.0999 11.7813L24.0999 11.782C24.0999 11.9976 24.0804 12.1966 23.9765 12.349C23.8682 12.5078 23.6848 12.5942 23.4127 12.6262L23.4119 12.6263C23.0588 12.665 22.7324 12.833 22.4958 13.0979C22.2591 13.3629 22.1289 13.7061 22.1303 14.0614L22.1303 14.0648L22.1302 14.0648C22.1192 14.428 22.2445 14.7822 22.4815 15.0577C22.7185 15.3332 23.0499 15.51 23.4107 15.5535L23.4138 15.5538L23.4138 15.5539C23.6597 15.5913 23.8339 15.6737 23.9405 15.8232C24.0443 15.9688 24.0691 16.1584 24.0662 16.3732C24.0494 17.6087 24.0426 18.8434 24.0662 20.0778L24.0662 20.0778C24.0714 20.3554 24.0238 20.5713 23.8772 20.7131C23.7318 20.8537 23.5132 20.8977 23.2399 20.8966C20.318 20.8835 17.392 20.8846 14.4654 20.8858C13.629 20.8861 12.7925 20.8865 11.9561 20.8865H0.832504C0.641125 20.8865 0.486215 20.883 0.364299 20.8642C0.241824 20.8452 0.137999 20.8087 0.0612571 20.7308C-0.015274 20.6531 -0.0508992 20.5483 -0.0693788 20.4249C-0.0878092 20.3018 -0.0910915 20.1452 -0.0910915 19.9516C-0.0910915 19.6184 -0.0902239 19.2853 -0.0893566 18.9523C-0.0871032 18.0872 -0.0848513 17.2226 -0.0978211 16.3577L23.1463 7.28872ZM22.386 4.77661C22.3584 4.49854 22.2752 4.29858 22.105 4.19063C21.9397 4.08577 21.7209 4.08731 21.4738 4.13307L21.4736 4.13311C20.8273 4.2543 20.177 4.35026 19.527 4.44616C19.3658 4.46995 19.2046 4.49373 19.0435 4.51789C12.9178 5.43473 6.79093 6.34258 0.662935 7.24144L0.662856 7.24146C0.430726 7.2757 0.238411 7.34145 0.107384 7.47862C-0.0259187 7.61817 -0.0789584 7.81342 -0.0742215 8.0669C-0.0517755 9.31938 -0.0585042 10.5733 -0.0708619 11.827C-0.0731702 12.0453 -0.0427157 12.2326 0.0684026 12.3737C0.181039 12.5168 0.359835 12.5918 0.604056 12.6259L0.604053 12.626L0.605958 12.6262C0.958716 12.6686 1.28342 12.8397 1.51783 13.1067C1.75225 13.3737 1.87991 13.7178 1.87633 14.0731H1.87627L1.87636 14.0766C1.88564 14.4399 1.75813 14.7935 1.51907 15.0672C1.28001 15.3409 0.946865 15.5148 0.585632 15.5545L0.585624 15.5544L0.581957 15.5549C0.346848 15.5896 0.167414 15.6621 0.0512252 15.8026C-0.0645028 15.9426 -0.101326 16.1306 -0.0978218 16.3576L22.386 4.77661ZM22.386 4.77661L22.2864 4.78645L22.3859 4.77655C22.3859 4.77657 22.386 4.77659 22.386 4.77661ZM1.2179 8.10893C6.44037 8.11567 11.6632 8.11567 16.8864 8.10893C17.2179 8.10893 17.3819 8.21005 17.346 8.55836C17.3385 8.63327 17.341 8.70818 17.3435 8.78308C17.3447 8.82054 17.346 8.85799 17.346 8.89544L0.75947 8.55836C0.752729 8.20893 0.880819 8.10893 1.2179 8.10893ZM1.2179 8.10893V8.20893C1.21785 8.20893 1.21781 8.20893 1.21777 8.20893M1.2179 8.10893L1.21777 8.20893M17.6748 18.6955C17.5347 18.6974 17.4243 18.7342 17.3452 18.808C17.2669 18.8809 17.2327 18.9774 17.2188 19.0711C17.205 19.1641 17.2098 19.264 17.2175 19.3543C17.2206 19.3898 17.2239 19.4229 17.2271 19.4543C17.2325 19.5075 17.2374 19.5556 17.2393 19.6016C17.2467 19.8047 17.1997 19.8805 17.147 19.9171C17.0819 19.9623 16.9733 19.9763 16.7932 19.9763H16.778H16.7629H16.7477H16.7326H16.7175H16.7023H16.6872H16.672H16.6569H16.6418H16.6266H16.6115H16.5963H16.5812H16.566H16.5509H16.5358H16.5206H16.5055H16.4903H16.4752H16.46H16.4449H16.4298H16.4146H16.3995H16.3843H16.3692H16.3541H16.3389H16.3238H16.3086H16.2935H16.2783H16.2632H16.2481H16.2329H16.2178H16.2026H16.1875H16.1723H16.1572H16.1421H16.1269H16.1118H16.0966H16.0815H16.0664H16.0512H16.0361H16.0209H16.0058H15.9906H15.9755H15.9604H15.9452H15.9301H15.9149H15.8998H15.8846H15.8695H15.8544H15.8392H15.8241H15.8089H15.7938H15.7786H15.7635H15.7484H15.7332H15.7181H15.7029H15.6878H15.6727H15.6575H15.6424H15.6272H15.6121H15.5969H15.5818H15.5667H15.5515H15.5364H15.5212H15.5061H15.4909H15.4758H15.4607H15.4455H15.4304H15.4152H15.4001H15.385H15.3698H15.3547H15.3395H15.3244H15.3092H15.2941H15.279H15.2638H15.2487H15.2335H15.2184H15.2032H15.1881H15.173H15.1578H15.1427H15.1275H15.1124H15.0972H15.0821H15.067H15.0518H15.0367H15.0215H15.0064H14.9913H14.9761H14.961H14.9458H14.9307H14.9155H14.9004H14.8853H14.8701H14.855H14.8398H14.8247H14.8095H14.7944H14.7793H14.7641H14.749H14.7338H14.7187H14.7036H14.6884H14.6733H14.6581H14.643H14.6278H14.6127H14.5976H14.5824H14.5673H14.5521H14.537H14.5218H14.5067H14.4916H14.4764H14.4613H14.4461H14.431H14.4159H14.4007H14.3856H14.3704H14.3553H14.3401H14.325H14.3099H14.2947H14.2796H14.2644H14.2493H14.2341H14.219H14.2039H14.1887H14.1736H14.1584H14.1433H14.1281H14.113H14.0979H14.0827H14.0676H14.0524H14.0373H14.0222H14.007H13.9919H13.9767H13.9616H13.9464H13.9313H13.9162H13.901H13.8859H13.8707H13.8556H13.8404H13.8253H13.8102H13.795H13.7799H13.7647H13.7496H13.7345H13.7193H13.7042H13.689H13.6739H13.6587H13.6436H13.6285H13.6133H13.5982H13.583H13.5679H13.5527H13.5376H13.5225H13.5073H13.4922H13.477H13.4619H13.4467H13.4316H13.4165H13.4013H13.3862H13.371H13.3559H13.3408H13.3256H13.3105H13.2953H13.2802H13.265H13.2499H13.2348H13.2196H13.2045H13.1893H13.1742H13.159H13.1439H13.1288H13.1136H13.0985H13.0833H13.0682H13.0531H13.0379H13.0228H13.0076H12.9925H12.9773H12.9622H12.9471H12.9319H12.9168H12.9016H12.8865H12.8713H12.8562H12.8411H12.8259H12.8108H12.7956H12.7805H12.7654H12.7502H12.7351H12.7199H12.7048H12.6896H12.6745H12.6594H12.6442H12.6291H12.6139H12.5988H12.5836H12.5685H12.5534H12.5382H12.5231H12.5079H12.4928H12.4776H12.4625H12.4474H12.4322H12.4171H12.4019H12.3868H12.3717H12.3565H12.3414H12.3262H12.3111H12.2959H12.2808H12.2657H12.2505H12.2354H12.2202H12.2051H12.1899H12.1748H12.1597H12.1445H12.1294H12.1142H12.0991H12.084H12.0688H12.0537H12.0385H12.0234H12.0082H11.9931H11.978H11.9628H11.9477H11.9325H11.9174H11.9022H11.8871H11.872H11.8568H11.8417H11.8265H11.8114H11.7963H11.7811H11.766H11.7508H11.7357H11.7205H11.7054H11.6903H11.6751H11.66H11.6448H11.6297H11.6145H11.5994H11.5843H11.5691H11.554H11.5388H11.5237H11.5085H11.4934H11.4783H11.4631H11.448H11.4328H11.4177H11.4026H11.3874H11.3723H11.3571H11.342H11.3268H11.3117H11.2966H11.2814H11.2663H11.2511H11.236H11.2208H11.2057H11.1906H11.1754H11.1603H11.1451H11.13H11.1149H11.0997H11.0846H11.0694H11.0543H11.0391H11.024H11.0089H10.9937H10.9786H10.9634H10.9483H10.9331H10.918H10.9029H10.8877H10.8726H10.8574H10.8423H10.8271H10.812H10.7969H10.7817H10.7666H10.7514H10.7363H10.7212H10.706H10.6909H10.6757H10.6606H10.6454H10.6303H10.6152H10.6H10.5849H10.5697H10.5546H10.5394H10.5243H10.5092H10.494H10.4789H10.4637H10.4486H10.4335H10.4183H10.4032H10.388H10.3729H10.3577H10.3426H10.3275H10.3123H10.2972H10.282H10.2669H10.2517H10.2366H10.2215H10.2063H10.1912H10.176H10.1609H10.1458H10.1306H10.1155H10.1003H10.0852H10.07H10.0549H10.0398H10.0246H10.0095H9.99433H9.97919H9.96404H9.9489H9.93376H9.91862H9.90347H9.88833H9.87319H9.85805H9.84291H9.82776H9.81262H9.79748H9.78234H9.76719H9.75205H9.73691H9.72177H9.70663H9.69148H9.67634H9.6612H9.64606H9.63091H9.61577H9.60063H9.58549H9.57035H9.5552H9.54006H9.52492H9.50978H9.49464H9.47949H9.46435H9.44921H9.43407H9.41892H9.40378H9.38864H9.3735H9.35836H9.34321H9.32807H9.31293H9.29779H9.28264H9.2675H9.25236H9.23722H9.22208H9.20693H9.19179H9.17665H9.16151H9.14636H9.13122H9.11608H9.10094H9.0858H9.07065H9.05551H9.04037C8.43761 19.9763 7.83478 19.9758 7.23186 19.9752C5.28856 19.9734 3.34439 19.9715 1.39904 19.9887C1.16194 19.9904 1.03087 19.965 0.957007 19.9031C0.889974 19.8469 0.844497 19.7361 0.857101 19.4813C0.897525 18.6728 0.883642 17.8644 0.869827 17.0599C0.868213 16.9659 0.8666 16.872 0.865076 16.7781L0.86507 16.7778C0.862437 16.6414 0.883456 16.5638 0.922648 16.5097C0.96266 16.4544 1.03347 16.4069 1.1687 16.358C2.22404 15.9771 2.81013 15.1545 2.80778 14.1053C2.80544 13.0583 2.21108 12.2029 1.17728 11.8383C1.04669 11.7913 0.972366 11.7458 0.927972 11.6899C0.885434 11.6363 0.859573 11.5591 0.859471 11.4232C0.875204 10.4686 0.877451 9.51153 0.859453 8.55648L0.859452 8.55643C0.856219 8.38887 0.887057 8.31405 0.928117 8.27558C0.971472 8.23497 1.05282 8.20894 1.21777 8.20893M17.6748 18.6955C17.8248 18.693 17.9429 18.7263 18.0286 18.7985C18.1143 18.8707 18.1527 18.9693 18.169 19.0662C18.1852 19.162 18.1814 19.2657 18.1749 19.3595C18.1728 19.3897 18.1705 19.4185 18.1682 19.4461C18.1631 19.5089 18.1585 19.5655 18.1583 19.6183C18.1578 19.7774 18.1794 19.8595 18.2183 19.9047C18.2533 19.9454 18.3241 19.9796 18.4942 19.9775L18.4943 19.9775C19.9367 19.9606 21.3791 19.964 22.8211 19.9775C22.9808 19.9774 23.0656 19.9549 23.1127 19.9148C23.1549 19.8787 23.1896 19.8072 23.1865 19.6389C23.1685 18.6838 23.1718 17.7266 23.1864 16.7722C23.1863 16.6372 23.1637 16.56 23.1234 16.5059C23.0821 16.4506 23.0106 16.4037 22.8765 16.3559L22.8763 16.3559C22.3546 16.1686 21.9512 15.8765 21.6772 15.491C21.4033 15.1055 21.2636 14.6331 21.2584 14.093L21.2583 14.093C21.249 13.0645 21.8478 12.2031 22.8811 11.8252C23.0242 11.7722 23.1028 11.7166 23.1481 11.652C23.193 11.5879 23.2155 11.5 23.2134 11.3587C23.1988 10.4402 23.1932 9.52197 23.2134 8.60335L23.2134 8.60297C23.2183 8.41334 23.1862 8.32033 23.136 8.27053C23.0852 8.22017 22.9901 8.1882 22.7991 8.19094C21.8577 8.20466 20.9159 8.20216 19.9743 8.19966C19.6045 8.19867 19.2348 8.19769 18.8651 8.19769C18.6744 8.19769 18.5396 8.19784 18.4397 8.20906C18.3396 8.2203 18.2949 8.24095 18.2696 8.26544C18.2442 8.29009 18.2216 8.33484 18.2063 8.43632C18.1911 8.53737 18.1856 8.67469 18.1785 8.86876C18.1741 8.99753 18.1653 9.14818 18.1069 9.26881C18.0763 9.33198 18.0313 9.38908 17.9657 9.43098C17.9005 9.47262 17.8213 9.49522 17.7285 9.49981C17.6353 9.50442 17.5537 9.48934 17.4845 9.45351C17.4149 9.41742 17.3645 9.36369 17.3291 9.30185C17.261 9.18275 17.2466 9.03019 17.246 8.89587L17.246 8.89544C17.246 8.86489 17.2449 8.83119 17.2437 8.79571C17.2412 8.71714 17.2383 8.6298 17.2465 8.54841L17.2465 8.5481C17.2631 8.38737 17.2303 8.31547 17.1878 8.27799C17.1391 8.23503 17.0482 8.20894 16.8866 8.20893C11.6633 8.21567 6.44033 8.21567 1.21777 8.20893M17.6748 18.6955C17.6748 18.6955 17.6747 18.6955 17.6747 18.6955L17.6763 18.7954L17.675 18.6954C17.6749 18.6954 17.6749 18.6955 17.6748 18.6955ZM6.50114 7.3123H16.901C17.3135 7.3123 17.7265 7.31129 18.1398 7.31029C19.2427 7.30762 20.3471 7.30494 21.4463 7.3213M6.50114 7.3123L21.4464 7.3213C21.4463 7.3213 21.4463 7.3213 21.4463 7.3213M6.50114 7.3123C7.39193 7.18222 8.2837 7.0504 9.17649 6.91682M6.50114 7.3123L21.5578 5.41224M21.4463 7.3213C21.6559 7.32407 21.7381 7.28658 21.772 7.24371C21.8072 7.19912 21.8221 7.10975 21.7839 6.9173C21.7839 6.91726 21.7839 6.91723 21.7839 6.91719L21.4463 7.3213ZM21.5578 5.41224C21.539 5.25081 21.4994 5.1822 21.4544 5.15059C21.4072 5.11745 21.3232 5.10267 21.1578 5.13005L21.1415 5.0314L21.1579 5.13004C20.265 5.2787 19.3698 5.40694 18.4748 5.53514C18.2591 5.56604 18.0434 5.59694 17.8277 5.62812L17.8274 5.62816L17.8143 5.63003C17.5906 5.66169 17.4295 5.68451 17.31 5.71394C17.1878 5.74404 17.1282 5.77697 17.0941 5.81606C17.0609 5.85424 17.0383 5.91411 17.0302 6.03284C17.0222 6.152 17.0295 6.31125 17.0403 6.53554C17.0461 6.65681 17.037 6.78492 16.9811 6.89097C16.9212 7.00448 16.8153 7.07896 16.6609 7.10219C16.5061 7.12547 16.3812 7.08436 16.2911 6.99142C16.2075 6.90508 16.1643 6.78437 16.1417 6.66413C16.1095 6.5482 16.0906 6.42896 16.0854 6.30873L16.0851 6.30083L16.0854 6.30084C16.0929 6.09114 16.0466 6.00788 15.9919 5.97071C15.9281 5.92734 15.8123 5.91507 15.6087 5.94703C13.9895 6.2019 12.3676 6.44265 10.7465 6.68328C10.223 6.76098 9.69965 6.83867 9.17649 6.91682M21.5578 5.41224C21.5579 5.41238 21.5579 5.41252 21.5579 5.41265L21.6572 5.40106L21.5578 5.41224ZM9.17649 6.91682L9.16172 6.81791L9.17649 6.91682ZM22.4212 13.0313C22.1681 13.3147 22.0288 13.6818 22.0303 14.0617L22.4212 13.0313Z" fill="#333333" stroke="#333333" stroke-width="0.2"/>
<path id="Vector_2" d="M13.7933 15.2137L13.7934 15.2146C13.7933 15.3302 13.7695 15.4258 13.7198 15.5013C13.6695 15.5777 13.599 15.6239 13.5239 15.6513C13.4504 15.6782 13.3703 15.688 13.2951 15.6919C13.2399 15.6948 13.1819 15.6946 13.1284 15.6944C13.1099 15.6943 13.0918 15.6943 13.0746 15.6943L13.0744 15.6944C12.1546 15.6958 11.2327 15.6953 10.3103 15.6948C9.84893 15.6946 9.3874 15.6944 8.92593 15.6944H8.91803H8.91013H8.90223H8.89433H8.88643H8.87853H8.87063H8.86273H8.85483H8.84693H8.83903H8.83113H8.82323H8.81533H8.80743H8.79953H8.79163H8.78373H8.77583H8.76792H8.76002H8.75212H8.74422H8.73632H8.72842H8.72052H8.71262H8.70472H8.69682H8.68892H8.68102H8.67312H8.66522H8.65732H8.64942H8.64152H8.63362H8.62572H8.61782H8.60992H8.60202H8.59412H8.58622H8.57832H8.57042H8.56252H8.55462H8.54672H8.53882H8.53092H8.52302H8.51512H8.50722H8.49932H8.49142H8.48351H8.47561H8.46771H8.45981H8.45191H8.44401H8.43611H8.42821H8.42031H8.41241H8.40451H8.39661H8.38871H8.38081H8.37291H8.36501H8.35711H8.34921H8.34131H8.33341H8.32551H8.31761H8.30971H8.30181H8.29391H8.28601H8.27811H8.27021H8.26231H8.25441H8.24651H8.23861H8.23071H8.22281H8.21491H8.207H8.1991H8.1912H8.1833H8.1754H8.1675H8.1596H8.1517H8.1438H8.1359H8.128H8.1201H8.1122H8.1043H8.0964H8.0885H8.0806H8.0727H8.0648H8.0569H8.049H8.0411H8.0332H8.0253H8.0174H8.0095H8.0016H7.9937H7.9858H7.9779H7.97H7.9621H7.9542H7.9463H7.9384H7.9305H7.92259H7.91469H7.90679H7.89889H7.89099H7.88309H7.87519H7.86729H7.85939H7.85149H7.84359H7.83569H7.82779H7.81989H7.81199H7.80409H7.79619H7.78829H7.78039H7.77249H7.76459H7.75669H7.74879H7.74089H7.73299H7.72509H7.71719H7.70929H7.70139H7.69349H7.68559H7.67769H7.66979H7.66189H7.65399H7.64608H7.63818H7.63028H7.62238H7.61448H7.60658H7.59868H7.59078H7.58288H7.57498H7.56708H7.55918H7.55128H7.54338H7.53548H7.52758H7.51968H7.51178H7.50388H7.49598H7.48808H7.48018H7.47228H7.46438H7.45648H7.44858H7.44068H7.43278H7.42488H7.41698H7.40908H7.40118H7.39328H7.38538H7.37748H7.36958H7.36167H7.35377H7.34587H7.33797H7.33007H7.32217H7.31427H7.30637H7.29847H7.29057H7.28267H7.27477H7.26687H7.25897H7.25107H7.24317H7.23527H7.22737H7.21947H7.21157H7.20367H7.19577H7.18787H7.17997H7.17207H7.16417H7.15627H7.14837H7.14047H7.13257H7.12467H7.11677H7.10887H7.10097H7.09307H7.08516H7.07726H7.06936H7.06146H7.05356H7.04566H7.03776H7.02986H7.02196H7.01406H7.00616H6.99826H6.99036H6.98246H6.97456H6.96666H6.95876H6.95086H6.94296H6.93506H6.92716H6.91926H6.91136H6.90346H6.89556H6.88766H6.87976H6.87186H6.86396H6.85606H6.84816H6.84026H6.83236H6.82446H6.81656H6.80866H6.80075H6.79285H6.78495H6.77705H6.76915H6.76125H6.75335H6.74545H6.73755H6.72965H6.72175H6.71385H6.70595H6.69805H6.69015H6.68225H6.67435H6.66645H6.65855H6.65065H6.64275H6.63485H6.62695H6.61905H6.61115H6.60325H6.59535H6.58745H6.57955H6.57165H6.56375H6.55585H6.54795H6.54005H6.53215H6.52425H6.51634H6.50844H6.50054H6.49264H6.48474H6.47684H6.46894H6.46104H6.45314H6.44524H6.43734H6.42944H6.42154H6.41364H6.40574H6.39784H6.38994H6.38204H6.37414H6.36624H6.35834H6.35044H6.34254H6.33464H6.32674H6.31884H6.31094H6.30304H6.29514H6.28724H6.27934H6.27144H6.26354H6.25564H6.24774H6.23983H6.23193H6.22403H6.21613H6.20823H6.20033H6.19243H6.18453H6.17663H6.16873H6.16083H6.15293H6.14503H6.13713H6.12923H6.12133H6.11343H6.10553H6.09763H6.08973H6.08183H6.07393H6.06603H6.05813H6.05023H6.04233H6.03443H6.02653H6.01863H6.01073H6.00283H5.99493H5.98703H5.97913H5.97123H5.96332H5.95542H5.94752H5.93962H5.93172H5.92382H5.91592H5.90802H5.90012H5.89222H5.88432H5.87642H5.86852H5.86062H5.85272H5.84482H5.83692H5.82902H5.82112H5.81322H5.80532H5.79742H5.78952H5.78162H5.77372H5.76582H5.75792H5.75002H5.74212H5.73422H5.72632H5.71842H5.71052H5.70262H5.69472H5.68682H5.67891H5.67101H5.66311H5.65521H5.64731H5.63941H5.63151H5.62361H5.61571H5.60781H5.59991H5.59201H5.58411H5.57621H5.56831H5.56041H5.55251H5.54461H5.53671H5.52881H5.52091H5.51301H5.50511H5.49721H5.48931H5.48141H5.47351H5.46561H5.45771H5.44981H5.44191H5.43401H5.42611H5.41821H5.41031H5.40241H5.3945H5.3866H5.3787H5.3708H5.3629H5.355H5.3471H5.3392H5.3313H5.3234H5.3155H5.3076H5.2997H5.2918H5.2839H5.276H5.2681H5.2602H5.2523H5.2444H5.2365H5.2286H5.2207H5.2128H5.2049H5.197H5.1891H5.1812H5.1733H5.1654H5.1575H5.1496H5.1417H5.1338H5.1259H5.11799H5.11009H5.10219H5.09429H5.08639H5.07849H5.07059H5.06269H5.05479H5.04689H5.03899H5.03109H5.02319H5.01529H5.00739H4.99949H4.99159H4.98369H4.97579H4.96789H4.95999H4.95209H4.94419H4.93629H4.92839H4.92049H4.91259H4.90469H4.89679H4.88889H4.88099C4.8686 15.6944 4.85584 15.6944 4.84279 15.6944C4.78487 15.6947 4.72129 15.6949 4.6599 15.6911C4.58441 15.6865 4.50419 15.6755 4.43087 15.6474C4.35594 15.6187 4.28604 15.5712 4.23711 15.4937C4.18872 15.4171 4.16692 15.3209 4.16978 15.2054L13.7933 15.2137ZM13.7933 15.2137C13.7924 15.1076 13.7688 15.0189 13.721 14.9481C13.6729 14.8769 13.6063 14.8328 13.5356 14.8058C13.4122 14.7587 13.2599 14.7591 13.1391 14.7595C13.1293 14.7595 13.1196 14.7595 13.1102 14.7595H13.0941H13.078H13.0619H13.0458H13.0296H13.0135H12.9974H12.9813H12.9652H12.9491H12.933H12.9169H12.9007H12.8846H12.8685H12.8524H12.8363H12.8202H12.8041H12.788H12.7718H12.7557H12.7396H12.7235H12.7074H12.6913H12.6752H12.6591H12.6429H12.6268H12.6107H12.5946H12.5785H12.5624H12.5463H12.5302H12.514H12.4979H12.4818H12.4657H12.4496H12.4335H12.4174H12.4013H12.3852H12.369H12.3529H12.3368H12.3207H12.3046H12.2885H12.2724H12.2563H12.2401H12.224H12.2079H12.1918H12.1757H12.1596H12.1435H12.1274H12.1112H12.0951H12.079H12.0629H12.0468H12.0307H12.0146H11.9985H11.9823H11.9662H11.9501H11.934H11.9179H11.9018H11.8857H11.8696H11.8535H11.8373H11.8212H11.8051H11.789H11.7729H11.7568H11.7407H11.7246H11.7084H11.6923H11.6762H11.6601H11.644H11.6279H11.6118H11.5957H11.5795H11.5634H11.5473H11.5312H11.5151H11.499H11.4829H11.4668H11.4506H11.4345H11.4184H11.4023H11.3862H11.3701H11.354H11.3379H11.3217H11.3056H11.2895H11.2734H11.2573H11.2412H11.2251H11.209H11.1929H11.1767H11.1606H11.1445H11.1284H11.1123H11.0962H11.0801H11.064H11.0478H11.0317H11.0156H10.9995H10.9834H10.9673H10.9512H10.9351H10.9189H10.9028H10.8867H10.8706H10.8545H10.8384H10.8223H10.8062H10.79H10.7739H10.7578H10.7417H10.7256H10.7095H10.6934H10.6773H10.6611H10.645H10.6289H10.6128H10.5967H10.5806H10.5645H10.5484H10.5323H10.5161H10.5H10.4839H10.4678H10.4517H10.4356H10.4195H10.4034H10.3872H10.3711H10.355H10.3389H10.3228H10.3067H10.2906H10.2745H10.2583H10.2422H10.2261H10.21H10.1939H10.1778H10.1617H10.1456H10.1294H10.1133H10.0972H10.0811H10.065H10.0489H10.0328H10.0167H10.0005H9.98444H9.96832H9.95221H9.9361H9.91999H9.90388H9.88776H9.87165H9.85554H9.83943H9.82332H9.8072H9.79109H9.77498H9.75887H9.74275H9.72664H9.71053H9.69442H9.67831H9.66219H9.64608H9.62997H9.61386H9.59774H9.58163H9.56552H9.54941H9.5333H9.51718H9.50107H9.48496H9.46885H9.45273H9.43662H9.42051H9.4044H9.38829H9.37217H9.35606H9.33995H9.32384H9.30772H9.29161H9.2755H9.25939H9.24328H9.22716H9.21105H9.19494H9.17883H9.16272H9.1466H9.13049H9.11438H9.09827H9.08215H9.06604H9.04993H9.03382H9.01771H9.00159H8.98548H8.96937H8.95326H8.93714H8.92103H8.90492H8.88881H8.8727H8.85658H8.84047H8.82436H8.80825H8.79214H8.77602H8.75991H8.7438H8.72769H8.71157H8.69546H8.67935H8.66324H8.64713H8.63101H8.6149H8.59879H8.58268H8.56656H8.55045H8.53434H8.51823H8.50212H8.486H8.46989H8.45378H8.43767H8.42156H8.40544H8.38933H8.37322H8.35711H8.34099H8.32488H8.30877H8.29266H8.27655H8.26043H8.24432H8.22821H8.2121H8.19598H8.17987H8.16376H8.14765H8.13154H8.11542H8.09931H8.0832H8.06709H8.05097H8.03486H8.01875H8.00264H7.98653H7.97041H7.9543H7.93819H7.92208H7.90597H7.88985H7.87374H7.85763H7.84152H7.8254H7.80929H7.79318H7.77707H7.76096H7.74484H7.72873H7.71262H7.69651H7.68039H7.66428H7.64817H7.63206H7.61595H7.59983H7.58372H7.56761H7.5515H7.53538H7.51927H7.50316H7.48705H7.47094H7.45482H7.43871H7.4226H7.40649H7.39038H7.37426H7.35815H7.34204H7.32593H7.30981H7.2937H7.27759H7.26148H7.24537H7.22925H7.21314H7.19703H7.18092H7.1648H7.14869H7.13258H7.11647H7.10036H7.08424H7.06813H7.05202H7.03591H7.01979H7.00368H6.98757H6.97146H6.95535H6.93923H6.92312H6.90701H6.8909H6.87479H6.85867H6.84256H6.82645H6.81034H6.79422H6.77811H6.762H6.74589H6.72978H6.71366H6.69755H6.68144H6.66533H6.64921H6.6331H6.61699H6.60088H6.58477H6.56865H6.55254H6.53643H6.52032H6.5042H6.48809H6.47198H6.45587H6.43976H6.42364H6.40753H6.39142H6.37531H6.3592H6.34308H6.32697H6.31086H6.29475H6.27863H6.26252H6.24641H6.2303H6.21419H6.19807H6.18196H6.16585H6.14974H6.13362H6.11751H6.1014H6.08529H6.06918H6.05306H6.03695H6.02084H6.00473H5.98862H5.9725H5.95639H5.94028H5.92417H5.90805H5.89194H5.87583H5.85972H5.84361H5.82749H5.81138H5.79527H5.77916H5.76304H5.74693H5.73082H5.71471H5.6986H5.68248H5.66637H5.65026H5.63415H5.61803H5.60192H5.58581H5.5697H5.55359H5.53747H5.52136H5.50525H5.48914H5.47303H5.45691H5.4408H5.42469H5.40858H5.39246H5.37635H5.36024H5.34413H5.32802H5.3119H5.29579H5.27968H5.26357H5.24745H5.23134H5.21523H5.19912H5.18301H5.16689H5.15078H5.13467H5.11856H5.10244H5.08633H5.07022H5.05411H5.038H5.02188H5.00577H4.98966H4.97355H4.95744H4.94132H4.92521H4.9091H4.89299H4.87687H4.86076C4.84892 14.7595 4.83666 14.7595 4.82407 14.7594M13.7933 15.2137L4.82407 14.7594M4.82407 14.7594C4.70559 14.7589 4.5569 14.7582 4.43545 14.8023M4.82407 14.7594L4.43545 14.8023M4.43545 14.8023C4.3643 14.8282 4.2967 14.8709 4.24708 14.9412M4.43545 14.8023L4.24708 14.9412M4.24708 14.9412C4.1977 15.0111 4.17239 15.0993 4.16978 15.2054L4.24708 14.9412Z" fill="#333333" stroke="#333333" stroke-width="0.2"/>
<path id="Vector_3" d="M4.74974 17.9325L4.74974 17.9325H4.75298H4.75331H4.75364H4.75396H4.75429H4.75462H4.75495H4.75528H4.75561H4.75594H4.75627H4.7566H4.75693H4.75726H4.75759H4.75791H4.75824H4.75857H4.7589H4.75923H4.75956H4.75989H4.76022H4.76055H4.76088H4.76121H4.76154H4.76186H4.76219H4.76252H4.76285H4.76318H4.76351H4.76384H4.76417H4.7645H4.76483H4.76516H4.76549H4.76582H4.76614H4.76647H4.7668H4.76713H4.76746H4.76779H4.76812H4.76845H4.76878H4.76911H4.76944H4.76977H4.77009H4.77042H4.77075H4.77108H4.77141H4.77174H4.77207H4.7724H4.77273H4.77306H4.77339H4.77372H4.77404H4.77437H4.7747H4.77503H4.77536H4.77569H4.77602H4.77635H4.77668H4.77701H4.77734H4.77767H4.77799H4.77832H4.77865H4.77898H4.77931H4.77964H4.77997H4.7803H4.78063H4.78096H4.78129H4.78162H4.78194H4.78227H4.7826H4.78293H4.78326H4.78359H4.78392H4.78425H4.78458H4.78491H4.78524H4.78557H4.78589H4.78622H4.78655H4.78688H4.78721H4.78754H4.78787H4.7882H4.78853H4.78886H4.78919H4.78952H4.78985H4.79017H4.7905H4.79083H4.79116H4.79149H4.79182H4.79215H4.79248H4.79281H4.79314H4.79347H4.7938H4.79412H4.79445H4.79478H4.79511H4.79544H4.79577H4.7961H4.79643H4.79676H4.79709H4.79742H4.79775H4.79807H4.7984H4.79873H4.79906H4.79939H4.79972H4.80005H4.80038H4.80071H4.80104H4.80137H4.8017H4.80202H4.80235H4.80268H4.80301H4.80334H4.80367H4.804H4.80433H4.80466H4.80499H4.80532H4.80565H4.80597H4.8063H4.80663H4.80696H4.80729H4.80762H4.80795H4.80828H4.80861H4.80894H4.80927H4.8096H4.80993H4.81025H4.81058H4.81091H4.81124H4.81157H4.8119H4.81223H4.81256H4.81289H4.81322H4.81355H4.81388H4.8142H4.81453H4.81486H4.81519H4.81552H4.81585H4.81618H4.81651H4.81684H4.81717H4.8175H4.81783H4.81815H4.81848H4.81881H4.81914H4.81947H4.8198H4.82013H4.82046H4.82079H4.82112H4.82145H4.82178H4.8221H4.82243H4.82276H4.82309H4.82342H4.82375H4.82408H4.82441H4.82474H4.82507H4.8254H4.82573H4.82605H4.82638H4.82671H4.82704H4.82737H4.8277H4.82803H4.82836H4.82869H4.82902H4.82935H4.82968H4.83H4.83033H4.83066H4.83099H4.83132H4.83165H4.83198H4.83231H4.83264H4.83297H4.8333H4.83363H4.83396H4.83428H4.83461H4.83494H4.83527H4.8356H4.83593H4.83626H4.83659H4.83692H4.83725H4.83758H4.83791H4.83823H4.83856H4.83889H4.83922H4.83955H4.83988H4.84021H4.84054H4.84087H4.8412H4.84153H4.84186H4.84218H4.84251H4.84284H4.84317H4.8435H4.84383H4.84416H4.84449H4.84482H4.84515H4.84548H4.84581H4.84613H4.84646H4.84679H4.84712H4.84745H4.84778H4.84811H4.84844H4.84877H4.8491H4.84943H4.84976H4.85008H4.85041H4.85074H4.85107H4.8514H4.85173H4.85206H4.85239H4.85272H4.85305H4.85338H4.85371H4.85403H4.85436H4.85469H4.85502H4.85535H4.85568H4.85601H4.85634H4.85667H4.857H4.85733H4.85766H4.85799H4.85831H4.85864H4.85897H4.8593H4.85963H4.85996H4.86029H4.86062H4.86095H4.86128H4.86161H4.86194H4.86226H4.86259H4.86292H4.86325H4.86358H4.86391H4.86424H4.86457H4.8649H4.86523H4.86556H4.86589H4.86621H4.86654H4.86687H4.8672H4.86753H4.86786H4.86819H4.86852H4.86885H4.86918H4.86951H4.86984H4.87016H4.87049H4.87082H4.87115H4.87148H4.87181H4.87214H4.87247H4.8728H4.87313H4.87346H4.87379H4.87411H4.87444H4.87477H4.8751H4.87543H4.87576H4.87609H4.87642H4.87675H4.87708H4.87741H4.87774H4.87806H4.87839H4.87872H4.87905H4.87938H4.87971H4.88004H4.88037H4.8807H4.88103H4.88136H4.88169H4.88202H4.88234H4.88267H4.883H4.88333H4.88366H4.88399H4.88432H4.88465H4.88498H4.88531H4.88564H4.88597H4.88629H4.88662H4.88695H4.88728H4.88761H4.88794H4.88827H4.8886H4.88893H4.88926H4.88959H4.88992H4.89024H4.89057H4.8909H4.89123H4.89156H4.89189H4.89222H4.89255H4.89288H4.89321H4.89354H4.89387H4.89419H4.89452H4.89485H4.89518H4.89551H4.89584H4.89617H4.8965H4.89683H4.89716H4.89749H4.89782H4.89814H4.89847H4.8988H4.89913H4.89946H4.89979H4.90012H4.90045H4.90078H4.90111H4.90144H4.90177H4.90209H4.90242H4.90275H4.90308H4.90341H4.90374H4.90407H4.9044H4.90473H4.90506H4.90539H4.90572H4.90605H4.90637H4.9067H4.90703H4.90736H4.90769H4.90802H4.90835H4.90868H4.90901H4.90934H4.90967H4.91H4.91032H4.91065H4.91098H4.91131H4.91164H4.91197H4.9123H4.91263H4.91296H4.91329H4.91362H4.91395H4.91427H4.9146H4.91493H4.91526H4.91559H4.91592H4.91625H4.91658H4.91691H4.91724H4.91757H4.9179H4.91822H4.91855H4.91888H4.91921H4.91954H4.91987H4.9202H4.92053H4.92086H4.92119H4.92152H4.93742H4.95332H4.96922H4.98512H5.00102H5.01693H5.03283H5.04873H5.06463H5.08053H5.09643H5.11233H5.12824H5.14414H5.16004H5.17594H5.19184H5.20774H5.22365H5.23955H5.25545H5.27135H5.28725H5.30315H5.31905H5.33496H5.35086H5.36676H5.38266H5.39856H5.41446H5.43036H5.44627H5.46217H5.47807H5.49397H5.50987H5.52577H5.54168H5.55758H5.57348H5.58938H5.60528H5.62118H5.63708H5.65299H5.66889H5.68479H5.70069H5.71659H5.73249H5.74839H5.7643H5.7802H5.7961H5.812H5.8279H5.8438H5.85971H5.87561H5.89151H5.90741H5.92331H5.93921H5.95511H5.97102H5.98692H6.00282H6.01872H6.03462H6.05052H6.06643H6.08233H6.09823H6.11413H6.13003H6.14593H6.16183H6.17774H6.19364H6.20954H6.22544H6.24134H6.25724H6.27314H6.28905H6.30495H6.32085H6.33675H6.35265H6.36855H6.38446H6.40036H6.41626H6.43216H6.44806H6.46396H6.47986H6.49577H6.51167H6.52757H6.54347H6.55937H6.57527H6.59118H6.60708H6.62298H6.63888H6.65478H6.67068H6.68658H6.70249H6.71839H6.73429H6.75019H6.76609H6.78199H6.79789H6.8138H6.8297H6.8456H6.8615H6.8774H6.8933H6.90921H6.92511H6.94101H6.95691H6.97281H6.98871H7.00461H7.02052H7.03642H7.05232H7.06822H7.08412H7.10002H7.11592H7.13183H7.14773H7.16363H7.17953H7.19543H7.21133H7.22724H7.24314H7.25904H7.27494H7.29084H7.30674H7.32264H7.33855H7.35445H7.37035H7.38625H7.40215H7.41805H7.43395H7.44986H7.46576H7.48166H7.49756H7.51346H7.52936H7.54527H7.56117H7.57707H7.59297H7.60887H7.62477H7.64067H7.65658H7.67248H7.68838H7.70428H7.72018H7.73608H7.75199H7.76789H7.78379H7.79969H7.81559H7.83149H7.84739H7.8633H7.8792H7.8951H7.911H7.9269H7.9428H7.9587H7.97461H7.99051H8.00641H8.02231H8.03821H8.05411H8.07002H8.08592H8.10182H8.11772H8.13362H8.14952H8.16542H8.18133H8.19723H8.21313H8.22903H8.24493H8.26083H8.27674H8.29264H8.30854H8.32444H8.34034H8.35624H8.37214H8.38805H8.40395H8.41985H8.43575H8.45165H8.46755H8.48345H8.49936H8.51526H8.53116H8.54706H8.56296H8.57886H8.59477H8.61067H8.62657H8.64247H8.65837H8.67427H8.69017H8.70608H8.72198H8.73788H8.75378H8.76968H8.78558H8.80149H8.81739H8.83329H8.84919H8.86509H8.88099H8.89689H8.9128H8.9287H8.9446H8.9605H8.9764H8.9923H9.0082H9.02411H9.04001H9.05591H9.07181H9.08771H9.10361H9.11951H9.13542H9.15132H9.16722H9.18312H9.19902H9.21492H9.23083H9.24673H9.26263H9.27853H9.29443H9.31033H9.32623H9.34214H9.35804H9.37394H9.38984H9.40574H9.42164H9.43755H9.45345H9.46935H9.48525H9.50115H9.51705H9.53295H9.54886H9.56476H9.58066H9.59656H9.61246H9.62836H9.64426H9.66017H9.67607H9.69197H9.70787H9.72377H9.73967H9.75558H9.77148H9.78738H9.80328H9.81918H9.83508H9.85098H9.86689H9.88279H9.89869H9.91459H9.93049H9.94639H9.9623H9.9782H9.9941H10.01H10.0259H10.0418H10.0577H10.0736H10.0895H10.1054H10.1213H10.1372H10.1531H10.169H10.1849H10.2008H10.2167H10.2326H10.2485H10.2644H10.2803H10.2962H10.3121H10.328H10.3439H10.3598H10.3757H10.3916H10.4075H10.4234H10.4393H10.4552H10.4711H10.487H10.5029H10.5188H10.5347H10.5507H10.5666H10.5825H10.5984H10.6143H10.6302H10.6461H10.662H10.6779H10.6938H10.7097H10.7256H10.7415H10.7574H10.7733H10.7892H10.8051H10.821H10.8369H10.8528H10.8687H10.8846H10.9005H10.9164H10.9323H10.9482H10.9641H10.98H10.9959H11.0118H11.0277H11.0436H11.0595H11.0754H11.0913H11.1072H11.1231H11.139H11.1549H11.1708H11.1867H11.2026H11.2185H11.2344H11.2503H11.2662H11.2821H11.298H11.3139H11.3298H11.3457H11.3616H11.3775H11.3934H11.4093H11.4252H11.4411H11.457H11.4729H11.4888H11.5047H11.5206H11.5365H11.5524H11.5683H11.5842H11.6002H11.6161H11.632H11.6479H11.6638H11.6797H11.6956H11.7115H11.7274H11.7433H11.7592H11.7751H11.791H11.8069H11.8228H11.8387H11.8546H11.8705H11.8864H11.9023H11.9182H11.9341H11.95H11.9659H11.9818H11.9977H12.0136H12.0295H12.0454H12.0613H12.0772H12.0931H12.109H12.1249H12.1408H12.1567H12.1726H12.1885H12.2044H12.2203H12.2362H12.2521H12.268H12.2839H12.2998H12.3157H12.3316H12.3475H12.3634H12.3793H12.3952H12.4111H12.427H12.4429H12.4588H12.4747H12.4906H12.5065H12.5224H12.5383H12.5542H12.5701H12.586H12.6019H12.6178H12.6337H12.6497H12.6656H12.6815H12.6974H12.7133H12.7292H12.7451H12.761H12.7769H12.7928H12.8087H12.8246H12.8405H12.8564H12.8723H12.8882H12.9041H12.92H12.9359H12.9518H12.9677H12.9836H12.9995H13.0154H13.0313H13.0472H13.0631C13.0855 17.9325 13.1104 17.9329 13.1364 17.9333C13.1835 17.934 13.2342 17.9347 13.2812 17.9335C13.3566 17.9314 13.4377 17.9242 13.5128 17.9003C13.5894 17.8759 13.663 17.8331 13.7172 17.7586C13.771 17.6847 13.7984 17.5895 13.8013 17.4732C13.8041 17.3572 13.7818 17.2609 13.7319 17.1848C13.6815 17.108 13.6098 17.0625 13.5341 17.0359C13.4601 17.0099 13.3792 17.0009 13.3037 16.9976C13.2498 16.9953 13.1932 16.9958 13.1411 16.9962C13.121 16.9964 13.1016 16.9966 13.0833 16.9966H13.0754H13.0675H13.0596H13.0517H13.0438H13.0359H13.028H13.0201H13.0122H13.0043H12.9964H12.9885H12.9806H12.9727H12.9648H12.9569H12.949H12.9411H12.9332H12.9253H12.9174H12.9095H12.9016H12.8937H12.8858H12.8779H12.87H12.8621H12.8542H12.8463H12.8384H12.8305H12.8226H12.8147H12.8068H12.7989H12.791H12.7831H12.7752H12.7673H12.7594H12.7515H12.7436H12.7357H12.7278H12.7199H12.712H12.7041H12.6962H12.6883H12.6804H12.6725H12.6646H12.6567H12.6488H12.6409H12.633H12.6251H12.6172H12.6093H12.6014H12.5935H12.5856H12.5777H12.5698H12.5619H12.554H12.5461H12.5382H12.5303H12.5224H12.5145H12.5066H12.4987H12.4908H12.4829H12.475H12.4671H12.4592H12.4513H12.4434H12.4355H12.4276H12.4197H12.4118H12.4039H12.396H12.3881H12.3802H12.3723H12.3644H12.3565H12.3486H12.3407H12.3328H12.3249H12.317H12.3091H12.3012H12.2933H12.2854H12.2775H12.2696H12.2617H12.2538H12.2459H12.238H12.2301H12.2222H12.2143H12.2064H12.1985H12.1906H12.1827H12.1748H12.1669H12.159H12.1511H12.1432H12.1353H12.1274H12.1195H12.1116H12.1037H12.0958H12.0879H12.08H12.0721H12.0642H12.0563H12.0484H12.0405H12.0326H12.0247H12.0168H12.0089H12.001H11.9931H11.9852H11.9773H11.9694H11.9615H11.9536H11.9457H11.9378H11.9299H11.922H11.9141H11.9062H11.8983H11.8904H11.8825H11.8746H11.8667H11.8588H11.8509H11.843H11.8351H11.8272H11.8193H11.8114H11.8035H11.7956H11.7877H11.7798H11.7719H11.764H11.7561H11.7482H11.7403H11.7324H11.7245H11.7166H11.7087H11.7008H11.6929H11.685H11.6771H11.6692H11.6613H11.6534H11.6455H11.6376H11.6297H11.6218H11.6139H11.606H11.5981H11.5902H11.5823H11.5744H11.5665H11.5586H11.5507H11.5428H11.5349H11.527H11.5191H11.5112H11.5033H11.4954H11.4875H11.4796H11.4717H11.4638H11.4559H11.448H11.4401H11.4322H11.4243H11.4164H11.4085H11.4006H11.3927H11.3848H11.3769H11.369H11.3611H11.3532H11.3453H11.3374H11.3295H11.3216H11.3137H11.3058H11.2979H11.29H11.2821H11.2741H11.2662H11.2583H11.2504H11.2425H11.2346H11.2267H11.2188H11.2109H11.203H11.1951H11.1872H11.1793H11.1714H11.1635H11.1556H11.1477H11.1398H11.1319H11.124H11.1161H11.1082H11.1003H11.0924H11.0845H11.0766H11.0687H11.0608H11.0529H11.045H11.0371H11.0292H11.0213H11.0134H11.0055H10.9976H10.9897H10.9818H10.9739H10.966H10.9581H10.9502H10.9423H10.9344H10.9265H10.9186H10.9107H10.9028H10.8949H10.887H10.8791H10.8712H10.8633H10.8554H10.8475H10.8396H10.8317H10.8238H10.8159H10.808H10.8001H10.7922H10.7843H10.7764H10.7685H10.7606H10.7527H10.7448H10.7369H10.729H10.7211H10.7132H10.7053H10.6974H10.6895H10.6816H10.6737H10.6658H10.6579H10.65H10.6421H10.6342H10.6263H10.6184H10.6105H10.6026H10.5947H10.5868H10.5789H10.571H10.5631H10.5552H10.5473H10.5394H10.5315H10.5236H10.5157H10.5078H10.4999H10.492H10.4841H10.4762H10.4683H10.4604H10.4525H10.4446H10.4367H10.4288H10.4209H10.413H10.4051H10.3972H10.3893H10.3814H10.3735H10.3656H10.3577H10.3498H10.3419H10.334H10.3261H10.3182H10.3103H10.3024H10.2945H10.2866H10.2787H10.2708H10.2629H10.255H10.2471H10.2392H10.2313H10.2234H10.2155H10.2076H10.1997H10.1918H10.1839H10.176H10.1681H10.1602H10.1523H10.1444H10.1365H10.1286H10.1207H10.1128H10.1049H10.097H10.0891H10.0812H10.0733H10.0654H10.0575H10.0496H10.0417H10.0338H10.0259H10.018H10.0101H10.0022H9.9943H9.9864H9.9785H9.9706H9.9627H9.9548H9.9469H9.939H9.9311H9.9232H9.9153H9.9074H9.8995H9.8916H9.8837H9.8758H9.8679H9.86H9.8521H9.8442H9.8363H9.8284H9.8205H9.8126H9.8047H9.7968H9.7889H9.781H9.7731H9.7652H9.7573H9.7494H9.7415H9.7336H9.7257H9.71779H9.70989H9.70199H9.69409H9.68619H9.67829H9.67039H9.66249H9.65459H9.64669H9.63879H9.63089H9.62299H9.61509H9.60719H9.59929H9.59139H9.58349H9.57559H9.56769H9.55979H9.55189H9.54399H9.53609H9.52819H9.52029H9.51239H9.50449H9.49659H9.48869H9.48079H9.47289H9.46499H9.45709H9.44919H9.44129H9.43338H9.42548H9.41758H9.40968H9.40178H9.39388H9.38598H9.37808H9.37018H9.36228H9.35438H9.34648H9.33858H9.33068H9.32278H9.31488H9.30698H9.29908H9.29118H9.28328H9.27538H9.26748H9.25958H9.25168H9.24378H9.23588H9.22798H9.22008H9.21218H9.20428H9.19638H9.18848H9.18058H9.17268H9.16477H9.15687H9.14897H9.14107H9.13317H9.12527H9.11737H9.10947H9.10157H9.09367H9.08577H9.07787H9.06997H9.06207H9.05417H9.04627H9.03837H4.7732C4.63806 16.9966 4.48614 17.0092 4.36764 17.0781C4.30591 17.1139 4.25313 17.165 4.21755 17.2353C4.18237 17.3048 4.16697 17.3872 4.16988 17.4817L4.16988 17.4817C4.17539 17.6586 4.25268 17.7778 4.37389 17.8476C4.4857 17.9119 4.62534 17.9284 4.74974 17.9325Z" fill="#333333" stroke="#333333" stroke-width="0.2"/>
<path id="Vector_4" d="M4.17605 12.9554L4.17605 12.9554C4.17129 13.0731 4.19214 13.1709 4.24125 13.2481C4.291 13.3264 4.36274 13.3726 4.43857 13.3994C4.51264 13.4256 4.59353 13.4344 4.66862 13.4375C4.72081 13.4396 4.77579 13.4391 4.8261 13.4385C4.84708 13.4383 4.86726 13.4381 4.88608 13.4381H4.89394H4.90179H4.90965H4.9175H4.92536H4.93321H4.94107H4.94892H4.95678H4.96464H4.97249H4.98035H4.9882H4.99606H5.00392H5.01177H5.01963H5.02749H5.03535H5.0432H5.05106H5.05892H5.06678H5.07464H5.08249H5.09035H5.09821H5.10607H5.11393H5.12179H5.12965H5.13751H5.14537H5.15323H5.16109H5.16895H5.17681H5.18467H5.19253H5.20039H5.20825H5.21612H5.22398H5.23184H5.2397H5.24756H5.25542H5.26329H5.27115H5.27901H5.28688H5.29474H5.3026H5.31046H5.31833H5.32619H5.33406H5.34192H5.34978H5.35765H5.36551H5.37338H5.38124H5.38911H5.39697H5.40484H5.4127H5.42057H5.42843H5.4363H5.44417H5.45203H5.4599H5.46776H5.47563H5.4835H5.49136H5.49923H5.5071H5.51497H5.52283H5.5307H5.53857H5.54644H5.55431H5.56217H5.57004H5.57791H5.58578H5.59365H5.60152H5.60939H5.61726H5.62513H5.633H5.64087H5.64874H5.65661H5.66448H5.67235H5.68022H5.68809H5.69596H5.70383H5.7117H5.71957H5.72744H5.73531H5.74319H5.75106H5.75893H5.7668H5.77467H5.78255H5.79042H5.79829H5.80616H5.81404H5.82191H5.82978H5.83766H5.84553H5.8534H5.86128H5.86915H5.87703H5.8849H5.89277H5.90065H5.90852H5.9164H5.92427H5.93215H5.94002H5.9479H5.95577H5.96365H5.97152H5.9794H5.98728H5.99515H6.00303H6.0109H6.01878H6.02666H6.03453H6.04241H6.05029H6.05816H6.06604H6.07392H6.0818H6.08967H6.09755H6.10543H6.11331H6.12119H6.12906H6.13694H6.14482H6.1527H6.16058H6.16846H6.17634H6.18421H6.19209H6.19997H6.20785H6.21573H6.22361H6.23149H6.23937H6.24725H6.25513H6.26301H6.27089H6.27877H6.28665H6.29453H6.30241H6.3103H6.31818H6.32606H6.33394H6.34182H6.3497H6.35758H6.36547H6.37335H6.38123H6.38911H6.39699H6.40488H6.41276H6.42064H6.42852H6.43641H6.44429H6.45217H6.46006H6.46794H6.47582H6.48371H6.49159H6.49947H6.50736H6.51524H6.52312H6.53101H6.53889H6.54678H6.55466H6.56255H6.57043H6.57832H6.5862H6.59408H6.60197H6.60985H6.61774H6.62563H6.63351H6.6414H6.64928H6.65717H6.66505H6.67294H6.68083H6.68871H6.6966H6.70448H6.71237H6.72026H6.72814H6.73603H6.74392H6.7518H6.75969H6.76758H6.77547H6.78335H6.79124H6.79913H6.80702H6.8149H6.82279H6.83068H6.83857H6.84646H6.85434H6.86223H6.87012H6.87801H6.8859H6.89379H6.90167H6.90956H6.91745H6.92534H6.93323H6.94112H6.94901H6.9569H6.96479H6.97268H6.98057H6.98846H6.99635H7.00424H7.01213H7.02002H7.02791H7.0358H7.04369H7.05158H7.05947H7.06736H7.07525H7.08314H7.09103H7.09892H7.10681H7.1147H7.12259H7.13048H7.13838H7.14627H7.15416H7.16205H7.16994H7.17783H7.18573H7.19362H7.20151H7.2094H7.21729H7.22519H7.23308H7.24097H7.24886H7.25675H7.26465H7.27254H7.28043H7.28832H7.29622H7.30411H7.312H7.3199H7.32779H7.33568H7.34358H7.35147H7.35936H7.36726H7.37515H7.38304H7.39094H7.39883H7.40672H7.41462H7.42251H7.43041H7.4383H7.44619H7.45409H7.46198H7.46988H7.47777H7.48567H7.49356H7.50145H7.50935H7.51724H7.52514H7.53303H7.54093H7.54882H7.55672H7.56461H7.57251H7.5804H7.5883H7.59619H7.60409H7.61198H7.61988H7.62778H7.63567H7.64357H7.65146H7.65936H7.66725H7.67515H7.68305H7.69094H7.69884H7.70673H7.71463H7.72253H7.73042H7.73832H7.74622H7.75411H7.76201H7.7699H7.7778H7.7857H7.79359H7.80149H7.80939H7.81728H7.82518H7.83308H7.84098H7.84887H7.85677H7.86467H7.87256H7.88046H7.88836H7.89626H7.90415H7.91205H7.91995H7.92785H7.93574H7.94364H7.95154H7.95944H7.96733H7.97523H7.98313H7.99103H7.99892H8.00682H8.01472H8.02262H8.03052H8.03841H8.04631H8.05421H8.06211H8.07001H8.0779H8.0858H8.0937H8.1016H8.1095H8.1174H8.1253H8.13319H8.14109H8.14899H8.15689H8.16479H8.17269H8.18059H8.18848H8.19638H8.20428H8.21218H8.22008H8.22798H8.23588H8.24378H8.25168H8.25957H8.26747H8.27537H8.28327H8.29117H8.29907H8.30697H8.31487H8.32277H8.33067H8.33857H8.34647H8.35436H8.36226H8.37016H8.37806H8.38596H8.39386H8.40176H8.40966H8.41756H8.42546H8.43336H8.44126H8.44916H8.45706H8.46496H8.47286H8.48076H8.48866H8.49656H8.50446H8.51236H8.52026H8.52816H8.53606H8.54396H8.55186H8.55976H8.56766H8.57556H8.58346H8.59136H8.59926H8.60716H8.61506H8.62296H8.63086H8.63876H8.64666H8.65456H8.66246H8.67036H8.67826H8.68616H8.69406H8.70196H8.70986H8.71776H8.72566H8.73356H8.74146H8.74936H8.75726H8.76516H8.77306H8.78096H8.78886H8.79676H8.80466H8.81256H8.82046H8.82836H8.83626H8.84416H8.85206H8.85996H8.86786H8.87576H8.88366H8.89156H8.89946H8.90736H8.91526H8.92316C10.3253 13.4381 11.7263 13.4404 13.1285 13.4437L13.1292 13.4437C13.1338 13.4437 13.1385 13.4437 13.1432 13.4437C13.2665 13.4432 13.4259 13.4426 13.5536 13.3902C13.6236 13.3614 13.6888 13.3155 13.7347 13.243C13.7803 13.171 13.801 13.0817 13.7984 12.9761C13.7958 12.8708 13.7714 12.7829 13.7237 12.7127C13.6757 12.642 13.6099 12.5977 13.5397 12.5704C13.4151 12.5218 13.2618 12.5221 13.1395 12.5224C13.1313 12.5224 13.1232 12.5224 13.1153 12.5224H4.8726C4.85857 12.5224 4.84389 12.5223 4.8287 12.5222C4.71371 12.5214 4.56922 12.5204 4.45015 12.561C4.37884 12.5853 4.31014 12.6262 4.25883 12.6947C4.20758 12.7631 4.18032 12.8502 4.17605 12.9554Z" fill="#333333" stroke="#333333" stroke-width="0.2"/>
<path id="Vector_5" d="M4.27499 10.7078L4.17525 10.7007C4.16815 10.7998 4.18182 10.8855 4.2187 10.9567C4.25612 11.029 4.31308 11.078 4.37736 11.1103C4.49879 11.1712 4.65441 11.1752 4.77836 11.1752H4.78624H4.79411H4.80199H4.80986H4.81773H4.82561H4.83348H4.84136H4.84923H4.8571H4.86498H4.87285H4.88073H4.8886H4.89647H4.90435H4.91222H4.9201H4.92797H4.93584H4.94372H4.95159H4.95947H4.96734H4.97521H4.98309H4.99096H4.99884H5.00671H5.01458H5.02246H5.03033H5.03821H5.04608H5.05395H5.06183H5.0697H5.07757H5.08545H5.09332H5.1012H5.10907H5.11694H5.12482H5.13269H5.14057H5.14844H5.15631H5.16419H5.17206H5.17994H5.18781H5.19568H5.20356H5.21143H5.21931H5.22718H5.23505H5.24293H5.2508H5.25868H5.26655H5.27442H5.2823H5.29017H5.29805H5.30592H5.31379H5.32167H5.32954H5.33742H5.34529H5.35316H5.36104H5.36891H5.37678H5.38466H5.39253H5.40041H5.40828H5.41615H5.42403H5.4319H5.43978H5.44765H5.45552H5.4634H5.47127H5.47915H5.48702H5.49489H5.50277H5.51064H5.51852H5.52639H5.53426H5.54214H5.55001H5.55789H5.56576H5.57363H5.58151H5.58938H5.59726H5.60513H5.613H5.62088H5.62875H5.63663H5.6445H5.65237H5.66025H5.66812H5.67599H5.68387H5.69174H5.69962H5.70749H5.71536H5.72324H5.73111H5.73899H5.74686H5.75473H5.76261H5.77048H5.77836H5.78623H5.7941H5.80198H5.80985H5.81773H5.8256H5.83347H5.84135H5.84922H5.8571H5.86497H5.87284H5.88072H5.88859H5.89647H5.90434H5.91221H5.92009H5.92796H5.93584H5.94371H5.95158H5.95946H5.96733H5.9752H5.98308H5.99095H5.99883H6.0067H6.01457H6.02245H6.03032H6.0382H6.04607H6.05394H6.06182H6.06969H6.07757H6.08544H6.09331H6.10119H6.10906H6.11694H6.12481H6.13268H6.14056H6.14843H6.15631H6.16418H6.17205H6.17993H6.1878H6.19568H6.20355H6.21142H6.2193H6.22717H6.23504H6.24292H6.25079H6.25867H6.26654H6.27441H6.28229H6.29016H6.29804H6.30591H6.31378H6.32166H6.32953H6.33741H6.34528H6.35315H6.36103H6.3689H6.37678H6.38465H6.39252H6.4004H6.40827H6.41615H6.42402H6.43189H6.43977H6.44764H6.45552H6.46339H6.47126H6.47914H6.48701H6.49489H6.50276H6.51063H6.51851H6.52638H6.53425H6.54213H6.55H6.55788H6.56575H6.57362H6.5815H6.58937H6.59725H6.60512H6.61299H6.62087H6.62874H6.63662H6.64449H6.65236H6.66024H6.66811H6.67599H6.68386H6.69173H6.69961H6.70748H6.71536H6.72323H6.7311H6.73898H6.74685H6.75473H6.7626H6.77047H6.77835H6.78622H6.7941H6.80197H6.80984H6.81772H6.82559H6.83346H6.84134H6.84921H6.85709H6.86496H6.87283H6.88071H6.88858H6.89646H6.90433H6.9122H6.92008H6.92795H6.93583H6.9437H6.95157H6.95945H6.96732H6.9752H6.98307H6.99094H6.99882H7.00669H7.01457H7.02244H7.03031H7.03819H7.04606H7.05394H7.06181H7.06968H7.07756H7.08543H7.0933H7.10118H7.10905H7.11693H7.1248H7.13267H7.14055H7.14842H7.1563H7.16417H7.17204H7.17992H7.18779H7.19567H7.20354H7.21141H7.21929H7.22716H7.23504H7.24291H7.25078H7.25866H7.26653H7.27441H7.28228H7.29015H7.29803H7.3059H7.31378H7.32165H7.32952H7.3374H7.34527H7.35315H7.36102H7.36889H7.37677H7.38464H7.39251H7.40039H7.40826H7.41614H7.42401H7.43188H7.43976H7.44763H7.45551H7.46338H7.47125H7.47913H7.487H7.49488H7.50275H7.51062H7.5185H7.52637H7.53425H7.54212H7.54999H7.55787H7.56574H7.57362H7.58149H7.58936H7.59724H7.60511H7.61299H7.62086H7.62873H7.63661H7.64448H7.65235H7.66023H7.6681H7.67598H7.68385H7.69172H7.6996H7.70747H7.71535H7.72322H7.73109H7.73897H7.74684H7.75472H7.76259H7.77046H7.77834H7.78621H7.79409H7.80196H7.80983H7.81771H7.82558H7.83346H7.84133H7.8492H7.85708H7.86495H7.87283H7.8807H7.88857H7.89645H7.90432H7.9122H7.92007H7.92794H7.93582H7.94369H7.95157H7.95944H7.96731H7.97519H7.98306H7.99093H7.99881H8.00668H8.01456H8.02243H8.0303H8.03818H8.04605H8.05393H8.0618H8.06967H8.07755H8.08542H8.0933H8.10117H8.10904H8.11692H8.12479H8.13267H8.14054H8.14841H8.15629H8.16416H8.17204H8.17991H8.18778H8.19566H8.20353H8.21141H8.21928H8.22715H8.23503H8.2429H8.25077H8.25865H8.26652H8.2744H8.28227H8.29014H8.29802H8.30589H8.31377H8.32164H8.32951H8.33739H8.34526H8.35314H8.36101H8.36888H8.37676H8.38463H8.39251H8.40038H8.40825H8.41613H8.424H8.43188H8.43975H8.44762H8.4555H8.46337H8.47125H8.47912H8.48699H8.49487H8.50274H8.51061H8.51849H8.52636H8.53424H8.54211H8.54998H8.55786H8.56573H8.57361H8.58148H8.58935H8.59723H8.6051H8.61298H8.62085H8.62872H8.6366H8.64447H8.65235H8.66022H8.66809H8.67597H8.68384H8.69172H8.69959H8.70746H8.71534H8.72321H8.73109H8.73896H8.74683H8.75471H8.76258H8.77046H8.77833H8.7862H8.79408H8.80195H8.80982C8.93618 11.1752 9.08926 11.1695 9.21055 11.1087C9.27428 11.0768 9.33095 11.0289 9.37009 10.9592C9.4088 10.8903 9.42636 10.8071 9.42441 10.7103C9.42246 10.6133 9.40124 10.5309 9.3592 10.4637C9.31675 10.3959 9.25772 10.351 9.19295 10.3219C9.0701 10.2667 8.917 10.2651 8.7941 10.2651L6.83342 10.2651L6.83314 10.2651L4.81863 10.2707C4.69116 10.268 4.54034 10.2711 4.41704 10.3262C4.35257 10.355 4.29368 10.3988 4.24977 10.4637C4.2061 10.5283 4.18147 10.6076 4.17522 10.7011L4.27499 10.7078ZM4.27499 10.7078C4.29634 10.3887 4.56039 10.3651 4.81769 10.3707L6.83342 10.3651H8.7941C9.04803 10.3651 9.31769 10.3775 9.32443 10.7123C9.33117 11.0471 9.066 11.0752 8.80982 11.0752H4.77836C4.52443 11.0752 4.25028 11.0528 4.27499 10.7078Z" fill="#333333" stroke="#333333" stroke-width="0.2"/>
<path id="Vector_6" d="M18.1668 13.107H18.1668C18.1632 13.2435 18.1327 13.3805 18.0516 13.4839C17.9663 13.5926 17.8366 13.6496 17.6689 13.6436L17.6681 13.6436C17.5106 13.6367 17.3955 13.5705 17.3241 13.4627C17.2566 13.3608 17.2354 13.2329 17.2354 13.1114C17.2354 13.1113 17.2354 13.1112 17.2354 13.1111L18.1668 13.107ZM18.1668 13.107L18.1668 13.1059M18.1668 13.107L18.1668 13.1059M18.1668 13.1059C18.1706 12.869 18.1694 12.6301 18.1681 12.3925C18.1675 12.2743 18.1669 12.1564 18.1669 12.0392C18.1669 11.804 18.1678 11.569 18.1688 11.3324C18.1693 11.212 18.1699 11.0912 18.1702 10.9698L18.1703 10.9698L18.1702 10.9666C18.1665 10.8416 18.1406 10.7152 18.0708 10.6155C17.9976 10.511 17.8841 10.4472 17.7323 10.4382L17.7323 10.4382M18.1668 13.1059L17.7323 10.4382M17.7323 10.4382L17.7303 10.4381M17.7323 10.4382L17.7303 10.4381M17.7303 10.4381C17.56 10.4315 17.4286 10.488 17.3436 10.5978C17.2627 10.7021 17.2354 10.8401 17.2354 10.9763H17.3354L17.7303 10.4381Z" fill="#333333" stroke="#333333" stroke-width="0.2"/>
<path id="Vector_7" d="M17.3351 15.1123L17.2351 15.1114C17.2284 15.8214 17.2284 16.5318 17.2351 17.2425H17.2351L17.2352 17.2441C17.2382 17.3636 17.2599 17.4913 17.3277 17.5926C17.3999 17.7003 17.5157 17.7655 17.6752 17.7696L17.6752 17.7697L18.0666 17.2202L18.1666 17.2218C18.1666 17.2215 18.1666 17.2213 18.1666 17.221C18.1703 16.9835 18.1691 16.7451 18.1678 16.5082C18.1672 16.3904 18.1666 16.2731 18.1666 16.1564C18.1666 16.1563 18.1666 16.1562 18.1666 16.1562L18.1711 15.1499H18.1711V15.1494C18.1711 15.0197 18.1544 14.8801 18.0884 14.7682C18.0177 14.6482 17.8979 14.5726 17.7249 14.5631C17.552 14.5535 17.4217 14.6165 17.3392 14.7304C17.2615 14.8378 17.2351 14.9783 17.2351 15.1123H17.3351ZM17.3351 15.1123C17.3284 15.8217 17.3284 16.5315 17.3351 17.2416L18.0711 15.1494C18.0711 14.9011 18.0048 14.6786 17.7194 14.6629C17.434 14.6472 17.3351 14.8652 17.3351 15.1123Z" fill="#333333" stroke="#333333" stroke-width="0.2"/>
</g>
</g>
<defs>
<clipPath id="clip0_201_27044">
<rect width="24" height="24" fill="white" transform="translate(0 0.5)"/>
</clipPath>
</defs>
</svg>
