<svg width="24" height="25" viewBox="0 0 24 25" fill="none" xmlns="http://www.w3.org/2000/svg">
<g id="icon_guide" opacity="0.8" clip-path="url(#clip0_201_1952)">
<g id="Layer 1">
<path id="Vector" d="M7.18362 13.3597C7.46652 12.7085 7.40701 12.409 6.91116 11.954C6.29463 11.4073 5.85156 10.6923 5.63657 9.89698C5.57306 9.59612 5.39675 9.33099 5.14385 9.156C4.22105 8.49852 4.0154 7.35993 4.60833 6.38414C4.70333 6.22656 4.76492 6.09611 4.71272 5.90512C4.22731 4.17688 5.2044 2.16687 7.29323 1.34241C8.49934 0.874994 9.79813 0.696291 11.0857 0.820597C11.855 0.887389 12.4918 1.19108 12.7935 1.98424C12.9346 2.32299 13.1819 2.60681 13.4981 2.79304C14.7445 3.60811 14.9742 4.29064 14.5243 5.71518C14.4731 5.87694 14.4136 6.00531 14.5483 6.19107C15.279 7.19921 15.065 8.51313 14.043 9.2468C13.8733 9.36393 13.7517 9.53853 13.7007 9.73835C13.4435 10.667 12.9129 11.4968 12.1776 12.1199C11.8644 12.3902 11.8415 13.3232 12.1202 13.6154C12.2611 13.7626 12.3561 13.6331 12.4146 13.5528C12.996 12.7586 13.803 12.865 14.5942 13.031C16.7864 13.5048 18.3418 14.7446 19.0109 16.9289C19.6853 19.132 19.7417 21.4165 19.7594 23.6957C19.7594 24.1654 19.4744 24.2176 19.1018 24.2176C15.6054 24.212 12.1087 24.212 8.61167 24.2176C5.98523 24.2176 3.35844 24.2176 0.731311 24.2176C0.0444291 24.2176 -0.00672176 24.1675 0.000585497 23.4661C0.0183317 21.5135 0.122721 19.5703 0.541323 17.6573C1.14783 14.8813 3.25545 13.0654 5.96957 12.936C6.49987 12.911 6.49987 12.911 7.18362 13.3597ZM10.0481 23.4515C11.736 23.4515 13.423 23.438 15.1099 23.4609C15.5275 23.4609 15.6433 23.3451 15.6319 22.9391C15.6047 21.8266 15.6225 20.7131 15.6235 19.5995C15.6235 19.3908 15.6078 19.1748 15.8323 19.0506C16.1267 18.8888 16.3824 19.1017 16.3855 19.5453C16.3949 20.7099 16.3981 21.8757 16.3855 23.0403C16.3855 23.3534 16.4711 23.4724 16.7979 23.4578C17.4054 23.4348 18.0151 23.4453 18.6237 23.4578C18.8523 23.4578 18.9859 23.4067 18.9775 23.1447C18.9086 21.0418 18.8784 18.9316 18.179 16.9122C17.6445 15.3666 16.5087 14.4388 14.9888 13.9274C14.6892 13.8231 14.5222 13.8836 14.3625 14.1685C13.7278 15.2675 13.0701 16.3539 12.4094 17.4371C12.2635 17.6696 12.1881 17.9393 12.1922 18.2136C12.2027 19.5181 12.1995 20.8227 12.1922 22.1261C12.1922 22.7408 12.1066 22.8264 11.5043 22.8285C10.3741 22.8285 9.24322 22.8285 8.11164 22.8285C7.44668 22.8285 7.38614 22.7711 7.38092 22.123C7.38092 20.8707 7.37152 19.6183 7.38092 18.366C7.39312 18.0197 7.30151 17.6777 7.11786 17.3839C6.47795 16.3486 5.84117 15.3102 5.24511 14.2531C5.03633 13.8847 4.82755 13.8742 4.49037 14.0068C2.84833 14.6653 1.77416 15.8237 1.36182 17.5676C0.931739 19.372 0.834657 21.2098 0.764716 23.0539C0.752189 23.391 0.888939 23.4641 1.19167 23.4557C1.86916 23.439 2.54873 23.4348 3.22622 23.4557C3.56235 23.4672 3.67718 23.368 3.67092 23.0195C3.65108 21.8892 3.66465 20.759 3.66257 19.6277C3.66257 19.3344 3.68136 19.0172 4.04985 19.0068C4.41834 18.9963 4.44653 19.3198 4.44757 19.612C4.44757 20.7079 4.46636 21.8037 4.43922 22.8984C4.42878 23.3221 4.54361 23.4661 4.98622 23.4599C6.67316 23.4317 8.36113 23.4515 10.0481 23.4515ZM9.74116 12.265C9.7944 12.265 9.91654 12.2576 10.0366 12.2378C11.7371 11.9644 12.5806 10.8133 13.0305 9.2802C13.1192 8.9765 13.2393 8.77926 13.5399 8.62376C14.3562 8.20005 14.4293 7.05832 13.6954 6.55426C13.5253 6.43737 13.4512 6.26622 13.3666 6.09715C13.0608 5.49151 12.6699 4.93273 12.2058 4.43779C12.091 4.31569 11.9605 4.09235 11.7381 4.30629C11.2579 4.77175 10.6598 4.80723 10.0387 4.79888C9.01357 4.7874 7.98533 4.77592 6.97275 4.9596C6.31823 5.07649 5.79524 5.3854 5.70233 6.13681C5.66757 6.30738 5.58034 6.46282 5.45284 6.58139C4.80145 7.29523 4.95908 8.2157 5.82238 8.65611C6.13033 8.81265 6.22741 9.02555 6.29109 9.33655C6.63975 11.0481 8.05527 12.265 9.74116 12.265ZM5.39125 4.93038C6.22637 4.16958 7.13351 4.09548 8.03961 4.06209C8.78495 4.03078 9.53238 4.03704 10.2788 4.03287C10.6556 4.03287 10.9991 3.95877 11.2757 3.67282C11.7392 3.19379 11.877 3.18544 12.401 3.57889C12.8812 3.93998 13.2225 4.42109 13.5649 4.90325C13.6464 5.017 13.6693 5.20172 13.8593 5.21633C14.0942 4.46388 14.0086 4.09548 13.3457 3.64359C12.7549 3.2418 12.259 2.79096 11.9887 2.11573C11.8738 1.82769 11.6076 1.69828 11.3321 1.65863C9.59502 1.43112 7.93314 1.62001 6.49569 2.72729C5.84535 3.22928 5.45598 3.91598 5.39125 4.93038ZM13.6746 13.7918C13.353 13.6603 13.2319 13.8763 13.0879 14.0005C12.2402 14.7477 11.3971 15.4998 10.5585 16.2568C9.785 16.9613 9.79127 16.9613 9.01565 16.2307C8.22125 15.4772 7.42058 14.73 6.62618 13.9775C6.42784 13.7897 6.23368 13.6269 5.92468 13.7928C5.9413 13.8585 5.96402 13.9224 5.99254 13.9838C6.60635 15.0128 7.22955 16.0376 7.83501 17.0719C7.9655 17.2942 8.13878 17.3192 8.35696 17.3171C9.05219 17.3171 9.75682 17.2451 10.4447 17.3328C11.3185 17.4455 11.8018 17.1021 12.1849 16.3445C12.6202 15.4668 13.1683 14.6475 13.6746 13.7918ZM8.14192 20.0817C8.14192 20.6202 8.1534 21.1577 8.14192 21.6951C8.13461 21.9633 8.22647 22.0666 8.49788 22.0635C9.333 22.052 10.1681 22.0489 10.997 22.0635C11.3227 22.0698 11.4145 21.9393 11.4145 21.6325C11.4013 20.5889 11.4013 19.5477 11.4145 18.5089C11.4145 18.1896 11.3101 18.0852 10.997 18.0915C10.1817 18.1071 9.36536 18.1103 8.55008 18.0915C8.21812 18.0842 8.13774 18.2178 8.14922 18.5215C8.16279 19.0401 8.14818 19.562 8.14818 20.0817H8.14192ZM11.4918 14.1623C11.3274 13.8353 11.2214 13.4821 11.1786 13.1186C11.1535 12.7993 11.0325 12.8055 10.7819 12.8807C10.1643 13.0699 9.50863 13.0987 8.87682 12.9642C8.17636 12.8275 8.17532 12.8254 7.9989 13.5256C7.93522 13.7792 7.75881 14.0203 8.0584 14.2771C8.57096 14.7164 9.05532 15.1923 9.54073 15.663C9.70671 15.8237 9.83407 15.8623 10.0209 15.688C10.4531 15.2873 10.902 14.9043 11.3415 14.5108C11.4396 14.4336 11.5544 14.3626 11.498 14.1623H11.4918Z" fill="#FA8B02" stroke="#FA8B02" stroke-width="0.2"/>
<path id="Vector_2" d="M17.175 7.17722V1.96537C17.175 1.91319 17.175 1.86101 17.175 1.80883C17.1854 1.53957 17.2627 1.30998 17.5852 1.32146C17.8723 1.33189 17.9882 1.55001 17.9454 1.79317C17.8493 2.35151 18.1646 2.62807 18.5633 2.92968C20.2565 4.20498 21.9278 5.50951 23.6043 6.80778C23.8047 6.96223 24.0866 7.10103 23.9749 7.42351C23.8632 7.74599 23.5699 7.69694 23.3089 7.69694H19.1918C17.9579 7.69694 17.9579 7.69694 17.9579 8.95764C17.9579 10.1042 17.9579 11.2522 17.9579 12.4016C17.9579 12.6844 17.9767 13.0173 17.5904 13.0278C17.1624 13.0434 17.1729 12.6907 17.1729 12.3901C17.1729 10.6528 17.1736 8.9152 17.175 7.17722ZM22.3151 6.79317C20.9507 5.74328 19.601 4.69757 18.2376 3.65604C17.9715 3.44731 17.9621 3.65604 17.9621 3.84807C17.9621 4.7174 17.9777 5.58778 17.9537 6.45712C17.9443 6.83491 18.0915 6.92779 18.4412 6.92258C19.5895 6.90692 20.7378 6.92258 21.8861 6.91423C22.0145 6.91318 22.1616 6.96223 22.3151 6.79317Z" fill="#FA8B02" stroke="#FA8B02" stroke-width="0.2"/>
<path id="Vector_3" d="M9.80111 18.5476C10.0276 18.5476 10.2542 18.5372 10.4796 18.5476C10.5281 18.5456 10.5765 18.5535 10.6218 18.5707C10.6671 18.5879 10.7085 18.6142 10.7434 18.6478C10.7784 18.6815 10.8061 18.7218 10.825 18.7665C10.8439 18.8111 10.8535 18.8592 10.8534 18.9077C10.8603 18.9559 10.8567 19.005 10.8429 19.0517C10.8291 19.0984 10.8054 19.1416 10.7734 19.1784C10.7414 19.2151 10.7019 19.2445 10.6575 19.2646C10.6131 19.2847 10.5649 19.295 10.5162 19.2948C10.0308 19.3126 9.54327 19.3105 9.05473 19.2948C9.00599 19.296 8.95757 19.2868 8.9127 19.2677C8.86783 19.2487 8.82754 19.2203 8.79453 19.1844C8.76152 19.1485 8.73656 19.106 8.7213 19.0598C8.70605 19.0135 8.70085 18.9645 8.70607 18.916C8.70389 18.8675 8.71175 18.819 8.72917 18.7737C8.74659 18.7284 8.77318 18.6871 8.80728 18.6525C8.84138 18.618 8.88226 18.5908 8.92736 18.5727C8.97245 18.5547 9.02079 18.5461 9.06934 18.5476C9.31466 18.5382 9.55788 18.5487 9.80111 18.5476Z" fill="#FA8B02" stroke="#FA8B02" stroke-width="0.2"/>
<path id="Vector_4" d="M9.79994 20.446C9.55672 20.446 9.31349 20.4554 9.06922 20.446C9.02075 20.4475 8.9725 20.439 8.92751 20.4209C8.88252 20.4028 8.84177 20.3756 8.80783 20.341C8.77389 20.3064 8.7475 20.2651 8.73032 20.2198C8.71314 20.1744 8.70555 20.126 8.70803 20.0776C8.7028 20.0292 8.70799 19.9802 8.72325 19.934C8.73852 19.8878 8.7635 19.8453 8.79653 19.8095C8.82955 19.7738 8.86986 19.7455 8.91473 19.7265C8.9596 19.7076 9.00801 19.6985 9.05669 19.6998C9.52575 19.6873 9.9948 19.6873 10.4639 19.6998C10.7071 19.705 10.8595 19.8438 10.8511 20.0954C10.8428 20.3197 10.6946 20.4397 10.4764 20.4512C10.2582 20.4627 10.0265 20.4471 9.79994 20.446Z" fill="#FA8B02" stroke="#FA8B02" stroke-width="0.2"/>
<path id="Vector_5" d="M9.76126 21.5886C9.53682 21.5886 9.31134 21.5886 9.08586 21.5886C9.03769 21.5919 8.98936 21.5853 8.94391 21.569C8.89845 21.5527 8.85686 21.5272 8.82175 21.4941C8.78665 21.4609 8.75878 21.4209 8.73992 21.3764C8.72106 21.332 8.7116 21.2841 8.71215 21.2359C8.70451 21.188 8.70747 21.1389 8.72083 21.0923C8.73419 21.0456 8.75762 21.0025 8.78947 20.9659C8.82132 20.9293 8.86081 20.9001 8.90517 20.8804C8.94952 20.8607 8.99766 20.8509 9.04619 20.8518C9.53056 20.8383 10.017 20.8393 10.5014 20.8518C10.5498 20.8496 10.5982 20.8579 10.6432 20.8761C10.6881 20.8943 10.7287 20.9219 10.762 20.9572C10.7953 20.9925 10.8205 21.0345 10.8361 21.0804C10.8517 21.1264 10.8571 21.1751 10.8521 21.2234C10.8543 21.2716 10.8465 21.3197 10.8291 21.3647C10.8117 21.4097 10.7851 21.4506 10.751 21.4847C10.717 21.5189 10.6761 21.5456 10.6312 21.5631C10.5862 21.5806 10.5381 21.5886 10.4899 21.5865C10.2477 21.5991 10.0045 21.5865 9.75917 21.5865L9.76126 21.5886Z" fill="#FA8B02" stroke="#FA8B02" stroke-width="0.2"/>
</g>
</g>
<defs>
<clipPath id="clip0_201_1952">
<rect width="24" height="24" fill="white" transform="translate(0 0.5)"/>
</clipPath>
</defs>
</svg>
